SplineFontDB: 3.0
FontName: MenloClojure-Regular
FullName: Menlo Clojure Regular
FamilyName: MenloClojure
Weight: Regular
Copyright: Copyright (c) 2009 Apple Inc. Copyright (c)  2006 by Tavmjong Bah. Copyright (c) 2003 by Bitstream, Inc. All Rights Reserved.
Version: 8.0d2e1
ItalicAngle: 0
UnderlinePosition: -175
UnderlineWidth: 90
Ascent: 1556
Descent: 492
InvalidEm: 0
sfntRevision: 0x0002072b
LayerCount: 2
Layer: 0 1 "Back" 1
Layer: 1 1 "Fore" 0
XUID: [1021 234 1713769992 12396243]
FSType: 0
OS2Version: 3
OS2_WeightWidthSlopeOnly: 0
OS2_UseTypoMetrics: 1
CreationTime: 1229875379
ModificationTime: 1430914297
PfmFamily: 17
TTFWeight: 400
TTFWidth: 5
LineGap: 0
VLineGap: 0
Panose: 2 11 6 9 3 8 4 2 2 4
OS2TypoAscent: 1556
OS2TypoAOffset: 0
OS2TypoDescent: -492
OS2TypoDOffset: 0
OS2TypoLinegap: 410
OS2WinAscent: 1901
OS2WinAOffset: 0
OS2WinDescent: 483
OS2WinDOffset: 0
HheadAscent: 1901
HheadAOffset: 0
HheadDescent: -483
HheadDOffset: 0
OS2SubXSize: 1331
OS2SubYSize: 1433
OS2SubXOff: 0
OS2SubYOff: 286
OS2SupXSize: 1331
OS2SupYSize: 1433
OS2SupXOff: 0
OS2SupYOff: 983
OS2StrikeYSize: 102
OS2StrikeYPos: 530
OS2CapHeight: 1493
OS2XHeight: 1120
OS2Vendor: 'PfEd'
OS2CodePages: 600001df.ffdf0000
OS2UnicodeRanges: e60022ff.d200f9fb.02000028.00000000
MarkAttachClasses: 1
DEI: 91125
MacFeat: 1 0 0
MacName: 0 0 9 "Ligatures"
MacSetting: 2
MacName: 0 0 16 "Common Ligatures"
EndMacFeatures
TtTable: prep
PUSHW_1
 8
CALL
PUSHW_2
 640
 277
PUSHB_3
 148
 93
 5
NPUSHW
 28
 277
 150
 3
 277
 128
 4
 276
 254
 3
 275
 254
 3
 274
 18
 3
 273
 254
 3
 272
 254
 3
 271
 154
 3
 270
 254
 3
 269
PUSHB_3
 235
 71
 5
NPUSHW
 37
 269
 125
 3
 268
 37
 3
 267
 50
 3
 266
 150
 3
 265
 254
 3
 264
 14
 3
 263
 254
 3
 262
 37
 3
 261
 254
 3
 260
 14
 3
 259
 37
 3
 258
 254
 3
 257
NPUSHB
 89
 254
 3
 254
 254
 3
 253
 125
 3
 252
 254
 3
 251
 254
 3
 250
 50
 3
 249
 187
 3
 248
 125
 3
 247
 246
 140
 5
 247
 254
 3
 247
 192
 4
 246
 245
 89
 5
 246
 140
 3
 246
 128
 4
 245
 244
 38
 5

StartChar: exclam
Encoding: 33 33 1
Width: 1233
Flags: W
LayerCount: 2
Back
Fore
SplineSet
546 1493 m 1,0,-1
 749 1493 l 1,1,-1
 749 838 l 1,2,-1
 728 531 l 1,3,-1
 567 531 l 1,4,-1
 546 838 l 1,5,-1
 546 1493 l 1,0,-1
516 254 m 1,6,-1
 779 254 l 1,7,-1
 779 0 l 1,8,-1
 516 0 l 1,9,-1
 516 254 l 1,6,-1
EndSplineSet
EndChar

StartChar: quotedbl
Encoding: 34 34 2
Width: 1233
Flags: W
LayerCount: 2
Back
Fore
SplineSet
945 1547 m 1,0,-1
 945 935 l 1,1,-1
 721 935 l 1,2,-1
 721 1547 l 1,3,-1
 945 1547 l 1,0,-1
412 1547 m 1,4,-1
 412 935 l 1,5,-1
 188 935 l 1,6,-1
 188 1547 l 1,7,-1
 412 1547 l 1,4,-1
EndSplineSet
EndChar

StartChar: numbersign
Encoding: 35 35 3
Width: 1233
Flags: W
LayerCount: 2
Back
Fore
SplineSet
684 1465 m 1,0,-1
 594 1111 l 1,1,-1
 839 1111 l 1,2,-1
 930 1465 l 1,3,-1
 1090 1465 l 1,4,-1
 999 1111 l 1,5,-1
 1243 1111 l 1,6,-1
 1243 958 l 1,7,-1
 962 958 l 1,8,-1
 864 565 l 1,9,-1
 1114 565 l 1,10,-1
 1114 412 l 1,11,-1
 825 412 l 1,12,-1
 721 0 l 1,13,-1
 561 0 l 1,14,-1
 666 412 l 1,15,-1
 420 412 l 1,16,-1
 315 0 l 1,17,-1
 156 0 l 1,18,-1
 260 412 l 1,19,-1
 2 412 l 1,20,-1
 2 565 l 1,21,-1
 299 565 l 1,22,-1
 397 958 l 1,23,-1
 131 958 l 1,24,-1
 131 1111 l 1,25,-1
 434 1111 l 1,26,-1
 524 1465 l 1,27,-1
 684 1465 l 1,0,-1
802 958 m 1,28,-1
 557 958 l 1,29,-1
 459 565 l 1,30,-1
 705 565 l 1,31,-1
 802 958 l 1,28,-1
EndSplineSet
EndChar

StartChar: dollar
Encoding: 36 36 4
Width: 1233
Flags: W
LayerCount: 2
Back
Fore
SplineSet
692 580 m 1,0,-1
 692 146 l 1,1,2
 802 149 802 149 864 207 c 128,-1,3
 926 265 926 265 926 365 c 0,4,5
 926 458 926 458 870 509.5 c 128,-1,6
 814 561 814 561 692 580 c 1,0,-1
592 770 m 1,7,-1
 592 1183 l 1,8,9
 488 1179 488 1179 429.5 1123 c 128,-1,10
 371 1067 371 1067 371 973 c 0,11,12
 371 887 371 887 425.5 837 c 128,-1,13
 480 787 480 787 592 770 c 1,7,-1
692 -301 m 1,14,-1
 592 -301 l 1,15,-1
 591 0 l 1,16,17
 489 5 489 5 388.5 28 c 128,-1,18
 288 51 288 51 190 92 c 1,19,-1
 190 272 l 1,20,21
 290 210 290 210 391.5 177 c 128,-1,22
 493 144 493 144 592 142 c 1,23,-1
 592 600 l 1,24,25
 392 631 392 631 291 722 c 128,-1,26
 190 813 190 813 190 963 c 0,27,28
 190 1120 190 1120 295.5 1213.5 c 128,-1,29
 401 1307 401 1307 592 1321 c 1,30,-1
 592 1556 l 1,31,-1
 692 1556 l 1,32,-1
 693 1321 l 1,33,34
 772 1316 772 1316 853 1301 c 128,-1,35
 934 1286 934 1286 1018 1260 c 1,36,-1
 1018 1087 l 1,37,38
 933 1130 933 1130 852.5 1153.5 c 128,-1,39
 772 1177 772 1177 692 1181 c 1,40,-1
 692 750 l 1,41,42
 898 719 898 719 1006 622 c 128,-1,43
 1114 525 1114 525 1114 371 c 256,44,45
 1114 217 1114 217 997.5 114 c 128,-1,46
 881 11 881 11 693 2 c 1,47,-1
 692 -301 l 1,14,-1
EndSplineSet
EndChar

StartChar: percent
Encoding: 37 37 5
Width: 1233
Flags: W
LayerCount: 2
Back
Fore
SplineSet
696 319 m 0,0,1
 696 241 696 241 748.5 188 c 128,-1,2
 801 135 801 135 879 135 c 0,3,4
 956 135 956 135 1009.5 188.5 c 128,-1,5
 1063 242 1063 242 1063 319 c 256,6,7
 1063 396 1063 396 1009 450 c 128,-1,8
 955 504 955 504 879 504 c 0,9,10
 801 504 801 504 748.5 451 c 128,-1,11
 696 398 696 398 696 319 c 0,0,1
561 319 m 0,12,13
 561 454 561 454 653 546.5 c 128,-1,14
 745 639 745 639 879 639 c 0,15,16
 943 639 943 639 1000.5 615 c 128,-1,17
 1058 591 1058 591 1104 545 c 0,18,19
 1150 498 1150 498 1175 440 c 128,-1,20
 1200 382 1200 382 1200 319 c 0,21,22
 1200 186 1200 186 1107 93 c 128,-1,23
 1014 0 1014 0 879 0 c 0,24,25
 743 0 743 0 652 91.5 c 128,-1,26
 561 183 561 183 561 319 c 0,12,13
83 440 m 1,27,-1
 39 553 l 1,28,-1
 1154 999 l 1,29,-1
 1204 886 l 1,30,-1
 83 440 l 1,27,-1
168 1112 m 0,31,32
 168 1033 168 1033 220.5 980.5 c 128,-1,33
 273 928 273 928 352 928 c 0,34,35
 429 928 429 928 483 981.5 c 128,-1,36
 537 1035 537 1035 537 1112 c 256,37,38
 537 1189 537 1189 483 1242.5 c 128,-1,39
 429 1296 429 1296 352 1296 c 256,40,41
 275 1296 275 1296 221.5 1243 c 128,-1,42
 168 1190 168 1190 168 1112 c 0,31,32
33 1112 m 256,43,44
 33 1247 33 1247 125 1339.5 c 128,-1,45
 217 1432 217 1432 352 1432 c 0,46,47
 416 1432 416 1432 474.5 1408 c 128,-1,48
 533 1384 533 1384 578 1339 c 256,49,50
 623 1294 623 1294 647.5 1235.5 c 128,-1,51
 672 1177 672 1177 672 1112 c 0,52,53
 672 978 672 978 579 885.5 c 128,-1,54
 486 793 486 793 352 793 c 0,55,56
 217 793 217 793 125 885 c 128,-1,57
 33 977 33 977 33 1112 c 256,43,44
EndSplineSet
EndChar

StartChar: ampersand
Encoding: 38 38 6
Width: 1233
Flags: W
LayerCount: 2
Back
Fore
SplineSet
547 907 m 2,0,-1
 963 348 l 1,1,2
 1002 397 1002 397 1021 472 c 128,-1,3
 1040 547 1040 547 1040 651 c 0,4,5
 1040 683 1040 683 1037 753 c 1,6,-1
 1036 760 l 1,7,-1
 1200 760 l 1,8,-1
 1200 721 l 2,9,10
 1200 560 1200 560 1163 438.5 c 128,-1,11
 1126 317 1126 317 1051 229 c 1,12,-1
 1221 0 l 1,13,-1
 1008 0 l 1,14,-1
 930 109 l 1,15,16
 847 39 847 39 754 5 c 128,-1,17
 661 -29 661 -29 555 -29 c 0,18,19
 339 -29 339 -29 198 105.5 c 128,-1,20
 57 240 57 240 57 444 c 0,21,22
 57 581 57 581 126 698 c 128,-1,23
 195 815 195 815 334 915 c 1,24,25
 284 987 284 987 260 1056 c 128,-1,26
 236 1125 236 1125 236 1196 c 0,27,28
 236 1346 236 1346 335.5 1433 c 128,-1,29
 435 1520 435 1520 608 1520 c 0,30,31
 673 1520 673 1520 738.5 1508 c 128,-1,32
 804 1496 804 1496 874 1473 c 1,33,-1
 874 1290 l 1,34,35
 815 1329 815 1329 752.5 1347.5 c 128,-1,36
 690 1366 690 1366 621 1366 c 0,37,38
 524 1366 524 1366 468 1320.5 c 128,-1,39
 412 1275 412 1275 412 1198 c 0,40,41
 412 1139 412 1139 441 1074.5 c 128,-1,42
 470 1010 470 1010 547 907 c 2,0,-1
416 803 m 1,43,44
 324 730 324 730 278.5 648.5 c 128,-1,45
 233 567 233 567 233 475 c 0,46,47
 233 324 233 324 333 224.5 c 128,-1,48
 433 125 433 125 588 125 c 0,49,50
 630 125 630 125 676 137 c 128,-1,51
 722 149 722 149 766 172 c 0,52,53
 793 187 793 187 810.5 198.5 c 128,-1,54
 828 210 828 210 844 223 c 1,55,-1
 416 803 l 1,43,44
EndSplineSet
EndChar

StartChar: quotesingle
Encoding: 39 39 7
Width: 1233
Flags: W
LayerCount: 2
Back
Fore
SplineSet
742 1558 m 1,0,-1
 742 935 l 1,1,-1
 518 935 l 1,2,-1
 518 1558 l 1,3,-1
 742 1558 l 1,0,-1
EndSplineSet
EndChar

StartChar: parenleft
Encoding: 40 40 8
Width: 1233
Flags: W
LayerCount: 2
Back
Fore
SplineSet
855 1654 m 1,0,1
 722 1426 722 1426 656.5 1199.5 c 128,-1,2
 591 973 591 973 591 743 c 0,3,4
 591 514 591 514 656.5 287 c 128,-1,5
 722 60 722 60 855 -170 c 1,6,-1
 695 -170 l 1,7,8
 544 68 544 68 470 293.5 c 128,-1,9
 396 519 396 519 396 743 c 0,10,11
 396 966 396 966 470 1192 c 128,-1,12
 544 1418 544 1418 695 1654 c 1,13,-1
 855 1654 l 1,0,1
EndSplineSet
EndChar

StartChar: parenright
Encoding: 41 41 9
Width: 1233
Flags: W
LayerCount: 2
Back
Fore
SplineSet
348 1654 m 1,0,-1
 508 1654 l 1,1,2
 659 1418 659 1418 733 1192 c 128,-1,3
 807 966 807 966 807 743 c 0,4,5
 807 518 807 518 733 292 c 128,-1,6
 659 66 659 66 508 -170 c 1,7,-1
 348 -170 l 1,8,9
 481 62 481 62 546.5 289 c 128,-1,10
 612 516 612 516 612 743 c 0,11,12
 612 971 612 971 546.5 1198 c 128,-1,13
 481 1425 481 1425 348 1654 c 1,0,-1
EndSplineSet
EndChar

StartChar: asterisk
Encoding: 42 42 10
Width: 1233
Flags: W
LayerCount: 2
Back
Fore
SplineSet
1179 871 m 1,0,-1
 735 631 l 1,1,-1
 1179 390 l 1,2,-1
 1109 268 l 1,3,-1
 691 519 l 1,4,-1
 691 53 l 1,5,-1
 548 53 l 1,6,-1
 548 519 l 1,7,-1
 130 268 l 1,8,-1
 60 390 l 1,9,-1
 505 631 l 1,10,-1
 60 871 l 1,11,-1
 130 994 l 1,12,-1
 548 743 l 1,13,-1
 548 1209 l 1,14,-1
 691 1209 l 1,15,-1
 691 743 l 1,16,-1
 1109 994 l 1,17,-1
 1179 871 l 1,0,-1
EndSplineSet
EndChar

StartChar: plus
Encoding: 43 43 11
Width: 1233
Flags: W
LayerCount: 2
Back
Fore
SplineSet
720 1178 m 1,0,-1
 720 735 l 1,1,-1
 1165 735 l 1,2,-1
 1165 566 l 1,3,-1
 720 566 l 1,4,-1
 720 123 l 1,5,-1
 552 123 l 1,6,-1
 552 566 l 1,7,-1
 108 566 l 1,8,-1
 108 735 l 1,9,-1
 552 735 l 1,10,-1
 552 1178 l 1,11,-1
 720 1178 l 1,0,-1
EndSplineSet
EndChar

StartChar: comma
Encoding: 44 44 12
Width: 1233
Flags: W
LayerCount: 2
Back
Fore
SplineSet
442 361 m 1,0,-1
 754 361 l 1,1,-1
 754 96 l 1,2,-1
 532 -335 l 1,3,-1
 332 -336 l 1,4,-1
 442 96 l 1,5,-1
 442 361 l 1,0,-1
EndSplineSet
EndChar

StartChar: hyphen
Encoding: 45 45 13
Width: 1233
Flags: W
LayerCount: 2
Back
Fore
SplineSet
102 724 m 1,0,-1
 1162 724 l 1,1,-1
 1162 555 l 1,2,-1
 102 555 l 1,3,-1
 102 724 l 1,0,-1
EndSplineSet
EndChar

StartChar: period
Encoding: 46 46 14
Width: 1233
Flags: W
LayerCount: 2
Back
Fore
SplineSet
389 404 m 1,0,-1
 741 404 l 1,1,-1
 741 0 l 1,2,-1
 389 0 l 1,3,-1
 389 404 l 1,0,-1
EndSplineSet
EndChar

StartChar: slash
Encoding: 47 47 15
Width: 1233
Flags: W
LayerCount: 2
Back
Fore
SplineSet
889 1493 m 1,0,-1
 1079 1493 l 1,1,-1
 293 -190 l 1,2,-1
 102 -190 l 1,3,-1
 889 1493 l 1,0,-1
EndSplineSet
EndChar

StartChar: zero
Encoding: 48 48 16
Width: 1233
Flags: W
LayerCount: 2
Back
Fore
SplineSet
616 1515 m 256,0,1
 855 1515 855 1515 977.5 1320 c 128,-1,2
 1100 1125 1100 1125 1100 743 c 256,3,4
 1100 361 1100 361 977.5 166 c 128,-1,5
 855 -29 855 -29 616 -29 c 256,6,7
 377 -29 377 -29 255 166 c 128,-1,8
 133 361 133 361 133 743 c 256,9,10
 133 1125 133 1125 255 1320 c 128,-1,11
 377 1515 377 1515 616 1515 c 256,0,1
616 131 m 0,12,13
 758 131 758 131 827.5 282 c 128,-1,14
 897 433 897 433 897 743 c 0,15,16
 897 908 897 908 877 1041 c 1,17,-1
 401 296 l 1,18,19
 476 131 476 131 616 131 c 0,12,13
616 1355 m 0,20,21
 475 1355 475 1355 405.5 1204 c 128,-1,22
 336 1053 336 1053 336 743 c 0,23,24
 336 602 336 602 355 479 c 1,25,-1
 821 1222 l 1,26,27
 745 1355 745 1355 616 1355 c 0,20,21
EndSplineSet
EndChar

StartChar: one
Encoding: 49 49 17
Width: 1233
Flags: W
LayerCount: 2
Back
Fore
SplineSet
270 169 m 1,0,-1
 584 169 l 1,1,-1
 584 1297 l 1,2,-1
 208 1116 l 1,3,-1
 208 1310 l 1,4,-1
 582 1488 l 1,5,-1
 784 1488 l 1,6,-1
 784 169 l 1,7,-1
 1094 169 l 1,8,-1
 1094 0 l 1,9,-1
 270 0 l 1,10,-1
 270 169 l 1,0,-1
EndSplineSet
EndChar

StartChar: two
Encoding: 50 50 18
Width: 1233
Flags: W
LayerCount: 2
Back
Fore
SplineSet
373 170 m 1,0,-1
 1059 170 l 1,1,-1
 1059 0 l 1,2,-1
 152 0 l 1,3,-1
 152 170 l 1,4,5
 339 367 339 367 479 518 c 128,-1,6
 619 669 619 669 672 731 c 0,7,8
 772 853 772 853 807 928.5 c 128,-1,9
 842 1004 842 1004 842 1083 c 0,10,11
 842 1208 842 1208 768.5 1279 c 128,-1,12
 695 1350 695 1350 567 1350 c 0,13,14
 476 1350 476 1350 376 1317 c 128,-1,15
 276 1284 276 1284 164 1217 c 1,16,-1
 164 1421 l 1,17,18
 267 1470 267 1470 366.5 1495 c 128,-1,19
 466 1520 466 1520 563 1520 c 0,20,21
 782 1520 782 1520 915.5 1403.5 c 128,-1,22
 1049 1287 1049 1287 1049 1098 c 0,23,24
 1049 1002 1049 1002 1004.5 906 c 128,-1,25
 960 810 960 810 860 694 c 0,26,27
 804 629 804 629 697.5 514 c 128,-1,28
 591 399 591 399 373 170 c 1,0,-1
EndSplineSet
EndChar

StartChar: three
Encoding: 51 51 19
Width: 1233
Flags: W
LayerCount: 2
Back
Fore
SplineSet
776 799 m 1,0,1
 923 760 923 760 1001 660.5 c 128,-1,2
 1079 561 1079 561 1079 412 c 0,3,4
 1079 206 1079 206 940.5 88.5 c 128,-1,5
 802 -29 802 -29 557 -29 c 0,6,7
 454 -29 454 -29 347 -10 c 128,-1,8
 240 9 240 9 137 45 c 1,9,-1
 137 246 l 1,10,11
 239 193 239 193 338 167 c 128,-1,12
 437 141 437 141 535 141 c 0,13,14
 701 141 701 141 790 216 c 128,-1,15
 879 291 879 291 879 432 c 0,16,17
 879 562 879 562 790 638.5 c 128,-1,18
 701 715 701 715 549 715 c 2,19,-1
 395 715 l 1,20,-1
 395 881 l 1,21,-1
 549 881 l 2,22,23
 688 881 688 881 766 942 c 128,-1,24
 844 1003 844 1003 844 1112 c 0,25,26
 844 1227 844 1227 771.5 1288.5 c 128,-1,27
 699 1350 699 1350 565 1350 c 0,28,29
 476 1350 476 1350 381 1330 c 128,-1,30
 286 1310 286 1310 182 1270 c 1,31,-1
 182 1456 l 1,32,33
 303 1488 303 1488 397.5 1504 c 128,-1,34
 492 1520 492 1520 565 1520 c 0,35,36
 783 1520 783 1520 913.5 1410.5 c 128,-1,37
 1044 1301 1044 1301 1044 1120 c 0,38,39
 1044 997 1044 997 975.5 915 c 128,-1,40
 907 833 907 833 776 799 c 1,0,1
EndSplineSet
EndChar

StartChar: four
Encoding: 52 52 20
Width: 1233
Flags: W
LayerCount: 2
Back
Fore
SplineSet
735 1309 m 1,0,-1
 264 520 l 1,1,-1
 735 520 l 1,2,-1
 735 1309 l 1,0,-1
702 1493 m 1,3,-1
 936 1493 l 1,4,-1
 936 520 l 1,5,-1
 1135 520 l 1,6,-1
 1135 356 l 1,7,-1
 936 356 l 1,8,-1
 936 0 l 1,9,-1
 735 0 l 1,10,-1
 735 356 l 1,11,-1
 102 356 l 1,12,-1
 102 547 l 1,13,-1
 702 1493 l 1,3,-1
EndSplineSet
EndChar

StartChar: five
Encoding: 53 53 21
Width: 1233
Flags: W
LayerCount: 2
Back
Fore
SplineSet
207 1493 m 1,0,-1
 963 1493 l 1,1,-1
 963 1323 l 1,2,-1
 391 1323 l 1,3,-1
 391 956 l 1,4,5
 434 972 434 972 477.5 979.5 c 128,-1,6
 521 987 521 987 565 987 c 0,7,8
 797 987 797 987 933 850 c 128,-1,9
 1069 713 1069 713 1069 479 c 0,10,11
 1069 243 1069 243 926.5 107 c 128,-1,12
 784 -29 784 -29 537 -29 c 0,13,14
 418 -29 418 -29 319.5 -13 c 128,-1,15
 221 3 221 3 143 35 c 1,16,-1
 143 240 l 1,17,18
 235 190 235 190 328 165.5 c 128,-1,19
 421 141 421 141 518 141 c 0,20,21
 685 141 685 141 775.5 229 c 128,-1,22
 866 317 866 317 866 479 c 0,23,24
 866 639 866 639 772.5 728 c 128,-1,25
 679 817 679 817 512 817 c 0,26,27
 431 817 431 817 354 798.5 c 128,-1,28
 277 780 277 780 207 743 c 1,29,-1
 207 1493 l 1,0,-1
EndSplineSet
EndChar

StartChar: six
Encoding: 54 54 22
Width: 1233
Flags: W
LayerCount: 2
Back
Fore
SplineSet
991 1460 m 1,0,-1
 991 1274 l 1,1,2
 928 1311 928 1311 857 1330.5 c 128,-1,3
 786 1350 786 1350 709 1350 c 0,4,5
 517 1350 517 1350 418 1205.5 c 128,-1,6
 319 1061 319 1061 319 780 c 1,7,8
 367 880 367 880 452 933.5 c 128,-1,9
 537 987 537 987 647 987 c 0,10,11
 863 987 863 987 981.5 854.5 c 128,-1,12
 1100 722 1100 722 1100 479 c 0,13,14
 1100 237 1100 237 978 104 c 128,-1,15
 856 -29 856 -29 635 -29 c 0,16,17
 375 -29 375 -29 254 157.5 c 128,-1,18
 133 344 133 344 133 745 c 0,19,20
 133 1123 133 1123 278.5 1321.5 c 128,-1,21
 424 1520 424 1520 700 1520 c 0,22,23
 774 1520 774 1520 848 1504.5 c 128,-1,24
 922 1489 922 1489 991 1460 c 1,0,-1
631 829 m 0,25,26
 502 829 502 829 428 736 c 128,-1,27
 354 643 354 643 354 479 c 256,28,29
 354 315 354 315 428 222 c 128,-1,30
 502 129 502 129 631 129 c 0,31,32
 765 129 765 129 833 217.5 c 128,-1,33
 901 306 901 306 901 479 c 0,34,35
 901 653 901 653 833 741 c 128,-1,36
 765 829 765 829 631 829 c 0,25,26
EndSplineSet
EndChar

StartChar: seven
Encoding: 55 55 23
Width: 1233
Flags: W
LayerCount: 2
Back
Fore
SplineSet
139 1493 m 1,0,-1
 1079 1493 l 1,1,-1
 1079 1407 l 1,2,-1
 545 0 l 1,3,-1
 334 0 l 1,4,-1
 854 1323 l 1,5,-1
 139 1323 l 1,6,-1
 139 1493 l 1,0,-1
EndSplineSet
EndChar

StartChar: eight
Encoding: 56 56 24
Width: 1233
Flags: W
LayerCount: 2
Back
Fore
SplineSet
616 709 m 0,0,1
 481 709 481 709 407.5 633.5 c 128,-1,2
 334 558 334 558 334 420 c 256,3,4
 334 282 334 282 408.5 205.5 c 128,-1,5
 483 129 483 129 616 129 c 0,6,7
 752 129 752 129 825.5 204.5 c 128,-1,8
 899 280 899 280 899 420 c 0,9,10
 899 557 899 557 824.5 633 c 128,-1,11
 750 709 750 709 616 709 c 0,0,1
440 793 m 1,12,13
 311 826 311 826 238.5 916 c 128,-1,14
 166 1006 166 1006 166 1133 c 0,15,16
 166 1311 166 1311 287 1415.5 c 128,-1,17
 408 1520 408 1520 616 1520 c 0,18,19
 825 1520 825 1520 946 1415.5 c 128,-1,20
 1067 1311 1067 1311 1067 1133 c 0,21,22
 1067 1006 1067 1006 994.5 916 c 128,-1,23
 922 826 922 826 793 793 c 1,24,25
 943 760 943 760 1022.5 660 c 128,-1,26
 1102 560 1102 560 1102 401 c 0,27,28
 1102 199 1102 199 973 85 c 128,-1,29
 844 -29 844 -29 616 -29 c 256,30,31
 388 -29 388 -29 259.5 84.5 c 128,-1,32
 131 198 131 198 131 399 c 0,33,34
 131 559 131 559 210.5 659.5 c 128,-1,35
 290 760 290 760 440 793 c 1,12,13
367 1114 m 0,36,37
 367 994 367 994 431 931 c 128,-1,38
 495 868 495 868 616 868 c 0,39,40
 738 868 738 868 802 931 c 128,-1,41
 866 994 866 994 866 1114 c 0,42,43
 866 1236 866 1236 802.5 1300 c 128,-1,44
 739 1364 739 1364 616 1364 c 0,45,46
 495 1364 495 1364 431 1299.5 c 128,-1,47
 367 1235 367 1235 367 1114 c 0,36,37
EndSplineSet
EndChar

StartChar: nine
Encoding: 57 57 25
Width: 1233
Flags: W
LayerCount: 2
Back
Fore
SplineSet
596 662 m 0,0,1
 725 662 725 662 798.5 755 c 128,-1,2
 872 848 872 848 872 1012 c 256,3,4
 872 1176 872 1176 798.5 1269 c 128,-1,5
 725 1362 725 1362 596 1362 c 0,6,7
 462 1362 462 1362 394 1273.5 c 128,-1,8
 326 1185 326 1185 326 1012 c 0,9,10
 326 838 326 838 393.5 750 c 128,-1,11
 461 662 461 662 596 662 c 0,0,1
236 31 m 1,12,-1
 236 217 l 1,13,14
 299 180 299 180 370 160.5 c 128,-1,15
 441 141 441 141 518 141 c 0,16,17
 710 141 710 141 808.5 285.5 c 128,-1,18
 907 430 907 430 907 711 c 1,19,20
 860 611 860 611 775 557.5 c 128,-1,21
 690 504 690 504 580 504 c 0,22,23
 364 504 364 504 245.5 637 c 128,-1,24
 127 770 127 770 127 1014 c 0,25,26
 127 1255 127 1255 248.5 1387.5 c 128,-1,27
 370 1520 370 1520 592 1520 c 0,28,29
 852 1520 852 1520 973 1333 c 128,-1,30
 1094 1146 1094 1146 1094 745 c 0,31,32
 1094 368 1094 368 948.5 169.5 c 128,-1,33
 803 -29 803 -29 526 -29 c 0,34,35
 453 -29 453 -29 379 -13.5 c 128,-1,36
 305 2 305 2 236 31 c 1,12,-1
EndSplineSet
EndChar

StartChar: colon
Encoding: 58 58 26
Width: 1233
Flags: W
LayerCount: 2
Back
Fore
SplineSet
429 1119 m 1,0,-1
 741 1119 l 1,1,-1
 741 758 l 1,2,-1
 429 758 l 1,3,-1
 429 1119 l 1,0,-1
429 364 m 1,4,-1
 741 364 l 1,5,-1
 741 0 l 1,6,-1
 429 0 l 1,7,-1
 429 364 l 1,4,-1
EndSplineSet
EndChar

StartChar: semicolon
Encoding: 59 59 27
Width: 1233
Flags: W
LayerCount: 2
Back
Fore
SplineSet
442 361 m 1,0,-1
 754 361 l 1,1,-1
 754 96 l 1,2,-1
 557 -286 l 1,3,-1
 343 -286 l 1,4,-1
 442 96 l 1,5,-1
 442 361 l 1,0,-1
429 1119 m 1,6,-1
 741 1119 l 1,7,-1
 741 758 l 1,8,-1
 429 758 l 1,9,-1
 429 1119 l 1,6,-1
EndSplineSet
EndChar

StartChar: less
Encoding: 60 60 28
Width: 1233
Flags: W
LayerCount: 2
Back
Fore
SplineSet
1145 961 m 1,0,-1
 295 641 l 1,1,-1
 1145 324 l 1,2,-1
 1145 141 l 1,3,-1
 88 559 l 1,4,-1
 88 725 l 1,5,-1
 1145 1143 l 1,6,-1
 1145 961 l 1,0,-1
EndSplineSet
EndChar

StartChar: equal
Encoding: 61 61 29
Width: 1233
Flags: W
LayerCount: 2
Back
Fore
SplineSet
88 500 m 1,0,-1
 1145 500 l 1,1,-1
 1145 331 l 1,2,-1
 88 331 l 1,3,-1
 88 500 l 1,0,-1
88 971 m 1,4,-1
 1145 971 l 1,5,-1
 1145 802 l 1,6,-1
 88 802 l 1,7,-1
 88 971 l 1,4,-1
EndSplineSet
EndChar

StartChar: greater
Encoding: 62 62 30
Width: 1233
Flags: W
LayerCount: 2
Back
Fore
SplineSet
88 961 m 1,0,-1
 88 1143 l 1,1,-1
 1145 725 l 1,2,-1
 1145 559 l 1,3,-1
 88 141 l 1,4,-1
 88 324 l 1,5,-1
 938 641 l 1,6,-1
 88 961 l 1,0,-1
EndSplineSet
EndChar

StartChar: question
Encoding: 63 63 31
Width: 1233
Flags: W
LayerCount: 2
Back
Fore
SplineSet
684 401 m 1,0,-1
 494 401 l 1,1,-1
 494 555 l 2,2,3
 494 653 494 653 524.5 721.5 c 128,-1,4
 555 790 555 790 639 872 c 2,5,-1
 729 961 l 2,6,7
 791 1020 791 1020 814.5 1064 c 128,-1,8
 838 1108 838 1108 838 1157 c 0,9,10
 838 1246 838 1246 772.5 1301 c 128,-1,11
 707 1356 707 1356 598 1356 c 0,12,13
 520 1356 520 1356 431 1321.5 c 128,-1,14
 342 1287 342 1287 244 1219 c 1,15,-1
 244 1407 l 1,16,17
 338 1464 338 1464 433.5 1492 c 128,-1,18
 529 1520 529 1520 633 1520 c 0,19,20
 819 1520 819 1520 929.5 1424 c 128,-1,21
 1040 1328 1040 1328 1040 1167 c 0,22,23
 1040 1091 1040 1091 1006.5 1025.5 c 128,-1,24
 973 960 973 960 879 868 c 2,25,-1
 791 782 l 2,26,27
 722 716 722 716 703 674 c 128,-1,28
 684 632 684 632 684 571 c 2,29,-1
 684 524 l 1,30,-1
 684 401 l 1,0,-1
487 254 m 1,31,-1
 690 254 l 1,32,-1
 690 0 l 1,33,-1
 487 0 l 1,34,-1
 487 254 l 1,31,-1
EndSplineSet
EndChar

StartChar: at
Encoding: 64 64 32
Width: 1233
Flags: W
LayerCount: 2
Back
Fore
SplineSet
1038 545 m 0,0,1
 1038 674 1038 674 974 751.5 c 128,-1,2
 910 829 910 829 803 829 c 256,3,4
 696 829 696 829 631.5 751.5 c 128,-1,5
 567 674 567 674 567 545 c 0,6,7
 567 415 567 415 631.5 337.5 c 128,-1,8
 696 260 696 260 803 260 c 256,9,10
 910 260 910 260 974 337.5 c 128,-1,11
 1038 415 1038 415 1038 545 c 0,0,1
1178 135 m 1,12,-1
 1034 135 l 1,13,-1
 1034 246 l 1,14,15
 997 183 997 183 931.5 149 c 128,-1,16
 866 115 866 115 784 115 c 0,17,18
 623 115 623 115 517.5 236 c 128,-1,19
 412 357 412 357 412 545 c 256,20,21
 412 733 412 733 517.5 854 c 128,-1,22
 623 975 623 975 784 975 c 0,23,24
 864 975 864 975 931 940 c 128,-1,25
 998 905 998 905 1034 844 c 1,26,-1
 1034 907 l 2,27,28
 1034 1063 1034 1063 946 1158 c 128,-1,29
 858 1253 858 1253 713 1253 c 0,30,31
 467 1253 467 1253 321.5 1061.5 c 128,-1,32
 176 870 176 870 176 543 c 0,33,34
 176 214 176 214 341 19 c 128,-1,35
 506 -176 506 -176 793 -177 c 1,36,37
 847 -185 847 -185 945 -185 c 128,-1,38
 1043 -185 1043 -185 1120 -181 c 1,39,-1
 1120 -325 l 1,40,41
 1055 -330 1055 -330 952.5 -330.5 c 128,-1,42
 850 -331 850 -331 793 -322 c 1,43,44
 446 -319 446 -319 236.5 -86 c 128,-1,45
 27 147 27 147 27 543 c 0,46,47
 27 933 27 933 215 1164 c 128,-1,48
 403 1395 403 1395 719 1395 c 0,49,50
 928 1395 928 1395 1053 1262 c 128,-1,51
 1178 1129 1178 1129 1178 905 c 2,52,-1
 1178 135 l 1,12,-1
EndSplineSet
EndChar

StartChar: A
Encoding: 65 65 33
Width: 1233
Flags: W
LayerCount: 2
Back
Fore
SplineSet
616 1315 m 1,0,-1
 403 551 l 1,1,-1
 829 551 l 1,2,-1
 616 1315 l 1,0,-1
494 1493 m 1,3,-1
 739 1493 l 1,4,-1
 1196 0 l 1,5,-1
 987 0 l 1,6,-1
 877 389 l 1,7,-1
 354 389 l 1,8,-1
 246 0 l 1,9,-1
 37 0 l 1,10,-1
 494 1493 l 1,3,-1
EndSplineSet
EndChar

StartChar: B
Encoding: 66 66 34
Width: 1233
Flags: W
LayerCount: 2
Back
Fore
SplineSet
369 753 m 1,0,-1
 369 166 l 1,1,-1
 608 166 l 2,2,3
 784 166 784 166 859 227.5 c 128,-1,4
 934 289 934 289 934 430 c 0,5,6
 934 616 934 616 855 684.5 c 128,-1,7
 776 753 776 753 608 753 c 2,8,-1
 369 753 l 1,0,-1
369 1327 m 1,9,-1
 369 917 l 1,10,-1
 604 917 l 2,11,12
 750 917 750 917 815.5 973 c 128,-1,13
 881 1029 881 1029 881 1114 c 0,14,15
 881 1227 881 1227 816.5 1277 c 128,-1,16
 752 1327 752 1327 604 1327 c 2,17,-1
 369 1327 l 1,9,-1
166 1493 m 1,18,-1
 608 1493 l 2,19,20
 837 1493 837 1493 961 1394 c 128,-1,21
 1085 1295 1085 1295 1085 1114 c 0,22,23
 1085 1017 1085 1017 1019.5 938 c 128,-1,24
 954 859 954 859 823 839 c 1,25,26
 970 817 970 817 1053.5 713.5 c 128,-1,27
 1137 610 1137 610 1137 410 c 0,28,29
 1137 207 1137 207 1004 103.5 c 128,-1,30
 871 0 871 0 608 0 c 2,31,-1
 166 0 l 1,32,-1
 166 1493 l 1,18,-1
EndSplineSet
EndChar

StartChar: C
Encoding: 67 67 35
Width: 1233
Flags: W
LayerCount: 2
Back
Fore
SplineSet
1073 53 m 1,0,1
 996 12 996 12 915 -8.5 c 128,-1,2
 834 -29 834 -29 743 -29 c 0,3,4
 456 -29 456 -29 297.5 174 c 128,-1,5
 139 377 139 377 139 745 c 0,6,7
 139 1111 139 1111 298.5 1315.5 c 128,-1,8
 458 1520 458 1520 743 1520 c 0,9,10
 834 1520 834 1520 915 1499.5 c 128,-1,11
 996 1479 996 1479 1073 1438 c 1,12,-1
 1073 1231 l 1,13,14
 999 1292 999 1292 914 1324 c 128,-1,15
 829 1356 829 1356 743 1356 c 0,16,17
 546 1356 546 1356 448 1204 c 128,-1,18
 350 1052 350 1052 350 745 c 0,19,20
 350 439 350 439 448 287 c 128,-1,21
 546 135 546 135 743 135 c 0,22,23
 831 135 831 135 915.5 167 c 128,-1,24
 1000 199 1000 199 1073 260 c 1,25,-1
 1073 53 l 1,0,1
EndSplineSet
EndChar

StartChar: D
Encoding: 68 68 36
Width: 1233
Flags: W
LayerCount: 2
Back
Fore
SplineSet
436 166 m 2,0,1
 691 166 691 166 792 291.5 c 128,-1,2
 893 417 893 417 893 745 c 0,3,4
 893 1076 893 1076 792.5 1201.5 c 128,-1,5
 692 1327 692 1327 436 1327 c 2,6,-1
 340 1327 l 1,7,-1
 340 166 l 1,8,-1
 436 166 l 2,0,1
440 1493 m 2,9,10
 782 1493 782 1493 944 1311 c 128,-1,11
 1106 1129 1106 1129 1106 745 c 0,12,13
 1106 363 1106 363 944 181.5 c 128,-1,14
 782 0 782 0 440 0 c 2,15,-1
 137 0 l 1,16,-1
 137 1493 l 1,17,-1
 440 1493 l 2,9,10
EndSplineSet
EndChar

StartChar: E
Encoding: 69 69 37
Width: 1233
Flags: W
LayerCount: 2
Back
Fore
SplineSet
197 1493 m 1,0,-1
 1083 1493 l 1,1,-1
 1083 1323 l 1,2,-1
 399 1323 l 1,3,-1
 399 921 l 1,4,-1
 1053 921 l 1,5,-1
 1053 751 l 1,6,-1
 399 751 l 1,7,-1
 399 170 l 1,8,-1
 1102 170 l 1,9,-1
 1102 0 l 1,10,-1
 197 0 l 1,11,-1
 197 1493 l 1,0,-1
EndSplineSet
EndChar

StartChar: F
Encoding: 70 70 38
Width: 1233
Flags: W
LayerCount: 2
Back
Fore
SplineSet
233 1493 m 1,0,-1
 1112 1493 l 1,1,-1
 1112 1323 l 1,2,-1
 436 1323 l 1,3,-1
 436 923 l 1,4,-1
 1049 923 l 1,5,-1
 1049 753 l 1,6,-1
 436 753 l 1,7,-1
 436 0 l 1,8,-1
 233 0 l 1,9,-1
 233 1493 l 1,0,-1
EndSplineSet
EndChar

StartChar: G
Encoding: 71 71 39
Width: 1233
Flags: W
LayerCount: 2
Back
Fore
SplineSet
1104 123 m 1,0,1
 1023 48 1023 48 921.5 9.5 c 128,-1,2
 820 -29 820 -29 702 -29 c 0,3,4
 418 -29 418 -29 260 174.5 c 128,-1,5
 102 378 102 378 102 745 c 0,6,7
 102 1111 102 1111 262 1315.5 c 128,-1,8
 422 1520 422 1520 707 1520 c 0,9,10
 801 1520 801 1520 887 1493.5 c 128,-1,11
 973 1467 973 1467 1053 1413 c 1,12,-1
 1053 1206 l 1,13,14
 972 1283 972 1283 887 1319.5 c 128,-1,15
 802 1356 802 1356 707 1356 c 0,16,17
 510 1356 510 1356 411.5 1203.5 c 128,-1,18
 313 1051 313 1051 313 745 c 0,19,20
 313 434 313 434 408.5 284.5 c 128,-1,21
 504 135 504 135 702 135 c 0,22,23
 769 135 769 135 819.5 150.5 c 128,-1,24
 870 166 870 166 911 199 c 1,25,-1
 911 600 l 1,26,-1
 694 600 l 1,27,-1
 694 766 l 1,28,-1
 1104 766 l 1,29,-1
 1104 123 l 1,0,1
EndSplineSet
EndChar

StartChar: H
Encoding: 72 72 40
Width: 1233
Flags: W
LayerCount: 2
Back
Fore
SplineSet
137 1493 m 1,0,-1
 340 1493 l 1,1,-1
 340 921 l 1,2,-1
 893 921 l 1,3,-1
 893 1493 l 1,4,-1
 1096 1493 l 1,5,-1
 1096 0 l 1,6,-1
 893 0 l 1,7,-1
 893 751 l 1,8,-1
 340 751 l 1,9,-1
 340 0 l 1,10,-1
 137 0 l 1,11,-1
 137 1493 l 1,0,-1
EndSplineSet
EndChar

StartChar: I
Encoding: 73 73 41
Width: 1233
Flags: W
LayerCount: 2
Back
Fore
SplineSet
201 1493 m 1,0,-1
 1030 1493 l 1,1,-1
 1030 1323 l 1,2,-1
 717 1323 l 1,3,-1
 717 170 l 1,4,-1
 1030 170 l 1,5,-1
 1030 0 l 1,6,-1
 201 0 l 1,7,-1
 201 170 l 1,8,-1
 514 170 l 1,9,-1
 514 1323 l 1,10,-1
 201 1323 l 1,11,-1
 201 1493 l 1,0,-1
EndSplineSet
EndChar

StartChar: J
Encoding: 74 74 42
Width: 1233
Flags: W
LayerCount: 2
Back
Fore
SplineSet
109 61 m 1,0,-1
 109 297 l 1,1,2
 200 216 200 216 297 175.5 c 128,-1,3
 394 135 394 135 498 135 c 0,4,5
 641 135 641 135 697.5 209.5 c 128,-1,6
 754 284 754 284 754 487 c 2,7,-1
 754 1323 l 1,8,-1
 373 1323 l 1,9,-1
 373 1493 l 1,10,-1
 956 1493 l 1,11,-1
 956 487 l 2,12,13
 956 205 956 205 850.5 88 c 128,-1,14
 745 -29 745 -29 498 -29 c 0,15,16
 402 -29 402 -29 307 -7 c 128,-1,17
 212 15 212 15 109 61 c 1,0,-1
EndSplineSet
EndChar

StartChar: K
Encoding: 75 75 43
Width: 1233
Flags: W
LayerCount: 2
Back
Fore
SplineSet
137 1493 m 1,0,-1
 340 1493 l 1,1,-1
 340 829 l 1,2,-1
 971 1493 l 1,3,-1
 1208 1493 l 1,4,-1
 627 883 l 1,5,-1
 1225 0 l 1,6,-1
 981 0 l 1,7,-1
 494 748 l 1,8,-1
 340 584 l 1,9,-1
 340 0 l 1,10,-1
 137 0 l 1,11,-1
 137 1493 l 1,0,-1
EndSplineSet
EndChar

StartChar: L
Encoding: 76 76 44
Width: 1233
Flags: W
LayerCount: 2
Back
Fore
SplineSet
215 1493 m 1,0,-1
 418 1493 l 1,1,-1
 418 170 l 1,2,-1
 1139 170 l 1,3,-1
 1139 0 l 1,4,-1
 215 0 l 1,5,-1
 215 1493 l 1,0,-1
EndSplineSet
EndChar

StartChar: M
Encoding: 77 77 45
Width: 1233
Flags: W
LayerCount: 2
Back
Fore
SplineSet
36 1488 m 1,0,-1
 306 1488 l 1,1,-1
 564 730 l 1,2,-1
 824 1488 l 1,3,-1
 1095 1488 l 1,4,-1
 1095 0 l 1,5,-1
 908 0 l 1,6,-1
 908 1315 l 1,7,-1
 642 531 l 1,8,-1
 489 531 l 1,9,-1
 222 1315 l 1,10,-1
 222 0 l 1,11,-1
 36 0 l 1,12,-1
 36 1488 l 1,0,-1
EndSplineSet
EndChar

StartChar: N
Encoding: 78 78 46
Width: 1233
Flags: W
LayerCount: 2
Back
Fore
SplineSet
19 1488 m 1,0,-1
 295 1488 l 1,1,-1
 879 263 l 1,2,-1
 879 1488 l 1,3,-1
 1094 1488 l 1,4,-1
 1094 0 l 1,5,-1
 818 0 l 1,6,-1
 234 1225 l 1,7,-1
 234 0 l 1,8,-1
 19 0 l 1,9,-1
 19 1488 l 1,0,-1
EndSplineSet
EndChar

StartChar: O
Encoding: 79 79 47
Width: 1233
Flags: W
LayerCount: 2
Back
Fore
SplineSet
905 745 m 256,0,1
 905 1074 905 1074 837.5 1215 c 128,-1,2
 770 1356 770 1356 616 1356 c 0,3,4
 463 1356 463 1356 395.5 1215 c 128,-1,5
 328 1074 328 1074 328 745 c 0,6,7
 328 417 328 417 395.5 276 c 128,-1,8
 463 135 463 135 616 135 c 0,9,10
 770 135 770 135 837.5 275.5 c 128,-1,11
 905 416 905 416 905 745 c 256,0,1
1116 745 m 0,12,13
 1116 355 1116 355 992.5 163 c 128,-1,14
 869 -29 869 -29 616 -29 c 256,15,16
 363 -29 363 -29 240 162 c 128,-1,17
 117 353 117 353 117 745 c 0,18,19
 117 1136 117 1136 240.5 1328 c 128,-1,20
 364 1520 364 1520 616 1520 c 0,21,22
 869 1520 869 1520 992.5 1328 c 128,-1,23
 1116 1136 1116 1136 1116 745 c 0,12,13
EndSplineSet
EndChar

StartChar: P
Encoding: 80 80 48
Width: 1233
Flags: W
LayerCount: 2
Back
Fore
SplineSet
399 1327 m 1,0,-1
 399 766 l 1,1,-1
 633 766 l 2,2,3
 773 766 773 766 851.5 840 c 128,-1,4
 930 914 930 914 930 1047 c 256,5,6
 930 1180 930 1180 852 1253.5 c 128,-1,7
 774 1327 774 1327 633 1327 c 2,8,-1
 399 1327 l 1,0,-1
197 1493 m 1,9,-1
 633 1493 l 2,10,11
 883 1493 883 1493 1012 1379.5 c 128,-1,12
 1141 1266 1141 1266 1141 1047 c 0,13,14
 1141 826 1141 826 1012.5 713 c 128,-1,15
 884 600 884 600 633 600 c 2,16,-1
 399 600 l 1,17,-1
 399 0 l 1,18,-1
 197 0 l 1,19,-1
 197 1493 l 1,9,-1
EndSplineSet
EndChar

StartChar: Q
Encoding: 81 81 49
Width: 1233
Flags: W
LayerCount: 2
Back
Fore
SplineSet
655 -27 m 1,0,1
 648 -27 648 -27 635 -28 c 128,-1,2
 622 -29 622 -29 614 -29 c 0,3,4
 364 -29 364 -29 240.5 163 c 128,-1,5
 117 355 117 355 117 745 c 0,6,7
 117 1136 117 1136 240.5 1328 c 128,-1,8
 364 1520 364 1520 616 1520 c 0,9,10
 869 1520 869 1520 992.5 1328 c 128,-1,11
 1116 1136 1116 1136 1116 745 c 0,12,13
 1116 451 1116 451 1047.5 271.5 c 128,-1,14
 979 92 979 92 840 20 c 1,15,-1
 1040 -170 l 1,16,-1
 889 -270 l 1,17,-1
 655 -27 l 1,0,1
905 745 m 256,18,19
 905 1074 905 1074 837.5 1215 c 128,-1,20
 770 1356 770 1356 616 1356 c 0,21,22
 463 1356 463 1356 395.5 1215 c 128,-1,23
 328 1074 328 1074 328 745 c 0,24,25
 328 417 328 417 395.5 276 c 128,-1,26
 463 135 463 135 616 135 c 0,27,28
 770 135 770 135 837.5 275.5 c 128,-1,29
 905 416 905 416 905 745 c 256,18,19
EndSplineSet
EndChar

StartChar: R
Encoding: 82 82 50
Width: 1233
Flags: W
LayerCount: 2
Back
Fore
SplineSet
760 705 m 1,0,1
 838 685 838 685 893 629.5 c 128,-1,2
 948 574 948 574 1030 408 c 2,3,-1
 1233 0 l 1,4,-1
 1016 0 l 1,5,-1
 838 377 l 2,6,7
 761 538 761 538 699.5 584.5 c 128,-1,8
 638 631 638 631 539 631 c 2,9,-1
 346 631 l 1,10,-1
 346 0 l 1,11,-1
 143 0 l 1,12,-1
 143 1493 l 1,13,-1
 559 1493 l 2,14,15
 805 1493 805 1493 936 1382 c 128,-1,16
 1067 1271 1067 1271 1067 1061 c 0,17,18
 1067 913 1067 913 986.5 819.5 c 128,-1,19
 906 726 906 726 760 705 c 1,0,1
346 1327 m 1,20,-1
 346 797 l 1,21,-1
 567 797 l 2,22,23
 712 797 712 797 783 862 c 128,-1,24
 854 927 854 927 854 1061 c 0,25,26
 854 1190 854 1190 778.5 1258.5 c 128,-1,27
 703 1327 703 1327 559 1327 c 2,28,-1
 346 1327 l 1,20,-1
EndSplineSet
EndChar

StartChar: S
Encoding: 83 83 51
Width: 1233
Flags: W
LayerCount: 2
Back
Fore
SplineSet
1012 1442 m 1,0,-1
 1012 1237 l 1,1,2
 920 1296 920 1296 827.5 1326 c 128,-1,3
 735 1356 735 1356 641 1356 c 0,4,5
 498 1356 498 1356 415 1289.5 c 128,-1,6
 332 1223 332 1223 332 1110 c 0,7,8
 332 1011 332 1011 386.5 959 c 128,-1,9
 441 907 441 907 590 872 c 2,10,-1
 696 848 l 2,11,12
 906 799 906 799 1002 694 c 128,-1,13
 1098 589 1098 589 1098 408 c 0,14,15
 1098 195 1098 195 966 83 c 128,-1,16
 834 -29 834 -29 582 -29 c 0,17,18
 477 -29 477 -29 371 -6.5 c 128,-1,19
 265 16 265 16 158 61 c 1,20,-1
 158 276 l 1,21,22
 273 203 273 203 375.5 169 c 128,-1,23
 478 135 478 135 582 135 c 0,24,25
 735 135 735 135 820 203.5 c 128,-1,26
 905 272 905 272 905 395 c 0,27,28
 905 507 905 507 846.5 566 c 128,-1,29
 788 625 788 625 643 657 c 2,30,-1
 535 682 l 2,31,32
 327 729 327 729 233 824 c 128,-1,33
 139 919 139 919 139 1079 c 0,34,35
 139 1279 139 1279 273.5 1399.5 c 128,-1,36
 408 1520 408 1520 631 1520 c 0,37,38
 717 1520 717 1520 812 1500.5 c 128,-1,39
 907 1481 907 1481 1012 1442 c 1,0,-1
EndSplineSet
EndChar

StartChar: T
Encoding: 84 84 52
Width: 1233
Flags: W
LayerCount: 2
Back
Fore
SplineSet
47 1493 m 1,0,-1
 1186 1493 l 1,1,-1
 1186 1323 l 1,2,-1
 719 1323 l 1,3,-1
 719 0 l 1,4,-1
 516 0 l 1,5,-1
 516 1323 l 1,6,-1
 47 1323 l 1,7,-1
 47 1493 l 1,0,-1
EndSplineSet
EndChar

StartChar: U
Encoding: 85 85 53
Width: 1233
Flags: W
LayerCount: 2
Back
Fore
SplineSet
147 573 m 2,0,-1
 147 1493 l 1,1,-1
 350 1493 l 1,2,-1
 350 481 l 2,3,4
 350 372 350 372 356 325.5 c 128,-1,5
 362 279 362 279 377 254 c 0,6,7
 409 195 409 195 469.5 165 c 128,-1,8
 530 135 530 135 616 135 c 0,9,10
 703 135 703 135 763 165 c 128,-1,11
 823 195 823 195 856 254 c 0,12,13
 871 279 871 279 877 325 c 128,-1,14
 883 371 883 371 883 479 c 2,15,-1
 883 1493 l 1,16,-1
 1085 1493 l 1,17,-1
 1085 573 l 2,18,19
 1085 344 1085 344 1056.5 247.5 c 128,-1,20
 1028 151 1028 151 958 88 c 0,21,22
 892 29 892 29 807 0 c 128,-1,23
 722 -29 722 -29 616 -29 c 0,24,25
 511 -29 511 -29 426 0 c 128,-1,26
 341 29 341 29 274 88 c 0,27,28
 205 150 205 150 176 248.5 c 128,-1,29
 147 347 147 347 147 573 c 2,0,-1
EndSplineSet
EndChar

StartChar: V
Encoding: 86 86 54
Width: 1233
Flags: W
LayerCount: 2
Back
Fore
SplineSet
616 170 m 1,0,-1
 967 1493 l 1,1,-1
 1176 1493 l 1,2,-1
 739 0 l 1,3,-1
 494 0 l 1,4,-1
 57 1493 l 1,5,-1
 266 1493 l 1,6,-1
 616 170 l 1,0,-1
EndSplineSet
EndChar

StartChar: W
Encoding: 87 87 55
Width: 1233
Flags: W
LayerCount: 2
Back
Fore
SplineSet
0 1493 m 1,0,-1
 197 1493 l 1,1,-1
 340 281 l 1,2,-1
 510 1083 l 1,3,-1
 721 1083 l 1,4,-1
 893 279 l 1,5,-1
 1036 1493 l 1,6,-1
 1233 1493 l 1,7,-1
 1010 0 l 1,8,-1
 819 0 l 1,9,-1
 616 887 l 1,10,-1
 414 0 l 1,11,-1
 223 0 l 1,12,-1
 0 1493 l 1,0,-1
EndSplineSet
EndChar

StartChar: X
Encoding: 88 88 56
Width: 1233
Flags: W
LayerCount: 2
Back
Fore
SplineSet
86 1493 m 1,0,-1
 303 1493 l 1,1,-1
 631 930 l 1,2,-1
 965 1493 l 1,3,-1
 1182 1493 l 1,4,-1
 735 791 l 1,5,-1
 1214 0 l 1,6,-1
 997 0 l 1,7,-1
 631 643 l 1,8,-1
 236 0 l 1,9,-1
 18 0 l 1,10,-1
 518 791 l 1,11,-1
 86 1493 l 1,0,-1
EndSplineSet
EndChar

StartChar: Y
Encoding: 89 89 57
Width: 1233
Flags: W
LayerCount: 2
Back
Fore
SplineSet
37 1493 m 1,0,-1
 252 1493 l 1,1,-1
 616 834 l 1,2,-1
 979 1493 l 1,3,-1
 1196 1493 l 1,4,-1
 717 670 l 1,5,-1
 717 0 l 1,6,-1
 514 0 l 1,7,-1
 514 670 l 1,8,-1
 37 1493 l 1,0,-1
EndSplineSet
EndChar

StartChar: Z
Encoding: 90 90 58
Width: 1233
Flags: W
LayerCount: 2
Back
Fore
SplineSet
178 1493 m 1,0,-1
 1147 1493 l 1,1,-1
 1147 1339 l 1,2,-1
 367 170 l 1,3,-1
 1169 170 l 1,4,-1
 1169 0 l 1,5,-1
 156 0 l 1,6,-1
 156 154 l 1,7,-1
 915 1323 l 1,8,-1
 178 1323 l 1,9,-1
 178 1493 l 1,0,-1
EndSplineSet
EndChar

StartChar: bracketleft
Encoding: 91 91 59
Width: 1233
Flags: W
LayerCount: 2
Back
Fore
SplineSet
563 1656 m 1,0,-1
 987 1656 l 1,1,-1
 987 1513 l 1,2,-1
 747 1513 l 1,3,-1
 747 -27 l 1,4,-1
 987 -27 l 1,5,-1
 987 -170 l 1,6,-1
 563 -170 l 1,7,-1
 563 1656 l 1,0,-1
EndSplineSet
EndChar

StartChar: backslash
Encoding: 92 92 60
Width: 1233
Flags: W
LayerCount: 2
Back
Fore
SplineSet
293 1493 m 1,0,-1
 1079 -190 l 1,1,-1
 889 -190 l 1,2,-1
 102 1493 l 1,3,-1
 293 1493 l 1,0,-1
EndSplineSet
EndChar

StartChar: bracketright
Encoding: 93 93 61
Width: 1233
Flags: W
LayerCount: 2
Back
Fore
SplineSet
720 1656 m 1,0,-1
 720 -170 l 1,1,-1
 296 -170 l 1,2,-1
 296 -27 l 1,3,-1
 536 -27 l 1,4,-1
 536 1513 l 1,5,-1
 296 1513 l 1,6,-1
 296 1656 l 1,7,-1
 720 1656 l 1,0,-1
EndSplineSet
EndChar

StartChar: asciicircum
Encoding: 94 94 62
Width: 1233
Flags: W
LayerCount: 2
Back
Fore
SplineSet
705 1488 m 1,0,-1
 1196 892 l 1,1,-1
 983 893 l 1,2,-1
 616 1286 l 1,3,-1
 250 893 l 1,4,-1
 36 892 l 1,5,-1
 528 1488 l 1,6,-1
 705 1488 l 1,0,-1
EndSplineSet
EndChar

StartChar: underscore
Encoding: 95 95 63
Width: 1233
Flags: W
LayerCount: 2
Back
Fore
SplineSet
1224 -190 m 1,0,-1
 1224 -360 l 1,1,-1
 0 -360 l 1,2,-1
 0 -190 l 1,3,-1
 1224 -190 l 1,0,-1
EndSplineSet
EndChar

StartChar: grave
Encoding: 96 96 64
Width: 1233
Flags: W
LayerCount: 2
Back
Fore
SplineSet
477 1638 m 1,0,-1
 758 1262 l 1,1,-1
 604 1262 l 1,2,-1
 279 1638 l 1,3,-1
 477 1638 l 1,0,-1
EndSplineSet
EndChar

StartChar: a
Encoding: 97 97 65
Width: 1233
Flags: W
LayerCount: 2
Back
Fore
SplineSet
702 563 m 1,0,-1
 641 563 l 2,1,2
 480 563 480 563 398.5 506.5 c 128,-1,3
 317 450 317 450 317 338 c 0,4,5
 317 237 317 237 378 181 c 128,-1,6
 439 125 439 125 547 125 c 0,7,8
 699 125 699 125 786 230.5 c 128,-1,9
 873 336 873 336 874 522 c 2,10,-1
 874 563 l 1,11,-1
 702 563 l 1,0,-1
1059 639 m 2,12,-1
 1059 0 l 1,13,-1
 874 0 l 1,14,-1
 874 166 l 1,15,16
 815 66 815 66 725.5 18.5 c 128,-1,17
 636 -29 636 -29 508 -29 c 0,18,19
 337 -29 337 -29 235 67.5 c 128,-1,20
 133 164 133 164 133 326 c 0,21,22
 133 513 133 513 258.5 610 c 128,-1,23
 384 707 384 707 627 707 c 2,24,-1
 874 707 l 1,25,-1
 874 736 l 2,26,27
 873 870 873 870 806 930.5 c 128,-1,28
 739 991 739 991 592 991 c 0,29,30
 498 991 498 991 402 964 c 128,-1,31
 306 937 306 937 215 885 c 1,32,-1
 215 1069 l 1,33,34
 317 1108 317 1108 410.5 1127.5 c 128,-1,35
 504 1147 504 1147 592 1147 c 0,36,37
 731 1147 731 1147 829.5 1106 c 128,-1,38
 928 1065 928 1065 989 983 c 0,39,40
 1027 933 1027 933 1043 859.5 c 128,-1,41
 1059 786 1059 786 1059 639 c 2,12,-1
EndSplineSet
EndChar

StartChar: b
Encoding: 98 98 66
Width: 1233
Flags: W
LayerCount: 2
Back
Fore
SplineSet
918 559 m 256,0,1
 918 773 918 773 850 882 c 128,-1,2
 782 991 782 991 649 991 c 0,3,4
 515 991 515 991 446 881.5 c 128,-1,5
 377 772 377 772 377 559 c 0,6,7
 377 347 377 347 446 237 c 128,-1,8
 515 127 515 127 649 127 c 0,9,10
 782 127 782 127 850 236 c 128,-1,11
 918 345 918 345 918 559 c 256,0,1
377 977 m 1,12,13
 421 1059 421 1059 498.5 1103 c 128,-1,14
 576 1147 576 1147 678 1147 c 0,15,16
 880 1147 880 1147 996 991.5 c 128,-1,17
 1112 836 1112 836 1112 563 c 0,18,19
 1112 286 1112 286 995.5 128.5 c 128,-1,20
 879 -29 879 -29 676 -29 c 0,21,22
 576 -29 576 -29 499.5 14.5 c 128,-1,23
 423 58 423 58 377 141 c 1,24,-1
 377 0 l 1,25,-1
 193 0 l 1,26,-1
 193 1556 l 1,27,-1
 377 1556 l 1,28,-1
 377 977 l 1,12,13
EndSplineSet
EndChar

StartChar: c
Encoding: 99 99 67
Width: 1233
Flags: W
LayerCount: 2
Back
Fore
SplineSet
1061 57 m 1,0,1
 987 14 987 14 908.5 -7.5 c 128,-1,2
 830 -29 830 -29 748 -29 c 0,3,4
 488 -29 488 -29 341.5 127 c 128,-1,5
 195 283 195 283 195 559 c 256,6,7
 195 835 195 835 341.5 991 c 128,-1,8
 488 1147 488 1147 748 1147 c 0,9,10
 829 1147 829 1147 906 1126 c 128,-1,11
 983 1105 983 1105 1061 1061 c 1,12,-1
 1061 868 l 1,13,14
 988 933 988 933 914.5 962 c 128,-1,15
 841 991 841 991 748 991 c 0,16,17
 575 991 575 991 482 879 c 128,-1,18
 389 767 389 767 389 559 c 0,19,20
 389 352 389 352 482.5 239.5 c 128,-1,21
 576 127 576 127 748 127 c 0,22,23
 844 127 844 127 920 156.5 c 128,-1,24
 996 186 996 186 1061 248 c 1,25,-1
 1061 57 l 1,0,1
EndSplineSet
EndChar

StartChar: d
Encoding: 100 100 68
Width: 1233
Flags: W
LayerCount: 2
Back
Fore
SplineSet
858 977 m 1,0,-1
 858 1556 l 1,1,-1
 1042 1556 l 1,2,-1
 1042 0 l 1,3,-1
 858 0 l 1,4,-1
 858 141 l 1,5,6
 812 58 812 58 735.5 14.5 c 128,-1,7
 659 -29 659 -29 559 -29 c 0,8,9
 356 -29 356 -29 239.5 128.5 c 128,-1,10
 123 286 123 286 123 563 c 0,11,12
 123 836 123 836 240 991.5 c 128,-1,13
 357 1147 357 1147 559 1147 c 0,14,15
 660 1147 660 1147 737 1103.5 c 128,-1,16
 814 1060 814 1060 858 977 c 1,0,-1
317 559 m 256,17,18
 317 345 317 345 385 236 c 128,-1,19
 453 127 453 127 586 127 c 256,20,21
 719 127 719 127 788.5 237 c 128,-1,22
 858 347 858 347 858 559 c 0,23,24
 858 772 858 772 788.5 881.5 c 128,-1,25
 719 991 719 991 586 991 c 256,26,27
 453 991 453 991 385 882 c 128,-1,28
 317 773 317 773 317 559 c 256,17,18
EndSplineSet
EndChar

StartChar: e
Encoding: 101 101 69
Width: 1233
Flags: W
LayerCount: 2
Back
Fore
SplineSet
1120 652 m 1,0,-1
 1120 562 l 1,1,-1
 323 562 l 1,2,-1
 323 556 l 1,3,4
 315 327 315 327 410.5 227 c 128,-1,5
 506 127 506 127 680 127 c 0,6,7
 768 127 768 127 864 155 c 128,-1,8
 960 183 960 183 1069 240 c 1,9,-1
 1069 57 l 1,10,11
 964 14 964 14 866.5 -7.5 c 128,-1,12
 769 -29 769 -29 678 -29 c 0,13,14
 417 -29 417 -29 270 127.5 c 128,-1,15
 123 284 123 284 123 559 c 0,16,17
 123 827 123 827 267 987 c 128,-1,18
 411 1147 411 1147 651 1147 c 0,19,20
 865 1147 865 1147 988.5 1002 c 128,-1,21
 1112 857 1112 857 1120 652 c 1,0,-1
936 706 m 1,22,23
 924 822 924 822 851.5 906.5 c 128,-1,24
 779 991 779 991 643 991 c 0,25,26
 510 991 510 991 424 903 c 128,-1,27
 338 815 338 815 330 705 c 1,28,-1
 936 706 l 1,22,23
EndSplineSet
EndChar

StartChar: f
Encoding: 102 102 70
Width: 1233
Flags: W
LayerCount: 2
Back
Fore
SplineSet
1063 1556 m 1,0,-1
 1063 1403 l 1,1,-1
 854 1403 l 2,2,3
 755 1403 755 1403 716.5 1362.5 c 128,-1,4
 678 1322 678 1322 678 1219 c 2,5,-1
 678 1120 l 1,6,-1
 1063 1120 l 1,7,-1
 1063 977 l 1,8,-1
 678 977 l 1,9,-1
 678 0 l 1,10,-1
 494 0 l 1,11,-1
 494 977 l 1,12,-1
 195 977 l 1,13,-1
 195 1120 l 1,14,-1
 494 1120 l 1,15,-1
 494 1198 l 2,16,17
 494 1382 494 1382 578.5 1469 c 128,-1,18
 663 1556 663 1556 842 1556 c 2,19,-1
 1063 1556 l 1,0,-1
EndSplineSet
EndChar

StartChar: g
Encoding: 103 103 71
Width: 1233
Flags: W
LayerCount: 2
Back
Fore
SplineSet
858 569 m 0,0,1
 858 776 858 776 790.5 883.5 c 128,-1,2
 723 991 723 991 594 991 c 0,3,4
 459 991 459 991 388 883.5 c 128,-1,5
 317 776 317 776 317 569 c 256,6,7
 317 362 317 362 388.5 253.5 c 128,-1,8
 460 145 460 145 596 145 c 0,9,10
 723 145 723 145 790.5 254 c 128,-1,11
 858 363 858 363 858 569 c 0,0,1
1042 72 m 2,12,13
 1042 -180 1042 -180 923 -310 c 128,-1,14
 804 -440 804 -440 573 -440 c 0,15,16
 497 -440 497 -440 414 -426 c 128,-1,17
 331 -412 331 -412 248 -385 c 1,18,-1
 248 -203 l 1,19,20
 346 -249 346 -249 426 -271 c 128,-1,21
 506 -293 506 -293 573 -293 c 0,22,23
 722 -293 722 -293 790 -212 c 128,-1,24
 858 -131 858 -131 858 45 c 2,25,-1
 858 53 l 1,26,-1
 858 178 l 1,27,28
 814 84 814 84 738 38 c 128,-1,29
 662 -8 662 -8 553 -8 c 0,30,31
 357 -8 357 -8 240 149 c 128,-1,32
 123 306 123 306 123 569 c 0,33,34
 123 833 123 833 240 990 c 128,-1,35
 357 1147 357 1147 553 1147 c 0,36,37
 661 1147 661 1147 736 1104 c 128,-1,38
 811 1061 811 1061 858 971 c 1,39,-1
 858 1116 l 1,40,-1
 1042 1116 l 1,41,-1
 1042 72 l 2,12,13
EndSplineSet
EndChar

StartChar: h
Encoding: 104 104 72
Width: 1233
Flags: W
LayerCount: 2
Back
Fore
SplineSet
1051 694 m 2,0,-1
 1051 0 l 1,1,-1
 866 0 l 1,2,-1
 866 694 l 2,3,4
 866 845 866 845 813 916 c 128,-1,5
 760 987 760 987 647 987 c 0,6,7
 518 987 518 987 448.5 895.5 c 128,-1,8
 379 804 379 804 379 633 c 2,9,-1
 379 0 l 1,10,-1
 195 0 l 1,11,-1
 195 1556 l 1,12,-1
 379 1556 l 1,13,-1
 379 952 l 1,14,15
 428 1048 428 1048 512 1097.5 c 128,-1,16
 596 1147 596 1147 711 1147 c 0,17,18
 882 1147 882 1147 966.5 1034.5 c 128,-1,19
 1051 922 1051 922 1051 694 c 2,0,-1
EndSplineSet
EndChar

StartChar: i
Encoding: 105 105 73
Width: 1233
Flags: W
LayerCount: 2
Back
Fore
SplineSet
316 1116 m 1,0,-1
 787 1116 l 1,1,-1
 787 143 l 1,2,-1
 1152 143 l 1,3,-1
 1152 0 l 1,4,-1
 238 0 l 1,5,-1
 238 143 l 1,6,-1
 603 143 l 1,7,-1
 603 973 l 1,8,-1
 316 973 l 1,9,-1
 316 1116 l 1,0,-1
603 1551 m 1,10,-1
 787 1551 l 1,11,-1
 787 1319 l 1,12,-1
 603 1319 l 1,13,-1
 603 1551 l 1,10,-1
EndSplineSet
EndChar

StartChar: j
Encoding: 106 106 74
Width: 1233
Flags: W
LayerCount: 2
Back
Fore
SplineSet
600 -20 m 2,0,-1
 600 977 l 1,1,-1
 283 977 l 1,2,-1
 283 1120 l 1,3,-1
 784 1120 l 1,4,-1
 784 -20 l 2,5,6
 784 -215 784 -215 694.5 -320.5 c 128,-1,7
 605 -426 605 -426 440 -426 c 2,8,-1
 186 -426 l 1,9,-1
 186 -270 l 1,10,-1
 420 -270 l 2,11,12
 510 -270 510 -270 555 -207.5 c 128,-1,13
 600 -145 600 -145 600 -20 c 2,0,-1
600 1556 m 1,14,-1
 784 1556 l 1,15,-1
 784 1323 l 1,16,-1
 600 1323 l 1,17,-1
 600 1556 l 1,14,-1
EndSplineSet
EndChar

StartChar: k
Encoding: 107 107 75
Width: 1233
Flags: W
LayerCount: 2
Back
Fore
SplineSet
236 1556 m 1,0,-1
 426 1556 l 1,1,-1
 426 655 l 1,2,-1
 909 1120 l 1,3,-1
 1133 1120 l 1,4,-1
 692 698 l 1,5,-1
 1202 0 l 1,6,-1
 977 0 l 1,7,-1
 563 578 l 1,8,-1
 426 449 l 1,9,-1
 426 0 l 1,10,-1
 236 0 l 1,11,-1
 236 1556 l 1,0,-1
EndSplineSet
EndChar

StartChar: l
Encoding: 108 108 76
Width: 1233
Flags: W
LayerCount: 2
Back
Fore
SplineSet
719 405 m 2,0,1
 719 281 719 281 764.5 218 c 128,-1,2
 810 155 810 155 899 155 c 2,3,-1
 1114 155 l 1,4,-1
 1114 0 l 1,5,-1
 881 0 l 2,6,7
 716 0 716 0 625.5 105.5 c 128,-1,8
 535 211 535 211 535 405 c 2,9,-1
 535 1418 l 1,10,-1
 240 1418 l 1,11,-1
 240 1562 l 1,12,-1
 719 1562 l 1,13,-1
 719 405 l 2,0,1
EndSplineSet
EndChar

StartChar: m
Encoding: 109 109 77
Width: 1233
Flags: W
LayerCount: 2
Back
Fore
SplineSet
676 1006 m 1,0,1
 710 1078 710 1078 762.5 1112.5 c 128,-1,2
 815 1147 815 1147 889 1147 c 0,3,4
 1024 1147 1024 1147 1079.5 1042.5 c 128,-1,5
 1135 938 1135 938 1135 649 c 2,6,-1
 1135 0 l 1,7,-1
 967 0 l 1,8,-1
 967 641 l 2,9,10
 967 878 967 878 940.5 935.5 c 128,-1,11
 914 993 914 993 844 993 c 0,12,13
 764 993 764 993 734.5 931.5 c 128,-1,14
 705 870 705 870 705 641 c 2,15,-1
 705 0 l 1,16,-1
 537 0 l 1,17,-1
 537 641 l 2,18,19
 537 881 537 881 508.5 937 c 128,-1,20
 480 993 480 993 406 993 c 0,21,22
 333 993 333 993 304.5 931.5 c 128,-1,23
 276 870 276 870 276 641 c 2,24,-1
 276 0 l 1,25,-1
 109 0 l 1,26,-1
 109 1120 l 1,27,-1
 276 1120 l 1,28,-1
 276 1024 l 1,29,30
 309 1084 309 1084 358.5 1115.5 c 128,-1,31
 408 1147 408 1147 471 1147 c 0,32,33
 547 1147 547 1147 597.5 1112 c 128,-1,34
 648 1077 648 1077 676 1006 c 1,0,1
EndSplineSet
EndChar

StartChar: n
Encoding: 110 110 78
Width: 1233
Flags: W
LayerCount: 2
Back
Fore
SplineSet
1051 694 m 2,0,-1
 1051 0 l 1,1,-1
 866 0 l 1,2,-1
 866 694 l 2,3,4
 866 845 866 845 813 916 c 128,-1,5
 760 987 760 987 647 987 c 0,6,7
 518 987 518 987 448.5 895.5 c 128,-1,8
 379 804 379 804 379 633 c 2,9,-1
 379 0 l 1,10,-1
 195 0 l 1,11,-1
 195 1120 l 1,12,-1
 379 1120 l 1,13,-1
 379 952 l 1,14,15
 428 1048 428 1048 512 1097.5 c 128,-1,16
 596 1147 596 1147 711 1147 c 0,17,18
 882 1147 882 1147 966.5 1034.5 c 128,-1,19
 1051 922 1051 922 1051 694 c 2,0,-1
EndSplineSet
EndChar

StartChar: o
Encoding: 111 111 79
Width: 1233
Flags: W
LayerCount: 2
Back
Fore
SplineSet
616 991 m 0,0,1
 476 991 476 991 404 882 c 128,-1,2
 332 773 332 773 332 559 c 0,3,4
 332 346 332 346 404 236.5 c 128,-1,5
 476 127 476 127 616 127 c 0,6,7
 757 127 757 127 829 236.5 c 128,-1,8
 901 346 901 346 901 559 c 0,9,10
 901 773 901 773 829 882 c 128,-1,11
 757 991 757 991 616 991 c 0,0,1
616 1147 m 256,12,13
 849 1147 849 1147 972.5 996 c 128,-1,14
 1096 845 1096 845 1096 559 c 0,15,16
 1096 272 1096 272 973 121.5 c 128,-1,17
 850 -29 850 -29 616 -29 c 0,18,19
 383 -29 383 -29 260 121.5 c 128,-1,20
 137 272 137 272 137 559 c 0,21,22
 137 845 137 845 260 996 c 128,-1,23
 383 1147 383 1147 616 1147 c 256,12,13
EndSplineSet
EndChar

StartChar: p
Encoding: 112 112 80
Width: 1233
Flags: W
LayerCount: 2
Back
Fore
SplineSet
375 141 m 1,0,-1
 375 -426 l 1,1,-1
 190 -426 l 1,2,-1
 190 1120 l 1,3,-1
 375 1120 l 1,4,-1
 375 977 l 1,5,6
 421 1060 421 1060 497.5 1103.5 c 128,-1,7
 574 1147 574 1147 674 1147 c 0,8,9
 877 1147 877 1147 992.5 990 c 128,-1,10
 1108 833 1108 833 1108 555 c 0,11,12
 1108 282 1108 282 992 126.5 c 128,-1,13
 876 -29 876 -29 674 -29 c 0,14,15
 572 -29 572 -29 495.5 14.5 c 128,-1,16
 419 58 419 58 375 141 c 1,0,-1
915 559 m 256,17,18
 915 773 915 773 847.5 882 c 128,-1,19
 780 991 780 991 647 991 c 0,20,21
 513 991 513 991 444 881.5 c 128,-1,22
 375 772 375 772 375 559 c 0,23,24
 375 347 375 347 444 237 c 128,-1,25
 513 127 513 127 647 127 c 0,26,27
 780 127 780 127 847.5 236 c 128,-1,28
 915 345 915 345 915 559 c 256,17,18
EndSplineSet
EndChar

StartChar: q
Encoding: 113 113 81
Width: 1233
Flags: W
LayerCount: 2
Back
Fore
SplineSet
332 555 m 256,0,1
 332 341 332 341 399.5 232 c 128,-1,2
 467 123 467 123 600 123 c 256,3,4
 733 123 733 123 801.5 232.5 c 128,-1,5
 870 342 870 342 870 555 c 256,6,7
 870 768 870 768 801.5 877.5 c 128,-1,8
 733 987 733 987 600 987 c 256,9,10
 467 987 467 987 399.5 878 c 128,-1,11
 332 769 332 769 332 555 c 256,0,1
870 139 m 1,12,13
 825 56 825 56 748.5 11.5 c 128,-1,14
 672 -33 672 -33 571 -33 c 0,15,16
 370 -33 370 -33 253.5 122.5 c 128,-1,17
 137 278 137 278 137 551 c 0,18,19
 137 829 137 829 253 986 c 128,-1,20
 369 1143 369 1143 571 1143 c 0,21,22
 671 1143 671 1143 747.5 1099.5 c 128,-1,23
 824 1056 824 1056 870 973 c 1,24,-1
 870 1116 l 1,25,-1
 1055 1116 l 1,26,-1
 1055 -430 l 1,27,-1
 870 -430 l 1,28,-1
 870 139 l 1,12,13
EndSplineSet
EndChar

StartChar: r
Encoding: 114 114 82
Width: 1233
Flags: W
LayerCount: 2
Back
Fore
SplineSet
1155 889 m 1,0,1
 1096 935 1096 935 1035 956 c 128,-1,2
 974 977 974 977 901 977 c 0,3,4
 729 977 729 977 638 869 c 128,-1,5
 547 761 547 761 547 557 c 2,6,-1
 547 0 l 1,7,-1
 362 0 l 1,8,-1
 362 1120 l 1,9,-1
 547 1120 l 1,10,-1
 547 901 l 1,11,12
 593 1020 593 1020 688.5 1083.5 c 128,-1,13
 784 1147 784 1147 915 1147 c 0,14,15
 983 1147 983 1147 1042 1130 c 128,-1,16
 1101 1113 1101 1113 1155 1077 c 1,17,-1
 1155 889 l 1,0,1
EndSplineSet
EndChar

StartChar: s
Encoding: 115 115 83
Width: 1233
Flags: W
LayerCount: 2
Back
Fore
SplineSet
973 1081 m 1,0,-1
 973 901 l 1,1,2
 894 947 894 947 814 970 c 128,-1,3
 734 993 734 993 651 993 c 0,4,5
 526 993 526 993 464.5 952.5 c 128,-1,6
 403 912 403 912 403 829 c 0,7,8
 403 754 403 754 449 717 c 128,-1,9
 495 680 495 680 678 645 c 2,10,-1
 752 631 l 2,11,12
 889 605 889 605 959.5 527 c 128,-1,13
 1030 449 1030 449 1030 324 c 0,14,15
 1030 158 1030 158 912 64.5 c 128,-1,16
 794 -29 794 -29 584 -29 c 0,17,18
 501 -29 501 -29 410 -11.5 c 128,-1,19
 319 6 319 6 213 41 c 1,20,-1
 213 231 l 1,21,22
 316 178 316 178 410 151.5 c 128,-1,23
 504 125 504 125 588 125 c 0,24,25
 710 125 710 125 777 174.5 c 128,-1,26
 844 224 844 224 844 313 c 0,27,28
 844 441 844 441 599 490 c 1,29,-1
 591 492 l 1,30,-1
 522 506 l 2,31,32
 363 537 363 537 290 610.5 c 128,-1,33
 217 684 217 684 217 811 c 0,34,35
 217 972 217 972 326 1059.5 c 128,-1,36
 435 1147 435 1147 637 1147 c 0,37,38
 727 1147 727 1147 810 1130.5 c 128,-1,39
 893 1114 893 1114 973 1081 c 1,0,-1
EndSplineSet
EndChar

StartChar: t
Encoding: 116 116 84
Width: 1233
Flags: W
LayerCount: 2
Back
Fore
SplineSet
614 1438 m 1,0,-1
 614 1120 l 1,1,-1
 1032 1120 l 1,2,-1
 1032 977 l 1,3,-1
 614 977 l 1,4,-1
 614 369 l 2,5,6
 614 245 614 245 661 196 c 128,-1,7
 708 147 708 147 825 147 c 2,8,-1
 1032 147 l 1,9,-1
 1032 0 l 1,10,-1
 807 0 l 2,11,12
 600 0 600 0 515 83 c 128,-1,13
 430 166 430 166 430 369 c 2,14,-1
 430 977 l 1,15,-1
 131 977 l 1,16,-1
 131 1120 l 1,17,-1
 430 1120 l 1,18,-1
 430 1438 l 1,19,-1
 614 1438 l 1,0,-1
EndSplineSet
EndChar

StartChar: u
Encoding: 117 117 85
Width: 1233
Flags: W
LayerCount: 2
Back
Fore
SplineSet
195 424 m 2,0,-1
 195 1118 l 1,1,-1
 379 1118 l 1,2,-1
 379 424 l 2,3,4
 379 273 379 273 432.5 202 c 128,-1,5
 486 131 486 131 598 131 c 0,6,7
 728 131 728 131 797 222.5 c 128,-1,8
 866 314 866 314 866 485 c 2,9,-1
 866 1118 l 1,10,-1
 1051 1118 l 1,11,-1
 1051 0 l 1,12,-1
 866 0 l 1,13,-1
 866 168 l 1,14,15
 817 71 817 71 732.5 21 c 128,-1,16
 648 -29 648 -29 535 -29 c 0,17,18
 363 -29 363 -29 279 83.5 c 128,-1,19
 195 196 195 196 195 424 c 2,0,-1
EndSplineSet
EndChar

StartChar: v
Encoding: 118 118 86
Width: 1233
Flags: W
LayerCount: 2
Back
Fore
SplineSet
100 1120 m 1,0,-1
 291 1120 l 1,1,-1
 616 180 l 1,2,-1
 942 1120 l 1,3,-1
 1133 1120 l 1,4,-1
 735 0 l 1,5,-1
 498 0 l 1,6,-1
 100 1120 l 1,0,-1
EndSplineSet
EndChar

StartChar: w
Encoding: 119 119 87
Width: 1233
Flags: W
LayerCount: 2
Back
Fore
SplineSet
0 1120 m 1,0,-1
 182 1120 l 1,1,-1
 377 215 l 1,2,-1
 537 793 l 1,3,-1
 694 793 l 1,4,-1
 856 215 l 1,5,-1
 1051 1120 l 1,6,-1
 1233 1120 l 1,7,-1
 971 0 l 1,8,-1
 795 0 l 1,9,-1
 616 614 l 1,10,-1
 438 0 l 1,11,-1
 262 0 l 1,12,-1
 0 1120 l 1,0,-1
EndSplineSet
EndChar

StartChar: x
Encoding: 120 120 88
Width: 1233
Flags: W
LayerCount: 2
Back
Fore
SplineSet
1118 1120 m 1,0,-1
 717 584 l 1,1,-1
 1157 0 l 1,2,-1
 944 0 l 1,3,-1
 616 449 l 1,4,-1
 289 0 l 1,5,-1
 76 0 l 1,6,-1
 516 584 l 1,7,-1
 115 1120 l 1,8,-1
 319 1120 l 1,9,-1
 616 715 l 1,10,-1
 911 1120 l 1,11,-1
 1118 1120 l 1,0,-1
EndSplineSet
EndChar

StartChar: y
Encoding: 121 121 89
Width: 1233
Flags: W
LayerCount: 2
Back
Fore
SplineSet
858 360 m 2,0,1
 812 243 812 243 741 52 c 0,2,3
 642 -212 642 -212 608 -270 c 0,4,5
 562 -348 562 -348 493 -387 c 128,-1,6
 424 -426 424 -426 332 -426 c 2,7,-1
 184 -426 l 1,8,-1
 184 -272 l 1,9,-1
 293 -272 l 2,10,11
 374 -272 374 -272 420 -225 c 128,-1,12
 466 -178 466 -178 537 18 c 1,13,-1
 104 1120 l 1,14,-1
 299 1120 l 1,15,-1
 631 244 l 1,16,-1
 958 1120 l 1,17,-1
 1153 1120 l 1,18,-1
 858 360 l 2,0,1
EndSplineSet
EndChar

StartChar: z
Encoding: 122 122 90
Width: 1233
Flags: W
LayerCount: 2
Back
Fore
SplineSet
227 1122 m 1,0,-1
 1040 1122 l 1,1,-1
 1040 954 l 1,2,-1
 397 150 l 1,3,-1
 1040 150 l 1,4,-1
 1040 0 l 1,5,-1
 203 0 l 1,6,-1
 203 170 l 1,7,-1
 846 975 l 1,8,-1
 227 975 l 1,9,-1
 227 1122 l 1,0,-1
EndSplineSet
EndChar

StartChar: braceleft
Encoding: 123 123 91
Width: 1233
Flags: W
LayerCount: 2
Back
Fore
SplineSet
1032 -51 m 1,0,-1
 1032 -195 l 1,1,-1
 968 -195 l 2,2,3
 719 -195 719 -195 634.5 -121 c 128,-1,4
 550 -47 550 -47 550 174 c 2,5,-1
 550 374 l 2,6,7
 550 483 550 483 488.5 562 c 128,-1,8
 427 641 427 641 298 641 c 2,9,-1
 176 641 l 1,10,-1
 176 784 l 1,11,-1
 298 784 l 2,12,13
 439 784 439 784 494.5 851 c 128,-1,14
 550 918 550 918 550 1048 c 2,15,-1
 550 1308 l 2,16,17
 550 1529 550 1529 634.5 1602.5 c 128,-1,18
 719 1676 719 1676 968 1676 c 2,19,-1
 1032 1676 l 1,20,-1
 1032 1533 l 1,21,-1
 962 1533 l 2,22,23
 822 1533 822 1533 779.5 1489.5 c 128,-1,24
 737 1446 737 1446 737 1304 c 2,25,-1
 737 1036 l 2,26,27
 737 860 737 860 668 799.5 c 128,-1,28
 599 739 599 739 399 712 c 1,29,30
 593 689 593 689 665 623.5 c 128,-1,31
 737 558 737 558 737 387 c 2,32,-1
 737 178 l 2,33,34
 737 35 737 35 779.5 -8 c 128,-1,35
 822 -51 822 -51 962 -51 c 2,36,-1
 1032 -51 l 1,0,-1
EndSplineSet
EndChar

StartChar: bar
Encoding: 124 124 92
Width: 1233
Flags: W
LayerCount: 2
Back
Fore
SplineSet
742 1565 m 1,0,-1
 742 -483 l 1,1,-1
 570 -483 l 1,2,-1
 570 1565 l 1,3,-1
 742 1565 l 1,0,-1
EndSplineSet
EndChar

StartChar: braceright
Encoding: 125 125 93
Width: 1233
Flags: W
LayerCount: 2
Back
Fore
SplineSet
289 -51 m 2,0,1
 429 -51 429 -51 471.5 -8 c 128,-1,2
 514 35 514 35 514 178 c 2,3,-1
 514 387 l 2,4,5
 514 558 514 558 586 623.5 c 128,-1,6
 658 689 658 689 852 712 c 1,7,8
 652 739 652 739 583 799.5 c 128,-1,9
 514 860 514 860 514 1036 c 2,10,-1
 514 1304 l 2,11,12
 514 1446 514 1446 471.5 1489.5 c 128,-1,13
 429 1533 429 1533 289 1533 c 2,14,-1
 219 1533 l 1,15,-1
 219 1676 l 1,16,-1
 283 1676 l 2,17,18
 532 1676 532 1676 616.5 1602.5 c 128,-1,19
 701 1529 701 1529 701 1308 c 2,20,-1
 701 1048 l 2,21,22
 701 918 701 918 756.5 851 c 128,-1,23
 812 784 812 784 953 784 c 2,24,-1
 1075 784 l 1,25,-1
 1075 641 l 1,26,-1
 953 641 l 2,27,28
 824 641 824 641 762.5 562 c 128,-1,29
 701 483 701 483 701 374 c 2,30,-1
 701 174 l 2,31,32
 701 -47 701 -47 616.5 -121 c 128,-1,33
 532 -195 532 -195 283 -195 c 2,34,-1
 219 -195 l 1,35,-1
 219 -51 l 1,36,-1
 289 -51 l 2,0,1
EndSplineSet
EndChar

StartChar: asciitilde
Encoding: 126 126 94
Width: 1233
Flags: W
LayerCount: 2
Back
Fore
SplineSet
1087 784 m 1,0,-1
 1217 696 l 1,1,2
 1131 500 1131 500 1048 428.5 c 128,-1,3
 965 357 965 357 877 357 c 1,4,5
 737 365 737 365 624.5 502.5 c 128,-1,6
 512 640 512 640 466 697.5 c 128,-1,7
 420 755 420 755 347 754 c 0,8,9
 270 754 270 754 230 681.5 c 128,-1,10
 190 609 190 609 146 497 c 1,11,-1
 13 573 l 1,12,13
 71 758 71 758 163 846 c 128,-1,14
 255 934 255 934 348 934 c 0,15,16
 517 936 517 936 650.5 734 c 128,-1,17
 784 532 784 532 877 532 c 0,18,19
 956 532 956 532 1006 618.5 c 128,-1,20
 1056 705 1056 705 1087 784 c 1,0,-1
EndSplineSet
EndChar

StartChar: exclamdown
Encoding: 161 161 95
Width: 1233
Flags: W
LayerCount: 2
Back
Fore
SplineSet
516 1239 m 1,0,-1
 516 1493 l 1,1,-1
 719 1493 l 1,2,-1
 719 1239 l 1,3,-1
 516 1239 l 1,0,-1
516 0 m 1,4,-1
 516 655 l 1,5,-1
 537 1012 l 1,6,-1
 698 1012 l 1,7,-1
 719 655 l 1,8,-1
 719 0 l 1,9,-1
 516 0 l 1,4,-1
EndSplineSet
EndChar

StartChar: cent
Encoding: 162 162 96
Width: 1233
Flags: W
LayerCount: 2
Back
Fore
SplineSet
1061 1077 m 1,0,-1
 1061 905 l 1,1,2
 994 945 994 945 929 967 c 128,-1,3
 864 989 864 989 821 993 c 1,4,-1
 821 123 l 1,5,6
 864 128 864 128 929.5 150.5 c 128,-1,7
 995 173 995 173 1061 213 c 1,8,-1
 1061 41 l 1,9,10
 988 10 988 10 923 -7 c 128,-1,11
 858 -24 858 -24 821 -27 c 1,12,-1
 821 -313 l 1,13,-1
 698 -313 l 1,14,-1
 698 -27 l 1,15,16
 473 -5 473 -5 343 151.5 c 128,-1,17
 213 308 213 308 213 559 c 0,18,19
 213 809 213 809 344.5 967.5 c 128,-1,20
 476 1126 476 1126 698 1145 c 1,21,-1
 698 1432 l 1,22,-1
 821 1432 l 1,23,-1
 821 1145 l 1,24,25
 858 1142 858 1142 923 1125 c 128,-1,26
 988 1108 988 1108 1061 1077 c 1,0,-1
698 127 m 1,27,-1
 698 991 l 1,28,29
 566 979 566 979 486 861 c 128,-1,30
 406 743 406 743 406 559 c 256,31,32
 406 375 406 375 486 257.5 c 128,-1,33
 566 140 566 140 698 127 c 1,27,-1
EndSplineSet
EndChar

StartChar: sterling
Encoding: 163 163 97
Width: 1233
Flags: W
LayerCount: 2
Back
Fore
SplineSet
1092 1462 m 1,0,-1
 1092 1278 l 1,1,2
 1030 1322 1030 1322 966.5 1344 c 128,-1,3
 903 1366 903 1366 836 1366 c 0,4,5
 702 1366 702 1366 638.5 1276.5 c 128,-1,6
 575 1187 575 1187 575 995 c 2,7,-1
 575 778 l 1,8,-1
 946 778 l 1,9,-1
 946 635 l 1,10,-1
 575 635 l 1,11,-1
 575 170 l 1,12,-1
 1112 170 l 1,13,-1
 1112 0 l 1,14,-1
 139 0 l 1,15,-1
 139 170 l 1,16,-1
 375 170 l 1,17,-1
 375 635 l 1,18,-1
 176 635 l 1,19,-1
 176 778 l 1,20,-1
 375 778 l 1,21,-1
 375 1016 l 2,22,23
 375 1270 375 1270 484.5 1395 c 128,-1,24
 594 1520 594 1520 817 1520 c 0,25,26
 882 1520 882 1520 950.5 1505.5 c 128,-1,27
 1019 1491 1019 1491 1092 1462 c 1,0,-1
EndSplineSet
EndChar

StartChar: currency
Encoding: 164 164 98
Width: 1233
Flags: W
LayerCount: 2
Back
Fore
SplineSet
868 643 m 0,0,1
 868 733 868 733 806 794.5 c 128,-1,2
 744 856 744 856 653 856 c 0,3,4
 563 856 563 856 500.5 794.5 c 128,-1,5
 438 733 438 733 438 643 c 0,6,7
 438 551 438 551 500.5 488.5 c 128,-1,8
 563 426 563 426 653 426 c 0,9,10
 744 426 744 426 806 489 c 128,-1,11
 868 552 868 552 868 643 c 0,0,1
844 924 m 1,12,-1
 1010 1090 l 1,13,-1
 1100 997 l 1,14,-1
 934 831 l 1,15,16
 964 782 964 782 978.5 735.5 c 128,-1,17
 993 689 993 689 993 641 c 0,18,19
 993 591 993 591 978 545.5 c 128,-1,20
 963 500 963 500 932 455 c 1,21,-1
 1100 289 l 1,22,-1
 1006 195 l 1,23,-1
 840 362 l 1,24,25
 794 331 794 331 748.5 316 c 128,-1,26
 703 301 703 301 653 301 c 0,27,28
 605 301 605 301 557 315.5 c 128,-1,29
 509 330 509 330 461 358 c 1,30,-1
 297 195 l 1,31,-1
 205 285 l 1,32,-1
 371 451 l 1,33,34
 340 502 340 502 325.5 548.5 c 128,-1,35
 311 595 311 595 311 641 c 0,36,37
 311 691 311 691 326.5 737.5 c 128,-1,38
 342 784 342 784 373 829 c 1,39,-1
 205 995 l 1,40,-1
 299 1090 l 1,41,-1
 465 922 l 1,42,43
 511 953 511 953 556.5 968 c 128,-1,44
 602 983 602 983 653 983 c 0,45,46
 699 983 699 983 746 968.5 c 128,-1,47
 793 954 793 954 844 924 c 1,12,-1
EndSplineSet
EndChar

StartChar: yen
Encoding: 165 165 99
Width: 1233
Flags: W
LayerCount: 2
Back
Fore
SplineSet
37 1493 m 1,0,-1
 252 1493 l 1,1,-1
 616 834 l 1,2,-1
 979 1493 l 1,3,-1
 1196 1493 l 1,4,-1
 866 932 l 1,5,-1
 1118 932 l 1,6,-1
 1118 821 l 1,7,-1
 803 821 l 1,8,-1
 717 670 l 1,9,-1
 717 635 l 1,10,-1
 1118 635 l 1,11,-1
 1118 524 l 1,12,-1
 717 524 l 1,13,-1
 717 0 l 1,14,-1
 514 0 l 1,15,-1
 514 524 l 1,16,-1
 115 524 l 1,17,-1
 115 635 l 1,18,-1
 514 635 l 1,19,-1
 514 670 l 1,20,-1
 424 821 l 1,21,-1
 115 821 l 1,22,-1
 115 932 l 1,23,-1
 358 932 l 1,24,-1
 37 1493 l 1,0,-1
EndSplineSet
EndChar

StartChar: brokenbar
Encoding: 166 166 100
Width: 1233
Flags: W
LayerCount: 2
Back
Fore
SplineSet
702 1432 m 1,0,-1
 702 674 l 1,1,-1
 530 674 l 1,2,-1
 530 1432 l 1,3,-1
 702 1432 l 1,0,-1
702 408 m 1,4,-1
 702 -350 l 1,5,-1
 530 -350 l 1,6,-1
 530 408 l 1,7,-1
 702 408 l 1,4,-1
EndSplineSet
EndChar

StartChar: section
Encoding: 167 167 101
Width: 1233
Flags: W
LayerCount: 2
Back
Fore
SplineSet
936 1462 m 1,0,-1
 936 1298 l 1,1,2
 853 1337 853 1337 781.5 1356.5 c 128,-1,3
 710 1376 710 1376 653 1376 c 0,4,5
 556 1376 556 1376 502.5 1336 c 128,-1,6
 449 1296 449 1296 449 1225 c 0,7,8
 449 1135 449 1135 654 1020 c 0,9,10
 680 1005 680 1005 694 997 c 0,11,12
 906 878 906 878 971 801 c 128,-1,13
 1036 724 1036 724 1036 623 c 0,14,15
 1036 533 1036 533 990.5 463 c 128,-1,16
 945 393 945 393 852 340 c 1,17,18
 913 288 913 288 942 233.5 c 128,-1,19
 971 179 971 179 971 115 c 0,20,21
 971 -27 971 -27 869 -111 c 128,-1,22
 767 -195 767 -195 594 -195 c 0,23,24
 521 -195 521 -195 443.5 -180.5 c 128,-1,25
 366 -166 366 -166 279 -137 c 1,26,-1
 279 27 l 1,27,28
 366 -12 366 -12 440 -31.5 c 128,-1,29
 514 -51 514 -51 571 -51 c 0,30,31
 673 -51 673 -51 729.5 -9 c 128,-1,32
 786 33 786 33 786 109 c 0,33,34
 786 211 786 211 565 334 c 1,35,-1
 541 348 l 1,36,37
 327 468 327 468 263 544.5 c 128,-1,38
 199 621 199 621 199 723 c 0,39,40
 199 814 199 814 245.5 885.5 c 128,-1,41
 292 957 292 957 383 1006 c 1,42,43
 323 1050 323 1050 293.5 1106 c 128,-1,44
 264 1162 264 1162 264 1231 c 0,45,46
 264 1361 264 1361 364 1440.5 c 128,-1,47
 464 1520 464 1520 631 1520 c 0,48,49
 703 1520 703 1520 779.5 1505.5 c 128,-1,50
 856 1491 856 1491 936 1462 c 1,0,-1
485 936 m 1,51,52
 423 891 423 891 392.5 846 c 128,-1,53
 362 801 362 801 362 754 c 0,54,55
 362 678 362 678 432.5 610.5 c 128,-1,56
 503 543 503 543 750 410 c 1,57,58
 812 455 812 455 842 500 c 128,-1,59
 872 545 872 545 872 592 c 0,60,61
 872 668 872 668 800.5 736 c 128,-1,62
 729 804 729 804 485 936 c 1,51,52
EndSplineSet
EndChar

StartChar: dieresis
Encoding: 168 168 102
Width: 1233
Flags: W
LayerCount: 2
Back
Fore
SplineSet
319 1552 m 1,0,-1
 522 1552 l 1,1,-1
 522 1350 l 1,2,-1
 319 1350 l 1,3,-1
 319 1552 l 1,0,-1
711 1552 m 1,4,-1
 913 1552 l 1,5,-1
 913 1350 l 1,6,-1
 711 1350 l 1,7,-1
 711 1552 l 1,4,-1
EndSplineSet
EndChar

StartChar: guillemotleft
Encoding: 171 171 103
Width: 1233
Flags: W
LayerCount: 2
Back
Fore
SplineSet
588 1059 m 1,0,-1
 588 868 l 1,1,-1
 287 600 l 1,2,-1
 588 332 l 1,3,-1
 588 141 l 1,4,-1
 119 559 l 1,5,-1
 119 641 l 1,6,-1
 588 1059 l 1,0,-1
1042 1059 m 1,7,-1
 1042 868 l 1,8,-1
 741 600 l 1,9,-1
 1042 332 l 1,10,-1
 1042 141 l 1,11,-1
 573 559 l 1,12,-1
 573 641 l 1,13,-1
 1042 1059 l 1,7,-1
EndSplineSet
EndChar

StartChar: logicalnot
Encoding: 172 172 104
Width: 1233
Flags: W
LayerCount: 2
Back
Fore
SplineSet
88 862 m 1,0,-1
 1145 862 l 1,1,-1
 1145 371 l 1,2,-1
 977 371 l 1,3,-1
 977 690 l 1,4,-1
 88 690 l 1,5,-1
 88 862 l 1,0,-1
EndSplineSet
EndChar

StartChar: sfthyphen
Encoding: 173 173 105
Width: 1233
Flags: W
LayerCount: 2
Back
Fore
SplineSet
132 744 m 1,0,-1
 1122 744 l 1,1,-1
 1122 555 l 1,2,-1
 132 555 l 1,3,-1
 132 744 l 1,0,-1
EndSplineSet
EndChar

StartChar: macron
Encoding: 175 175 106
Width: 1233
Flags: W
LayerCount: 2
Back
Fore
SplineSet
117 1526 m 1,0,-1
 1115 1526 l 1,1,-1
 1115 1378 l 1,2,-1
 117 1378 l 1,3,-1
 117 1526 l 1,0,-1
EndSplineSet
EndChar

StartChar: degree
Encoding: 176 176 107
Width: 1233
Flags: W
LayerCount: 2
Back
Fore
SplineSet
616 1520 m 0,0,1
 681 1520 681 1520 739.5 1495.5 c 128,-1,2
 798 1471 798 1471 842 1425 c 0,3,4
 887 1380 887 1380 910.5 1323 c 128,-1,5
 934 1266 934 1266 934 1200 c 0,6,7
 934 1068 934 1068 841 976.5 c 128,-1,8
 748 885 748 885 614 885 c 0,9,10
 479 885 479 885 389 975 c 128,-1,11
 299 1065 299 1065 299 1200 c 0,12,13
 299 1334 299 1334 391 1427 c 128,-1,14
 483 1520 483 1520 616 1520 c 0,0,1
616 1391 m 256,15,16
 537 1391 537 1391 481.5 1335.5 c 128,-1,17
 426 1280 426 1280 426 1200 c 256,18,19
 426 1120 426 1120 480.5 1066 c 128,-1,20
 535 1012 535 1012 614 1012 c 0,21,22
 694 1012 694 1012 750.5 1067 c 128,-1,23
 807 1122 807 1122 807 1200 c 0,24,25
 807 1279 807 1279 751 1335 c 128,-1,26
 695 1391 695 1391 616 1391 c 256,15,16
EndSplineSet
EndChar

StartChar: plusminus
Encoding: 177 177 108
Width: 1233
Flags: W
LayerCount: 2
Back
Fore
SplineSet
88 170 m 1,0,-1
 1145 170 l 1,1,-1
 1145 0 l 1,2,-1
 88 0 l 1,3,-1
 88 170 l 1,0,-1
700 1291 m 1,4,-1
 700 922 l 1,5,-1
 1145 922 l 1,6,-1
 1145 752 l 1,7,-1
 700 752 l 1,8,-1
 700 380 l 1,9,-1
 532 380 l 1,10,-1
 532 752 l 1,11,-1
 88 752 l 1,12,-1
 88 922 l 1,13,-1
 532 922 l 1,14,-1
 532 1291 l 1,15,-1
 700 1291 l 1,4,-1
EndSplineSet
EndChar

StartChar: twosuperior
Encoding: 178 178 109
Width: 1233
Flags: W
LayerCount: 2
Back
Fore
SplineSet
483 782 m 1,0,-1
 893 782 l 1,1,-1
 893 668 l 1,2,-1
 322 668 l 1,3,-1
 322 778 l 1,4,-1
 553 1004 l 2,5,6
 654 1101 654 1101 694.5 1162 c 128,-1,7
 735 1223 735 1223 735 1274 c 0,8,9
 735 1335 735 1335 685 1373 c 128,-1,10
 635 1411 635 1411 553 1411 c 0,11,12
 504 1411 504 1411 447.5 1393 c 128,-1,13
 391 1375 391 1375 328 1339 c 1,14,-1
 328 1464 l 1,15,16
 393 1492 393 1492 453.5 1506 c 128,-1,17
 514 1520 514 1520 573 1520 c 0,18,19
 715 1520 715 1520 801 1453.5 c 128,-1,20
 887 1387 887 1387 887 1280 c 0,21,22
 887 1223 887 1223 850 1163.5 c 128,-1,23
 813 1104 813 1104 694 987 c 2,24,-1
 483 782 l 1,0,-1
EndSplineSet
EndChar

StartChar: threesuperior
Encoding: 179 179 110
Width: 1233
Flags: W
LayerCount: 2
Back
Fore
SplineSet
731 1120 m 1,0,1
 825 1099 825 1099 874.5 1045 c 128,-1,2
 924 991 924 991 924 911 c 0,3,4
 924 787 924 787 829 720 c 128,-1,5
 734 653 734 653 557 653 c 0,6,7
 499 653 499 653 442 663.5 c 128,-1,8
 385 674 385 674 326 694 c 1,9,-1
 326 815 l 1,10,11
 395 788 395 788 451.5 775 c 128,-1,12
 508 762 508 762 553 762 c 0,13,14
 654 762 654 762 713 802.5 c 128,-1,15
 772 843 772 843 772 911 c 0,16,17
 772 985 772 985 717 1023 c 128,-1,18
 662 1061 662 1061 553 1061 c 2,19,-1
 487 1061 l 1,20,-1
 487 1169 l 1,21,-1
 561 1169 l 2,22,23
 654 1169 654 1169 703 1200.5 c 128,-1,24
 752 1232 752 1232 752 1292 c 0,25,26
 752 1348 752 1348 704 1379.5 c 128,-1,27
 656 1411 656 1411 569 1411 c 0,28,29
 525 1411 525 1411 469 1399 c 128,-1,30
 413 1387 413 1387 354 1364 c 1,31,-1
 354 1485 l 1,32,33
 423 1502 423 1502 481.5 1511 c 128,-1,34
 540 1520 540 1520 590 1520 c 0,35,36
 735 1520 735 1520 819 1461 c 128,-1,37
 903 1402 903 1402 903 1303 c 0,38,39
 903 1232 903 1232 859 1185.5 c 128,-1,40
 815 1139 815 1139 731 1120 c 1,0,1
EndSplineSet
EndChar

StartChar: paragraph
Encoding: 182 182 111
Width: 1233
Flags: W
LayerCount: 2
Back
Fore
SplineSet
582 1493 m 2,0,-1
 1030 1493 l 1,1,-1
 1030 -197 l 1,2,-1
 889 -197 l 1,3,-1
 889 1370 l 1,4,-1
 698 1370 l 1,5,-1
 698 -197 l 1,6,-1
 557 -197 l 1,7,-1
 557 649 l 1,8,9
 342 666 342 666 224 776.5 c 128,-1,10
 106 887 106 887 106 1071 c 0,11,12
 106 1261 106 1261 236.5 1377 c 128,-1,13
 367 1493 367 1493 582 1493 c 2,0,-1
EndSplineSet
EndChar

StartChar: periodcentered
Encoding: 183 183 112
Width: 1233
Flags: W
LayerCount: 2
Back
Fore
SplineSet
489 864 m 1,0,-1
 741 864 l 1,1,-1
 741 559 l 1,2,-1
 489 559 l 1,3,-1
 489 864 l 1,0,-1
EndSplineSet
EndChar

StartChar: onesuperior
Encoding: 185 185 113
Width: 1233
Flags: W
LayerCount: 2
Back
Fore
SplineSet
362 778 m 1,0,-1
 567 778 l 1,1,-1
 567 1389 l 1,2,-1
 344 1348 l 1,3,-1
 344 1464 l 1,4,-1
 573 1503 l 1,5,-1
 711 1503 l 1,6,-1
 711 778 l 1,7,-1
 915 778 l 1,8,-1
 915 668 l 1,9,-1
 362 668 l 1,10,-1
 362 778 l 1,0,-1
EndSplineSet
EndChar

StartChar: guillemotright
Encoding: 187 187 114
Width: 1233
Flags: W
LayerCount: 2
Back
Fore
SplineSet
647 1059 m 1,0,-1
 1116 641 l 1,1,-1
 1116 559 l 1,2,-1
 647 141 l 1,3,-1
 647 332 l 1,4,-1
 948 600 l 1,5,-1
 647 868 l 1,6,-1
 647 1059 l 1,0,-1
193 1059 m 1,7,-1
 662 641 l 1,8,-1
 662 559 l 1,9,-1
 193 141 l 1,10,-1
 193 332 l 1,11,-1
 494 600 l 1,12,-1
 193 868 l 1,13,-1
 193 1059 l 1,7,-1
EndSplineSet
EndChar

StartChar: questiondown
Encoding: 191 191 115
Width: 1233
Flags: W
LayerCount: 2
Back
Fore
SplineSet
549 1092 m 1,0,-1
 739 1092 l 1,1,-1
 739 938 l 2,2,3
 739 840 739 840 708.5 771.5 c 128,-1,4
 678 703 678 703 594 621 c 2,5,-1
 504 532 l 2,6,7
 442 473 442 473 418.5 429 c 128,-1,8
 395 385 395 385 395 336 c 0,9,10
 395 247 395 247 460.5 192 c 128,-1,11
 526 137 526 137 635 137 c 0,12,13
 713 137 713 137 802 171.5 c 128,-1,14
 891 206 891 206 989 274 c 1,15,-1
 989 86 l 1,16,17
 895 29 895 29 799.5 1 c 128,-1,18
 704 -27 704 -27 600 -27 c 0,19,20
 414 -27 414 -27 303.5 69 c 128,-1,21
 193 165 193 165 193 326 c 0,22,23
 193 402 193 402 226.5 467.5 c 128,-1,24
 260 533 260 533 354 625 c 2,25,-1
 442 711 l 2,26,27
 509 775 509 775 528 817 c 128,-1,28
 547 859 547 859 547 922 c 0,29,30
 547 923 547 923 547 927 c 0,31,32
 549 950 549 950 549 969 c 2,33,-1
 549 1092 l 1,0,-1
745 1239 m 1,34,-1
 543 1239 l 1,35,-1
 543 1493 l 1,36,-1
 745 1493 l 1,37,-1
 745 1239 l 1,34,-1
EndSplineSet
EndChar

StartChar: Adieresis
Encoding: 196 196 116
Width: 1233
Flags: W
LayerCount: 2
Back
Fore
SplineSet
319 1870 m 1
 522 1870 l 1
 522 1667 l 1
 319 1667 l 1
 319 1870 l 1
711 1870 m 1
 913 1870 l 1
 913 1667 l 1
 711 1667 l 1
 711 1870 l 1
EndSplineSet
Refer: 33 65 N 1 0 0 1 0 0 3
EndChar

StartChar: Ecircumflex
Encoding: 202 202 117
Width: 1233
Flags: W
LayerCount: 2
Back
Fore
SplineSet
540 1901 m 1
 729 1901 l 1
 940 1635 l 1
 800 1635 l 1
 634 1813 l 1
 469 1635 l 1
 329 1635 l 1
 540 1901 l 1
EndSplineSet
Refer: 37 69 N 1 0 0 1 0 0 3
EndChar

StartChar: Edieresis
Encoding: 203 203 118
Width: 1233
Flags: W
LayerCount: 2
Back
Fore
SplineSet
337 1870 m 1
 540 1870 l 1
 540 1667 l 1
 337 1667 l 1
 337 1870 l 1
729 1870 m 1
 931 1870 l 1
 931 1667 l 1
 729 1667 l 1
 729 1870 l 1
EndSplineSet
Refer: 37 69 N 1 0 0 1 0 0 3
EndChar

StartChar: Icircumflex
Encoding: 206 206 119
Width: 1233
Flags: W
LayerCount: 2
Back
Fore
SplineSet
522 1901 m 1
 711 1901 l 1
 922 1635 l 1
 782 1635 l 1
 616 1813 l 1
 451 1635 l 1
 311 1635 l 1
 522 1901 l 1
EndSplineSet
Refer: 41 73 N 1 0 0 1 0 0 3
EndChar

StartChar: Idieresis
Encoding: 207 207 120
Width: 1233
Flags: W
LayerCount: 2
Back
Fore
SplineSet
319 1870 m 1
 522 1870 l 1
 522 1667 l 1
 319 1667 l 1
 319 1870 l 1
711 1870 m 1
 913 1870 l 1
 913 1667 l 1
 711 1667 l 1
 711 1870 l 1
EndSplineSet
Refer: 41 73 N 1 0 0 1 0 0 3
EndChar

StartChar: Ocircumflex
Encoding: 212 212 121
Width: 1233
Flags: W
LayerCount: 2
Back
Fore
SplineSet
522 1901 m 1
 711 1901 l 1
 922 1635 l 1
 782 1635 l 1
 616 1813 l 1
 451 1635 l 1
 311 1635 l 1
 522 1901 l 1
EndSplineSet
Refer: 47 79 N 1 0 0 1 0 0 3
EndChar

StartChar: Odieresis
Encoding: 214 214 122
Width: 1233
Flags: W
LayerCount: 2
Back
Fore
SplineSet
319 1870 m 1
 522 1870 l 1
 522 1667 l 1
 319 1667 l 1
 319 1870 l 1
711 1870 m 1
 913 1870 l 1
 913 1667 l 1
 711 1667 l 1
 711 1870 l 1
EndSplineSet
Refer: 47 79 N 1 0 0 1 0 0 3
EndChar

StartChar: multiply
Encoding: 215 215 123
Width: 1233
Flags: W
LayerCount: 2
Back
Fore
SplineSet
150 293 m 1,0,-1
 500 641 l 1,1,-1
 150 991 l 1,2,-1
 266 1108 l 1,3,-1
 616 758 l 1,4,-1
 967 1108 l 1,5,-1
 1083 991 l 1,6,-1
 733 641 l 1,7,-1
 1081 293 l 1,8,-1
 965 174 l 1,9,-1
 616 524 l 1,10,-1
 268 174 l 1,11,-1
 150 293 l 1,0,-1
EndSplineSet
EndChar

StartChar: Ucircumflex
Encoding: 219 219 124
Width: 1233
Flags: W
LayerCount: 2
Back
Fore
SplineSet
522 1901 m 1
 711 1901 l 1
 922 1635 l 1
 782 1635 l 1
 616 1813 l 1
 451 1635 l 1
 311 1635 l 1
 522 1901 l 1
EndSplineSet
Refer: 53 85 N 1 0 0 1 0 0 3
EndChar

StartChar: Udieresis
Encoding: 220 220 125
Width: 1233
Flags: W
LayerCount: 2
Back
Fore
SplineSet
319 1870 m 1
 522 1870 l 1
 522 1667 l 1
 319 1667 l 1
 319 1870 l 1
711 1870 m 1
 913 1870 l 1
 913 1667 l 1
 711 1667 l 1
 711 1870 l 1
EndSplineSet
Refer: 53 85 N 1 0 0 1 0 0 3
EndChar

StartChar: acircumflex
Encoding: 226 226 126
Width: 1233
Flags: W
LayerCount: 2
Back
Fore
SplineSet
543 1638 m 1
 690 1638 l 1
 936 1262 l 1
 797 1262 l 1
 616 1507 l 1
 436 1262 l 1
 297 1262 l 1
 543 1638 l 1
EndSplineSet
Refer: 65 97 N 1 0 0 1 0 0 3
EndChar

StartChar: ecircumflex
Encoding: 234 234 128
Width: 1233
Flags: W
LayerCount: 2
Back
Fore
SplineSet
557 1638 m 1
 704 1638 l 1
 950 1262 l 1
 811 1262 l 1
 630 1507 l 1
 450 1262 l 1
 311 1262 l 1
 557 1638 l 1
EndSplineSet
Refer: 69 101 N 1 0 0 1 0 0 3
EndChar

StartChar: icircumflex
Encoding: 238 238 130
Width: 1233
Flags: W
LayerCount: 2
Back
Fore
SplineSet
543 1638 m 1,0,-1
 690 1638 l 1,1,-1
 936 1262 l 1,2,-1
 797 1262 l 1,3,-1
 616 1507 l 1,4,-1
 436 1262 l 1,5,-1
 297 1262 l 1,6,-1
 543 1638 l 1,0,-1
256 1120 m 1,7,-1
 727 1120 l 1,8,-1
 727 143 l 1,9,-1
 1092 143 l 1,10,-1
 1092 0 l 1,11,-1
 178 0 l 1,12,-1
 178 143 l 1,13,-1
 543 143 l 1,14,-1
 543 977 l 1,15,-1
 256 977 l 1,16,-1
 256 1120 l 1,7,-1
EndSplineSet
EndChar

StartChar: idieresis
Encoding: 239 239 131
Width: 1233
Flags: W
LayerCount: 2
Back
Fore
SplineSet
256 1120 m 1
 727 1120 l 1
 727 143 l 1
 1092 143 l 1
 1092 0 l 1
 178 0 l 1
 178 143 l 1
 543 143 l 1
 543 977 l 1
 256 977 l 1
 256 1120 l 1
EndSplineSet
Refer: 102 168 N 1 0 0 1 24 0 2
EndChar

StartChar: ocircumflex
Encoding: 244 244 132
Width: 1233
Flags: W
LayerCount: 2
Back
Fore
SplineSet
543 1638 m 1
 690 1638 l 1
 936 1262 l 1
 797 1262 l 1
 616 1507 l 1
 436 1262 l 1
 297 1262 l 1
 543 1638 l 1
EndSplineSet
Refer: 79 111 N 1 0 0 1 0 0 3
EndChar

StartChar: divide
Encoding: 247 247 134
Width: 1233
Flags: W
LayerCount: 2
Back
Fore
SplineSet
494 395 m 1,0,-1
 739 395 l 1,1,-1
 739 150 l 1,2,-1
 494 150 l 1,3,-1
 494 395 l 1,0,-1
494 1135 m 1,4,-1
 739 1135 l 1,5,-1
 739 889 l 1,6,-1
 494 889 l 1,7,-1
 494 1135 l 1,4,-1
88 727 m 1,8,-1
 1145 727 l 1,9,-1
 1145 557 l 1,10,-1
 88 557 l 1,11,-1
 88 727 l 1,8,-1
EndSplineSet
EndChar

StartChar: oslash
Encoding: 248 248 135
Width: 1233
Flags: W
LayerCount: 2
Back
Fore
SplineSet
877 780 m 1,0,-1
 414 221 l 1,1,2
 450 174 450 174 500.5 150.5 c 128,-1,3
 551 127 551 127 616 127 c 0,4,5
 757 127 757 127 829 236.5 c 128,-1,6
 901 346 901 346 901 559 c 0,7,8
 901 611 901 611 895 666.5 c 128,-1,9
 889 722 889 722 877 780 c 1,0,-1
817 897 m 1,10,11
 782 945 782 945 732.5 968 c 128,-1,12
 683 991 683 991 616 991 c 0,13,14
 477 991 477 991 402.5 884 c 128,-1,15
 328 777 328 777 328 575 c 0,16,17
 328 527 328 527 335 469 c 128,-1,18
 342 411 342 411 356 340 c 1,19,-1
 817 897 l 1,10,11
217 180 m 1,20,21
 178 251 178 251 157.5 348.5 c 128,-1,22
 137 446 137 446 137 559 c 0,23,24
 137 845 137 845 260 996 c 128,-1,25
 383 1147 383 1147 616 1147 c 0,26,27
 716 1147 716 1147 795 1119.5 c 128,-1,28
 874 1092 874 1092 934 1036 c 1,29,-1
 1081 1212 l 1,30,-1
 1174 1135 l 1,31,-1
 1010 940 l 1,32,33
 1052 874 1052 874 1074 777.5 c 128,-1,34
 1096 681 1096 681 1096 559 c 0,35,36
 1096 272 1096 272 973 121.5 c 128,-1,37
 850 -29 850 -29 616 -29 c 0,38,39
 513 -29 513 -29 434.5 0.5 c 128,-1,40
 356 30 356 30 299 90 c 1,41,-1
 139 -96 l 1,42,-1
 47 -20 l 1,43,-1
 217 180 l 1,20,21
EndSplineSet
EndChar

StartChar: ucircumflex
Encoding: 251 251 136
Width: 1233
Flags: W
LayerCount: 2
Back
Fore
SplineSet
543 1638 m 1
 690 1638 l 1
 936 1262 l 1
 797 1262 l 1
 616 1507 l 1
 436 1262 l 1
 297 1262 l 1
 543 1638 l 1
EndSplineSet
Refer: 85 117 N 1 0 0 1 0 0 3
EndChar

StartChar: Ccircumflex
Encoding: 264 264 139
Width: 1233
Flags: W
LayerCount: 2
Back
Fore
SplineSet
648 1908 m 1
 837 1908 l 1
 1048 1642 l 1
 908 1642 l 1
 742 1820 l 1
 577 1642 l 1
 437 1642 l 1
 648 1908 l 1
EndSplineSet
Refer: 35 67 N 1 0 0 1 0 0 2
EndChar

StartChar: ccircumflex
Encoding: 265 265 140
Width: 1233
Flags: W
LayerCount: 2
Back
Fore
SplineSet
633 1638 m 1
 780 1638 l 1
 1026 1262 l 1
 887 1262 l 1
 706 1507 l 1
 526 1262 l 1
 387 1262 l 1
 633 1638 l 1
EndSplineSet
Refer: 67 99 N 1 0 0 1 0 0 2
EndChar

StartChar: Cdotaccent
Encoding: 266 266 141
Width: 1233
Flags: W
LayerCount: 2
Back
Fore
SplineSet
588 1872 m 1
 793 1872 l 1
 793 1667 l 1
 588 1667 l 1
 588 1872 l 1
EndSplineSet
Refer: 35 67 N 1 0 0 1 0 0 2
EndChar

StartChar: cdotaccent
Encoding: 267 267 142
Width: 1233
Flags: W
LayerCount: 2
Back
Fore
SplineSet
588 1552 m 1
 793 1552 l 1
 793 1348 l 1
 588 1348 l 1
 588 1552 l 1
EndSplineSet
Refer: 67 99 N 1 0 0 1 0 0 2
EndChar

StartChar: Edotaccent
Encoding: 278 278 143
Width: 1233
Flags: W
LayerCount: 2
Back
Fore
SplineSet
531 1872 m 1
 736 1872 l 1
 736 1667 l 1
 531 1667 l 1
 531 1872 l 1
EndSplineSet
Refer: 37 69 N 1 0 0 1 0 0 2
EndChar

StartChar: edotaccent
Encoding: 279 279 144
Width: 1233
Flags: W
LayerCount: 2
Back
Fore
SplineSet
527 1552 m 1
 732 1552 l 1
 732 1348 l 1
 527 1348 l 1
 527 1552 l 1
EndSplineSet
Refer: 69 101 N 1 0 0 1 0 0 2
EndChar

StartChar: Gcircumflex
Encoding: 284 284 145
Width: 1233
Flags: W
LayerCount: 2
Back
Fore
SplineSet
522 1901 m 1
 711 1901 l 1
 922 1635 l 1
 782 1635 l 1
 616 1813 l 1
 451 1635 l 1
 311 1635 l 1
 522 1901 l 1
EndSplineSet
Refer: 39 71 N 1 0 0 1 0 0 2
EndChar

StartChar: gcircumflex
Encoding: 285 285 146
Width: 1233
Flags: W
LayerCount: 2
Back
Fore
SplineSet
543 1638 m 1
 690 1638 l 1
 936 1262 l 1
 797 1262 l 1
 616 1507 l 1
 436 1262 l 1
 297 1262 l 1
 543 1638 l 1
EndSplineSet
Refer: 71 103 N 1 0 0 1 0 0 2
EndChar

StartChar: Gdotaccent
Encoding: 288 288 147
Width: 1233
Flags: W
LayerCount: 2
Back
Fore
SplineSet
563 1872 m 1
 768 1872 l 1
 768 1667 l 1
 563 1667 l 1
 563 1872 l 1
EndSplineSet
Refer: 39 71 N 1 0 0 1 0 0 2
EndChar

StartChar: gdotaccent
Encoding: 289 289 148
Width: 1233
Flags: W
LayerCount: 2
Back
Fore
SplineSet
513 1552 m 1
 718 1552 l 1
 718 1348 l 1
 513 1348 l 1
 513 1552 l 1
EndSplineSet
Refer: 71 103 N 1 0 0 1 0 0 2
EndChar

StartChar: Hcircumflex
Encoding: 292 292 149
Width: 1233
Flags: W
LayerCount: 2
Back
Fore
SplineSet
522 1901 m 1
 711 1901 l 1
 922 1635 l 1
 782 1635 l 1
 616 1813 l 1
 451 1635 l 1
 311 1635 l 1
 522 1901 l 1
EndSplineSet
Refer: 40 72 N 1 0 0 1 0 0 2
EndChar

StartChar: hcircumflex
Encoding: 293 293 150
Width: 1233
Flags: W
LayerCount: 2
Back
Fore
SplineSet
522 1901 m 1
 711 1901 l 1
 922 1635 l 1
 782 1635 l 1
 616 1813 l 1
 451 1635 l 1
 311 1635 l 1
 522 1901 l 1
EndSplineSet
Refer: 72 104 N 1 0 0 1 0 0 2
EndChar

StartChar: Idotaccent
Encoding: 304 304 151
Width: 1233
Flags: W
LayerCount: 2
Back
Fore
SplineSet
513 1872 m 1
 718 1872 l 1
 718 1667 l 1
 513 1667 l 1
 513 1872 l 1
EndSplineSet
Refer: 41 73 N 1 0 0 1 0 0 2
EndChar

StartChar: Jcircumflex
Encoding: 308 308 152
Width: 1233
Flags: W
LayerCount: 2
Back
Fore
SplineSet
570 1901 m 1
 759 1901 l 1
 970 1635 l 1
 830 1635 l 1
 664 1813 l 1
 499 1635 l 1
 359 1635 l 1
 570 1901 l 1
EndSplineSet
Refer: 42 74 N 1 0 0 1 0 0 2
EndChar

StartChar: jcircumflex
Encoding: 309 309 153
Width: 1233
Flags: W
LayerCount: 2
Back
Fore
SplineSet
543 1638 m 1,0,-1
 690 1638 l 1,1,-1
 936 1262 l 1,2,-1
 797 1262 l 1,3,-1
 616 1507 l 1,4,-1
 436 1262 l 1,5,-1
 297 1262 l 1,6,-1
 543 1638 l 1,0,-1
600 -20 m 2,7,-1
 600 977 l 1,8,-1
 283 977 l 1,9,-1
 283 1120 l 1,10,-1
 784 1120 l 1,11,-1
 784 -20 l 2,12,13
 784 -215 784 -215 694.5 -320.5 c 0,14,15
 605 -426 605 -426 440 -426 c 2,16,-1
 186 -426 l 1,17,-1
 186 -270 l 1,18,-1
 420 -270 l 2,19,20
 510 -270 510 -270 555 -207.5 c 0,21,22
 600 -145 600 -145 600 -20 c 2,7,-1
EndSplineSet
EndChar

StartChar: Scircumflex
Encoding: 348 348 154
Width: 1233
Flags: W
LayerCount: 2
Back
Fore
SplineSet
522 1901 m 1
 711 1901 l 1
 922 1635 l 1
 782 1635 l 1
 616 1813 l 1
 451 1635 l 1
 311 1635 l 1
 522 1901 l 1
EndSplineSet
Refer: 51 83 N 1 0 0 1 0 0 2
EndChar

StartChar: scircumflex
Encoding: 349 349 155
Width: 1233
Flags: W
LayerCount: 2
Back
Fore
SplineSet
543 1638 m 1
 690 1638 l 1
 936 1262 l 1
 797 1262 l 1
 616 1507 l 1
 436 1262 l 1
 297 1262 l 1
 543 1638 l 1
EndSplineSet
Refer: 83 115 N 1 0 0 1 0 0 2
EndChar

StartChar: Wcircumflex
Encoding: 372 372 156
Width: 1233
Flags: W
LayerCount: 2
Back
Fore
SplineSet
522 1908 m 1
 711 1908 l 1
 922 1642 l 1
 782 1642 l 1
 616 1820 l 1
 451 1642 l 1
 311 1642 l 1
 522 1908 l 1
EndSplineSet
Refer: 55 87 N 1 0 0 1 0 0 2
EndChar

StartChar: wcircumflex
Encoding: 373 373 157
Width: 1233
Flags: W
LayerCount: 2
Back
Fore
SplineSet
543 1645 m 1
 690 1645 l 1
 936 1269 l 1
 797 1269 l 1
 616 1514 l 1
 436 1269 l 1
 297 1269 l 1
 543 1645 l 1
EndSplineSet
Refer: 87 119 N 1 0 0 1 0 0 2
EndChar

StartChar: Ycircumflex
Encoding: 374 374 158
Width: 1233
Flags: W
LayerCount: 2
Back
Fore
SplineSet
522 1908 m 1
 711 1908 l 1
 922 1642 l 1
 782 1642 l 1
 616 1820 l 1
 451 1642 l 1
 311 1642 l 1
 522 1908 l 1
EndSplineSet
Refer: 57 89 N 1 0 0 1 0 0 2
EndChar

StartChar: ycircumflex
Encoding: 375 375 159
Width: 1233
Flags: W
LayerCount: 2
Back
Fore
SplineSet
555 1645 m 1
 702 1645 l 1
 948 1269 l 1
 809 1269 l 1
 628 1514 l 1
 448 1269 l 1
 309 1269 l 1
 555 1645 l 1
EndSplineSet
Refer: 89 121 N 1 0 0 1 0 0 2
EndChar

StartChar: Ydieresis
Encoding: 376 376 160
Width: 1233
Flags: W
LayerCount: 2
Back
Fore
SplineSet
319 1870 m 1
 522 1870 l 1
 522 1667 l 1
 319 1667 l 1
 319 1870 l 1
711 1870 m 1
 913 1870 l 1
 913 1667 l 1
 711 1667 l 1
 711 1870 l 1
EndSplineSet
Refer: 57 89 N 1 0 0 1 0 0 3
EndChar

StartChar: Zdotaccent
Encoding: 379 379 161
Width: 1233
Flags: W
LayerCount: 2
Back
Fore
SplineSet
563 1872 m 1
 768 1872 l 1
 768 1667 l 1
 563 1667 l 1
 563 1872 l 1
EndSplineSet
Refer: 58 90 N 1 0 0 1 0 0 2
EndChar

StartChar: zdotaccent
Encoding: 380 380 162
Width: 1233
Flags: W
LayerCount: 2
Back
Fore
SplineSet
513 1552 m 1
 718 1552 l 1
 718 1348 l 1
 513 1348 l 1
 513 1552 l 1
EndSplineSet
Refer: 90 122 N 1 0 0 1 0 0 2
EndChar

StartChar: uni0186
Encoding: 390 390 163
Width: 1233
Flags: W
LayerCount: 2
Back
Fore
SplineSet
139 1438 m 1,0,1
 216 1479 216 1479 297 1499.5 c 128,-1,2
 378 1520 378 1520 469 1520 c 0,3,4
 754 1520 754 1520 913.5 1315.5 c 128,-1,5
 1073 1111 1073 1111 1073 745 c 0,6,7
 1073 377 1073 377 914.5 174 c 128,-1,8
 756 -29 756 -29 469 -29 c 0,9,10
 378 -29 378 -29 297 -8.5 c 128,-1,11
 216 12 216 12 139 53 c 1,12,-1
 139 260 l 1,13,14
 212 199 212 199 296.5 167 c 128,-1,15
 381 135 381 135 469 135 c 0,16,17
 666 135 666 135 764 287 c 128,-1,18
 862 439 862 439 862 745 c 0,19,20
 862 1052 862 1052 764 1204 c 128,-1,21
 666 1356 666 1356 469 1356 c 0,22,23
 383 1356 383 1356 298 1324 c 128,-1,24
 213 1292 213 1292 139 1231 c 1,25,-1
 139 1438 l 1,0,1
EndSplineSet
EndChar

StartChar: uni0191
Encoding: 401 401 164
Width: 1233
Flags: W
LayerCount: 2
Back
Fore
SplineSet
380 1493 m 1,0,-1
 1170 1493 l 1,1,-1
 1170 1323 l 1,2,-1
 583 1323 l 1,3,-1
 583 883 l 1,4,-1
 1107 883 l 1,5,-1
 1107 713 l 1,6,-1
 583 713 l 1,7,-1
 583 -20 l 2,8,9
 583 -215 583 -215 494 -320 c 0,10,11
 404 -426 404 -426 239 -426 c 2,12,-1
 63 -426 l 1,13,-1
 63 -270 l 1,14,-1
 201 -270 l 2,15,16
 291 -270 291 -270 336 -208 c 0,17,18
 380 -146 380 -146 380 -20 c 2,19,-1
 380 1493 l 1,0,-1
EndSplineSet
EndChar

StartChar: florin
Encoding: 402 402 165
Width: 1233
Flags: W
LayerCount: 2
Back
Fore
SplineSet
1063 1556 m 1,0,-1
 1063 1403 l 1,1,-1
 854 1403 l 1,2,-1
 852 1403 l 2,3,4
 755 1403 755 1403 716 1362 c 0,5,6
 678 1322 678 1322 678 1219 c 2,7,-1
 678 1120 l 1,8,-1
 1063 1120 l 1,9,-1
 1063 977 l 1,10,-1
 678 977 l 1,11,-1
 678 -20 l 2,12,13
 678 -234 678 -234 597 -330 c 0,14,15
 515 -426 515 -426 334 -426 c 2,16,-1
 264 -426 l 1,17,-1
 264 -270 l 1,18,-1
 313 -270 l 2,19,20
 418 -270 418 -270 456 -222 c 0,21,22
 494 -173 494 -173 494 -20 c 2,23,-1
 492 977 l 1,24,-1
 195 977 l 1,25,-1
 195 1120 l 1,26,-1
 491 1120 l 1,27,-1
 491 1198 l 2,28,29
 491 1378 491 1378 578 1470 c 0,30,31
 615 1509 615 1509 675 1530 c 0,32,33
 745 1556 745 1556 842 1556 c 2,34,-1
 851 1556 l 1,35,-1
 854 1556 l 1,36,-1
 1063 1556 l 1,0,-1
EndSplineSet
EndChar

StartChar: uni019B
Encoding: 411 411 166
Width: 1233
Flags: W
LayerCount: 2
Back
Fore
SplineSet
579 1213 m 1,0,-1
 927 1455 l 1,1,-1
 1007 1345 l 1,2,-1
 636 1087 l 1,3,-1
 1133 0 l 1,4,-1
 942 0 l 1,5,-1
 621 704 l 1,6,-1
 291 0 l 1,7,-1
 100 0 l 1,8,-1
 525 913 l 1,9,-1
 491 987 l 1,10,-1
 129 736 l 1,11,-1
 49 847 l 1,12,-1
 434 1113 l 1,13,-1
 260 1493 l 1,14,-1
 451 1493 l 1,15,-1
 579 1213 l 1,0,-1
EndSplineSet
EndChar

StartChar: Ohorn
Encoding: 416 416 167
Width: 1233
Flags: W
LayerCount: 2
Back
Fore
SplineSet
796 1292 m 1
 796 1411 l 1
 857 1366 857 1366 901 1344.5 c 0
 945 1323 945 1323 976 1323 c 0
 1022 1323 1022 1323 1045 1350.5 c 0
 1068 1378 1068 1378 1068 1432 c 0
 1068 1464 1068 1464 1060.5 1495 c 0
 1053 1526 1053 1526 1038 1557 c 1
 1171 1557 l 1
 1181 1519 1181 1519 1186 1485 c 0
 1191 1451 1191 1451 1191 1421 c 0
 1191 1299 1191 1299 1147.5 1241.5 c 0
 1104 1184 1104 1184 1011 1184 c 0
 963 1184 963 1184 910.5 1210.5 c 0
 858 1237 858 1237 796 1292 c 1
EndSplineSet
Refer: 47 79 N 1 0 0 1 -110 0 2
EndChar

StartChar: ohorn
Encoding: 417 417 168
Width: 1233
Flags: W
LayerCount: 2
Back
Fore
SplineSet
807 872 m 1
 807 991 l 1
 868 946 868 946 912 924.5 c 0
 956 903 956 903 987 903 c 0
 1033 903 1033 903 1056 930.5 c 0
 1079 958 1079 958 1079 1012 c 0
 1079 1044 1079 1044 1071.5 1075 c 0
 1064 1106 1064 1106 1049 1137 c 1
 1182 1137 l 1
 1192 1099 1192 1099 1197 1065 c 0
 1202 1031 1202 1031 1202 1001 c 0
 1202 879 1202 879 1158.5 821.5 c 0
 1115 764 1115 764 1022 764 c 0
 974 764 974 764 921.5 790.5 c 0
 869 817 869 817 807 872 c 1
EndSplineSet
Refer: 79 111 N 1 0 0 1 -104 0 2
EndChar

StartChar: uni01A4
Encoding: 420 420 169
Width: 1233
Flags: W
LayerCount: 2
Back
Fore
SplineSet
1177 1047 m 0,0,1
 1177 699 1177 699 865 622 c 0,2,3
 779 600 779 600 669 600 c 2,4,-1
 576 600 l 1,5,-1
 576 0 l 1,6,-1
 374 0 l 1,7,-1
 374 1327 l 1,8,9
 320 1327 320 1327 260 1280 c 0,10,11
 212 1242 212 1242 212 1128 c 2,12,-1
 212 1079 l 1,13,-1
 56 1079 l 1,14,-1
 56 1149 l 2,15,16
 56 1330 56 1330 152 1412 c 0,17,18
 248 1493 248 1493 374 1493 c 2,19,-1
 669 1493 l 2,20,21
 1076 1493 1076 1493 1158 1201 c 0,22,23
 1177 1132 1177 1132 1177 1047 c 0,0,1
669 766 m 2,24,25
 880 766 880 766 944 923 c 0,26,27
 966 979 966 979 966 1047 c 0,28,29
 966 1180 966 1180 888 1253.5 c 128,-1,30
 810 1327 810 1327 669 1327 c 2,31,-1
 576 1327 l 1,32,-1
 576 766 l 1,33,-1
 669 766 l 2,24,25
EndSplineSet
EndChar

StartChar: uni01A5
Encoding: 421 421 170
Width: 1233
Flags: W
LayerCount: 2
Back
Fore
SplineSet
375 559 m 0,0,1
 375 184 375 184 584 134 c 0,2,3
 613 127 613 127 647 127 c 0,4,5
 780 127 780 127 847.5 236 c 128,-1,6
 915 345 915 345 915 559 c 0,7,8
 915 977 915 977 664 991 c 0,9,10
 655 991 655 991 647 991 c 0,11,12
 433 991 433 991 387 718 c 0,13,14
 375 648 375 648 375 559 c 0,0,1
375 977 m 1,15,16
 466 1141 466 1141 660 1147 c 0,17,18
 667 1147 667 1147 674 1147 c 0,19,20
 877 1147 877 1147 992.5 990 c 128,-1,21
 1108 833 1108 833 1108 555 c 0,22,23
 1108 282 1108 282 992 126.5 c 128,-1,24
 876 -29 876 -29 674 -29 c 0,25,26
 572 -29 572 -29 495.5 14.5 c 128,-1,27
 419 58 419 58 375 141 c 1,28,-1
 375 -426 l 1,29,-1
 190 -426 l 1,30,-1
 190 1026 l 2,31,32
 190 1328 190 1328 393 1407 c 0,33,34
 456 1432 456 1432 534 1432 c 2,35,-1
 739 1432 l 1,36,-1
 739 1276 l 1,37,-1
 554 1276 l 2,38,39
 385 1276 385 1276 376 1055 c 0,40,41
 375 1041 375 1041 375 1026 c 2,42,-1
 375 977 l 1,15,16
EndSplineSet
EndChar

StartChar: uni01A7
Encoding: 423 423 171
Width: 1233
Flags: W
LayerCount: 2
Back
Fore
SplineSet
225 1442 m 1,0,1
 330 1481 330 1481 425 1500.5 c 128,-1,2
 520 1520 520 1520 606 1520 c 0,3,4
 829 1520 829 1520 963.5 1399.5 c 128,-1,5
 1098 1279 1098 1279 1098 1079 c 0,6,7
 1098 919 1098 919 1004 824 c 128,-1,8
 910 729 910 729 702 682 c 2,9,-1
 594 657 l 2,10,11
 449 625 449 625 390.5 566 c 128,-1,12
 332 507 332 507 332 395 c 0,13,14
 332 272 332 272 417 203.5 c 128,-1,15
 502 135 502 135 655 135 c 0,16,17
 759 135 759 135 861.5 169 c 128,-1,18
 964 203 964 203 1079 276 c 1,19,-1
 1079 61 l 1,20,21
 972 16 972 16 866 -6.5 c 128,-1,22
 760 -29 760 -29 655 -29 c 0,23,24
 403 -29 403 -29 271 83 c 128,-1,25
 139 195 139 195 139 408 c 0,26,27
 139 589 139 589 235 694 c 128,-1,28
 331 799 331 799 541 848 c 2,29,-1
 647 872 l 2,30,31
 796 907 796 907 850.5 959 c 128,-1,32
 905 1011 905 1011 905 1110 c 0,33,34
 905 1223 905 1223 822 1289.5 c 128,-1,35
 739 1356 739 1356 596 1356 c 0,36,37
 502 1356 502 1356 409.5 1326 c 128,-1,38
 317 1296 317 1296 225 1237 c 1,39,-1
 225 1442 l 1,0,1
EndSplineSet
EndChar

StartChar: uni01A8
Encoding: 424 424 172
Width: 1233
Flags: W
LayerCount: 2
Back
Fore
SplineSet
270 1081 m 1,0,1
 350 1114 350 1114 433 1130.5 c 128,-1,2
 516 1147 516 1147 606 1147 c 0,3,4
 808 1147 808 1147 917 1059.5 c 128,-1,5
 1026 972 1026 972 1026 811 c 0,6,7
 1026 684 1026 684 953 610.5 c 128,-1,8
 880 537 880 537 721 506 c 2,9,-1
 652 492 l 1,10,-1
 644 490 l 1,11,12
 399 441 399 441 399 313 c 0,13,14
 399 224 399 224 466 174.5 c 128,-1,15
 533 125 533 125 655 125 c 0,16,17
 739 125 739 125 833 151.5 c 128,-1,18
 927 178 927 178 1030 231 c 1,19,-1
 1030 41 l 1,20,21
 924 6 924 6 833 -11.5 c 128,-1,22
 742 -29 742 -29 659 -29 c 0,23,24
 449 -29 449 -29 331 64.5 c 128,-1,25
 213 158 213 158 213 324 c 0,26,27
 213 449 213 449 283.5 527 c 128,-1,28
 354 605 354 605 491 631 c 2,29,-1
 565 645 l 2,30,31
 748 680 748 680 794 717 c 128,-1,32
 840 754 840 754 840 829 c 0,33,34
 840 912 840 912 778.5 952.5 c 128,-1,35
 717 993 717 993 592 993 c 0,36,37
 509 993 509 993 429 970 c 128,-1,38
 349 947 349 947 270 901 c 1,39,-1
 270 1081 l 1,0,1
EndSplineSet
EndChar

StartChar: uni01C0
Encoding: 448 448 174
Width: 1233
Flags: W
LayerCount: 2
Back
Fore
SplineSet
516 1493 m 1,0,-1
 718 1493 l 1,1,-1
 718 0 l 1,2,-1
 516 0 l 1,3,-1
 516 1493 l 1,0,-1
EndSplineSet
EndChar

StartChar: uni01DD
Encoding: 477 477 176
Width: 1233
Flags: W
LayerCount: 2
Back
Fore
SplineSet
122 512 m 2,0,-1
 122 602 l 1,1,-1
 919 602 l 1,2,-1
 919 608 l 2,3,4
 919 791 919 791 823.5 891 c 0,5,6
 728 991 728 991 554 991 c 0,7,8
 466 991 466 991 370 963 c 0,9,10
 274 935 274 935 165 878 c 1,11,-1
 165 1061 l 1,12,13
 270 1104 270 1104 367.5 1125.5 c 0,14,15
 465 1147 465 1147 556 1147 c 0,16,17
 817 1147 817 1147 964 990.5 c 0,18,19
 1111 834 1111 834 1111 559 c 0,20,21
 1111 291 1111 291 967 131 c 0,22,23
 823 -29 823 -29 583 -29 c 0,24,25
 369 -29 369 -29 245.5 116 c 0,26,27
 122 261 122 261 122 512 c 2,0,-1
306 459 m 1,28,29
 306 297 306 297 380.5 212 c 0,30,31
 455 127 455 127 591 127 c 0,32,33
 724 127 724 127 810 215 c 0,34,35
 896 303 896 303 912 459 c 1,36,-1
 306 459 l 1,28,29
EndSplineSet
EndChar

StartChar: uni0226
Encoding: 550 550 177
Width: 1233
Flags: W
LayerCount: 2
Back
Fore
SplineSet
513 1872 m 1
 718 1872 l 1
 718 1667 l 1
 513 1667 l 1
 513 1872 l 1
EndSplineSet
Refer: 33 65 N 1 0 0 1 0 0 2
EndChar

StartChar: uni0227
Encoding: 551 551 178
Width: 1233
Flags: W
LayerCount: 2
Back
Fore
SplineSet
513 1552 m 1
 718 1552 l 1
 718 1348 l 1
 513 1348 l 1
 513 1552 l 1
EndSplineSet
Refer: 65 97 N 1 0 0 1 0 0 2
EndChar

StartChar: uni022E
Encoding: 558 558 179
Width: 1233
Flags: W
LayerCount: 2
Back
Fore
SplineSet
513 1872 m 1
 718 1872 l 1
 718 1667 l 1
 513 1667 l 1
 513 1872 l 1
EndSplineSet
Refer: 47 79 N 1 0 0 1 0 0 2
EndChar

StartChar: uni022F
Encoding: 559 559 180
Width: 1233
Flags: W
LayerCount: 2
Back
Fore
SplineSet
513 1552 m 1
 718 1552 l 1
 718 1348 l 1
 513 1348 l 1
 513 1552 l 1
EndSplineSet
Refer: 79 111 N 1 0 0 1 0 0 2
EndChar

StartChar: uni0245
Encoding: 581 581 181
Width: 1233
Flags: W
LayerCount: 2
Back
Fore
SplineSet
617 1323 m 1,0,-1
 266 0 l 1,1,-1
 57 0 l 1,2,-1
 494 1493 l 1,3,-1
 739 1493 l 1,4,-1
 1176 0 l 1,5,-1
 967 0 l 1,6,-1
 617 1323 l 1,0,-1
EndSplineSet
EndChar

StartChar: uni0254
Encoding: 596 596 182
Width: 1233
Flags: W
LayerCount: 2
Back
Fore
SplineSet
184 1061 m 1,0,1
 258 1104 258 1104 336 1125.5 c 128,-1,2
 414 1147 414 1147 496 1147 c 0,3,4
 756 1147 756 1147 903 991 c 128,-1,5
 1050 835 1050 835 1050 559 c 256,6,7
 1050 283 1050 283 903 127 c 128,-1,8
 756 -29 756 -29 496 -29 c 0,9,10
 416 -29 416 -29 339 -8 c 128,-1,11
 262 13 262 13 184 57 c 1,12,-1
 184 250 l 1,13,14
 256 185 256 185 330 156 c 128,-1,15
 404 127 404 127 496 127 c 0,16,17
 670 127 670 127 763 239 c 128,-1,18
 856 351 856 351 856 559 c 0,19,20
 856 766 856 766 762 878.5 c 128,-1,21
 668 991 668 991 496 991 c 0,22,23
 400 991 400 991 324 961.5 c 128,-1,24
 248 932 248 932 184 870 c 1,25,-1
 184 1061 l 1,0,1
EndSplineSet
EndChar

StartChar: uni02B0
Encoding: 688 688 183
Width: 1233
Flags: W
LayerCount: 2
Back
Fore
SplineSet
912 1047 m 2,0,-1
 912 668 l 1,1,-1
 796 668 l 1,2,-1
 796 1043 l 2,3,4
 796 1132 796 1132 757 1176.5 c 128,-1,5
 718 1221 718 1221 640 1221 c 0,6,7
 546 1221 546 1221 492 1167.5 c 128,-1,8
 438 1114 438 1114 438 1022 c 2,9,-1
 438 668 l 1,10,-1
 321 668 l 1,11,-1
 321 1539 l 1,12,-1
 438 1539 l 1,13,-1
 438 1198 l 1,14,15
 479 1254 479 1254 535.5 1282 c 128,-1,16
 592 1310 592 1310 666 1310 c 0,17,18
 787 1310 787 1310 849.5 1243 c 128,-1,19
 912 1176 912 1176 912 1047 c 2,0,-1
EndSplineSet
EndChar

StartChar: uni02B2
Encoding: 690 690 184
Width: 1233
Flags: W
LayerCount: 2
Back
Fore
SplineSet
631 1295 m 1,0,-1
 747 1295 l 1,1,-1
 747 657 l 2,2,3
 747 537 747 537 695.5 483 c 128,-1,4
 644 429 644 429 530 429 c 2,5,-1
 486 429 l 1,6,-1
 486 517 l 1,7,-1
 517 517 l 2,8,9
 583 517 583 517 607 544 c 128,-1,10
 631 571 631 571 631 657 c 2,11,-1
 631 1295 l 1,0,-1
631 1539 m 1,12,-1
 747 1539 l 1,13,-1
 747 1409 l 1,14,-1
 631 1409 l 1,15,-1
 631 1539 l 1,12,-1
EndSplineSet
EndChar

StartChar: uni02B3
Encoding: 691 691 185
Width: 1233
Flags: W
LayerCount: 2
Back
Fore
SplineSet
823 1199 m 1,0,1
 804 1209 804 1209 781 1213.5 c 128,-1,2
 758 1218 758 1218 730 1218 c 0,3,4
 632 1218 632 1218 579 1161.5 c 128,-1,5
 526 1105 526 1105 526 998 c 2,6,-1
 526 668 l 1,7,-1
 410 668 l 1,8,-1
 410 1295 l 1,9,-1
 526 1295 l 1,10,-1
 526 1198 l 1,11,12
 563 1255 563 1255 621.5 1282.5 c 128,-1,13
 680 1310 680 1310 764 1310 c 0,14,15
 776 1310 776 1310 790.5 1309 c 128,-1,16
 805 1308 805 1308 823 1305 c 1,17,-1
 823 1199 l 1,0,1
EndSplineSet
EndChar

StartChar: uni02B7
Encoding: 695 695 186
Width: 1233
Flags: W
LayerCount: 2
Back
Fore
SplineSet
143 1295 m 1,0,-1
 259 1295 l 1,1,-1
 404 806 l 1,2,-1
 548 1295 l 1,3,-1
 685 1295 l 1,4,-1
 830 806 l 1,5,-1
 974 1295 l 1,6,-1
 1090 1295 l 1,7,-1
 905 668 l 1,8,-1
 769 668 l 1,9,-1
 617 1182 l 1,10,-1
 464 668 l 1,11,-1
 328 668 l 1,12,-1
 143 1295 l 1,0,-1
EndSplineSet
EndChar

StartChar: uni02B8
Encoding: 696 696 187
Width: 1233
Flags: W
LayerCount: 2
Back
Fore
SplineSet
650 610 m 2,0,1
 601 498 601 498 554.5 463.5 c 128,-1,2
 508 429 508 429 429 429 c 2,3,-1
 337 429 l 1,4,-1
 337 516 l 1,5,-1
 405 516 l 2,6,7
 453 516 453 516 479.5 536 c 128,-1,8
 506 556 506 556 538 631 c 2,9,-1
 559 678 l 1,10,-1
 273 1295 l 1,11,-1
 396 1295 l 1,12,-1
 616 805 l 1,13,-1
 837 1295 l 1,14,-1
 960 1295 l 1,15,-1
 650 610 l 2,0,1
EndSplineSet
EndChar

StartChar: dotaccent
Encoding: 729 729 188
Width: 1233
Flags: W
LayerCount: 2
Back
Fore
SplineSet
513 1552 m 1,0,-1
 718 1552 l 1,1,-1
 718 1348 l 1,2,-1
 513 1348 l 1,3,-1
 513 1552 l 1,0,-1
EndSplineSet
EndChar

StartChar: ring
Encoding: 730 730 189
Width: 1233
Flags: W
LayerCount: 2
Back
Fore
SplineSet
891 1524 m 256,0,1
 891 1409 891 1409 811.5 1329 c 128,-1,2
 732 1249 732 1249 616 1249 c 0,3,4
 501 1249 501 1249 421.5 1329 c 128,-1,5
 342 1409 342 1409 342 1524 c 256,6,7
 342 1639 342 1639 421.5 1718.5 c 128,-1,8
 501 1798 501 1798 616 1798 c 0,9,10
 732 1798 732 1798 811.5 1718.5 c 128,-1,11
 891 1639 891 1639 891 1524 c 256,0,1
768 1524 m 0,12,13
 768 1587 768 1587 724 1631 c 128,-1,14
 680 1675 680 1675 616 1675 c 256,15,16
 552 1675 552 1675 508.5 1631.5 c 128,-1,17
 465 1588 465 1588 465 1524 c 0,18,19
 465 1459 465 1459 508.5 1415.5 c 128,-1,20
 552 1372 552 1372 616 1372 c 256,21,22
 680 1372 680 1372 724 1416 c 128,-1,23
 768 1460 768 1460 768 1524 c 0,12,13
EndSplineSet
EndChar

StartChar: uni02F3
Encoding: 755 755 190
Width: 1233
Flags: W
LayerCount: 2
Back
Fore
SplineSet
836 -282 m 256,0,1
 836 -374 836 -374 772.5 -438 c 0,2,3
 709 -502 709 -502 616 -502 c 0,4,5
 524 -502 524 -502 460.5 -438 c 0,6,7
 397 -374 397 -374 397 -282 c 256,8,9
 397 -190 397 -190 460.5 -126.5 c 0,10,11
 524 -63 524 -63 616 -63 c 0,12,13
 709 -63 709 -63 772.5 -126.5 c 0,14,15
 836 -190 836 -190 836 -282 c 256,0,1
738 -282 m 0,16,17
 738 -232 738 -232 702.5 -196.5 c 0,18,19
 667 -161 667 -161 616 -161 c 256,20,21
 565 -161 565 -161 530 -196 c 0,22,23
 495 -231 495 -231 495 -282 c 0,24,25
 495 -334 495 -334 530 -369 c 0,26,27
 565 -404 565 -404 616 -404 c 256,28,29
 667 -404 667 -404 702.5 -368.5 c 0,30,31
 738 -333 738 -333 738 -282 c 0,16,17
EndSplineSet
EndChar

StartChar: uni0394
Encoding: 916 916 194
Width: 1233
Flags: W
LayerCount: 2
Back
Fore
SplineSet
938 170 m 1,0,-1
 616 1315 l 1,1,-1
 294 170 l 1,2,-1
 938 170 l 1,0,-1
1196 0 m 1,3,-1
 37 0 l 1,4,-1
 494 1493 l 1,5,-1
 739 1493 l 1,6,-1
 1196 0 l 1,3,-1
EndSplineSet
EndChar

StartChar: Theta
Encoding: 920 920 198
Width: 1233
Flags: W
LayerCount: 2
Back
Fore
SplineSet
816 711 m 1,0,-1
 417 711 l 1,1,-1
 417 881 l 1,2,-1
 816 881 l 1,3,-1
 816 711 l 1,0,-1
905 745 m 256,4,5
 905 1074 905 1074 837.5 1215 c 128,-1,6
 770 1356 770 1356 616 1356 c 0,7,8
 463 1356 463 1356 395.5 1215 c 128,-1,9
 328 1074 328 1074 328 745 c 0,10,11
 328 417 328 417 395.5 276 c 128,-1,12
 463 135 463 135 616 135 c 0,13,14
 770 135 770 135 837.5 275.5 c 128,-1,15
 905 416 905 416 905 745 c 256,4,5
1116 745 m 0,16,17
 1116 355 1116 355 992.5 163 c 128,-1,18
 869 -29 869 -29 616 -29 c 256,19,20
 363 -29 363 -29 240 162 c 128,-1,21
 117 353 117 353 117 745 c 0,22,23
 117 1136 117 1136 240.5 1328 c 128,-1,24
 364 1520 364 1520 616 1520 c 0,25,26
 869 1520 869 1520 992.5 1328 c 128,-1,27
 1116 1136 1116 1136 1116 745 c 0,16,17
EndSplineSet
EndChar

StartChar: Lambda
Encoding: 923 923 201
Width: 1233
Flags: W
LayerCount: 2
Back
Fore
SplineSet
246 0 m 1,0,-1
 37 0 l 1,1,-1
 494 1493 l 1,2,-1
 739 1493 l 1,3,-1
 1196 0 l 1,4,-1
 987 0 l 1,5,-1
 616 1315 l 1,6,-1
 246 0 l 1,0,-1
EndSplineSet
EndChar

StartChar: Xi
Encoding: 926 926 204
Width: 1233
Flags: W
LayerCount: 2
Back
Fore
SplineSet
1096 1493 m 1,0,-1
 1096 1323 l 1,1,-1
 137 1323 l 1,2,-1
 137 1493 l 1,3,-1
 1096 1493 l 1,0,-1
893 711 m 1,4,-1
 340 711 l 1,5,-1
 340 881 l 1,6,-1
 893 881 l 1,7,-1
 893 711 l 1,4,-1
1096 170 m 1,8,-1
 1096 0 l 1,9,-1
 137 0 l 1,10,-1
 137 170 l 1,11,-1
 1096 170 l 1,8,-1
EndSplineSet
EndChar

StartChar: Sigma
Encoding: 931 931 208
Width: 1233
Flags: W
LayerCount: 2
Back
Fore
SplineSet
786 747 m 1,0,-1
 331 170 l 1,1,-1
 1133 170 l 1,2,-1
 1133 0 l 1,3,-1
 120 0 l 1,4,-1
 120 170 l 1,5,-1
 574 747 l 1,6,-1
 120 1323 l 1,7,-1
 120 1493 l 1,8,-1
 1133 1493 l 1,9,-1
 1133 1323 l 1,10,-1
 331 1323 l 1,11,-1
 786 747 l 1,0,-1
EndSplineSet
EndChar

StartChar: Phi
Encoding: 934 934 211
Width: 1233
Flags: W
LayerCount: 2
Back
Fore
SplineSet
717 1323 m 1,0,-1
 717 1205 l 1,1,2
 893 1186 893 1186 990 1095 c 0,3,4
 1114 980 1114 980 1114 745 c 256,5,6
 1114 510 1114 510 991 395 c 0,7,8
 894 305 894 305 717 286 c 1,9,-1
 717 170 l 1,10,-1
 864 170 l 1,11,-1
 864 0 l 1,12,-1
 367 0 l 1,13,-1
 367 170 l 1,14,-1
 514 170 l 1,15,-1
 514 286 l 1,16,17
 337 305 337 305 240 395 c 0,18,19
 117 510 117 510 117 745 c 256,20,21
 117 980 117 980 240 1095 c 0,22,23
 338 1186 338 1186 514 1205 c 1,24,-1
 514 1323 l 1,25,-1
 367 1323 l 1,26,-1
 367 1493 l 1,27,-1
 864 1493 l 1,28,-1
 864 1323 l 1,29,-1
 717 1323 l 1,0,-1
717 462 m 1,30,31
 793 478 793 478 836 520 c 0,32,33
 903 588 903 588 903 745 c 0,34,35
 903 903 903 903 836 971 c 0,36,37
 793 1013 793 1013 717 1029 c 1,38,-1
 717 462 l 1,30,31
514 462 m 1,39,-1
 514 1029 l 1,40,41
 438 1013 438 1013 396 971 c 0,42,43
 328 903 328 903 328 745 c 0,44,45
 328 588 328 588 396 520 c 0,46,47
 438 478 438 478 514 462 c 1,39,-1
EndSplineSet
EndChar

StartChar: Psi
Encoding: 936 936 213
Width: 1233
Flags: W
LayerCount: 2
Back
Fore
SplineSet
717 1493 m 1,0,-1
 717 560 l 1,1,2
 790 594 790 594 836 681 c 0,3,4
 911 826 911 826 911 1150 c 2,5,-1
 911 1493 l 1,6,-1
 1114 1493 l 1,7,-1
 1114 1150 l 2,8,9
 1114 758 1114 758 991 567 c 0,10,11
 893 416 893 416 717 384 c 1,12,-1
 717 170 l 1,13,-1
 864 170 l 1,14,-1
 864 0 l 1,15,-1
 367 0 l 1,16,-1
 367 170 l 1,17,-1
 514 170 l 1,18,-1
 514 384 l 1,19,20
 338 416 338 416 240 567 c 0,21,22
 117 758 117 758 117 1150 c 2,23,-1
 117 1493 l 1,24,-1
 320 1493 l 1,25,-1
 320 1150 l 2,26,27
 320 826 320 826 396 681 c 0,28,29
 441 594 441 594 514 560 c 1,30,-1
 514 1493 l 1,31,-1
 717 1493 l 1,0,-1
EndSplineSet
EndChar

StartChar: Omega
Encoding: 937 937 214
Width: 1233
Flags: W
LayerCount: 2
Back
Fore
SplineSet
74 0 m 1,0,-1
 74 172 l 1,1,-1
 319 172 l 1,2,3
 196 306 196 306 141 450 c 128,-1,4
 86 594 86 594 86 782 c 0,5,6
 86 1093 86 1093 230 1276.5 c 128,-1,7
 374 1460 374 1460 614 1460 c 0,8,9
 856 1460 856 1460 1000.5 1277 c 128,-1,10
 1145 1094 1145 1094 1145 782 c 0,11,12
 1145 594 1145 594 1089.5 449.5 c 128,-1,13
 1034 305 1034 305 911 172 c 1,14,-1
 1159 172 l 1,15,-1
 1159 0 l 1,16,-1
 696 0 l 1,17,-1
 696 172 l 1,18,19
 816 248 816 248 883 412.5 c 128,-1,20
 950 577 950 577 950 799 c 0,21,22
 950 1029 950 1029 860 1161.5 c 128,-1,23
 770 1294 770 1294 616 1294 c 256,24,25
 462 1294 462 1294 372.5 1161.5 c 128,-1,26
 283 1029 283 1029 283 799 c 0,27,28
 283 577 283 577 350 412.5 c 128,-1,29
 417 248 417 248 537 172 c 1,30,-1
 537 0 l 1,31,-1
 74 0 l 1,0,-1
EndSplineSet
EndChar

StartChar: alpha
Encoding: 945 945 215
Width: 1233
Flags: W
LayerCount: 2
Back
Fore
SplineSet
766 521 m 1,0,-1
 722 752 l 2,1,2
 677 988 677 988 500 989 c 0,3,4
 402 990 402 990 341 879 c 0,5,6
 264 742 264 742 264 559 c 0,7,8
 264 339 264 339 338 234 c 0,9,10
 415 127 415 127 500 127 c 0,11,12
 633 127 633 127 705 340 c 2,13,-1
 766 521 l 1,0,-1
869 827 m 1,15,-1
 968 1120 l 1,16,-1
 1132 1120 l 1,17,-1
 927 513 l 1,18,-1
 967 294 l 2,19,20
 976 245 976 245 1011 204 c 0,21,22
 1052 156 1052 156 1084 156 c 2,23,-1
 1172 156 l 1,24,-1
 1172 0 l 1,25,-1
 1062 0 l 2,26,27
 968 0 968 0 884 84 c 0,28,29
 843 126 843 126 826 214 c 1,30,31
 780 105 780 105 688 16 c 0,32,33
 643 -26 643 -26 500 -25 c 0,34,35
 302 -23 302 -23 188 127 c 0,36,37
 70 283 70 283 70 559 c 0,38,39
 70 856 70 856 196 991 c 0,40,41
 339 1142 339 1142 500 1145 c 0,42,14
 810 1150 810 1150 869 827 c 1,15,-1
EndSplineSet
EndChar

StartChar: beta
Encoding: 946 946 216
Width: 1233
Flags: W
LayerCount: 2
Back
Fore
SplineSet
337 69 m 1,0,-1
 337 -426 l 1,1,-1
 152 -426 l 1,2,-1
 152 1113 l 2,3,4
 152 1600 152 1600 613 1569 c 0,5,6
 1012 1542 1012 1542 1012 1184 c 0,7,8
 1011 908 1011 908 840 810 c 1,9,10
 1118 756 1118 756 1120 453 c 0,11,12
 1124 2 1124 2 638 -21 c 0,13,14
 508 -27 508 -27 337 69 c 1,0,-1
337 342 m 1,15,16
 418 201 418 201 645 180 c 0,17,18
 933 155 933 155 933 450 c 0,19,20
 933 732 933 732 469 710 c 1,21,-1
 469 880 l 1,22,23
 832 874 832 874 832 1178 c 0,24,25
 832 1367 832 1367 598 1380 c 0,26,27
 337 1395 337 1395 337 1107 c 2,28,-1
 337 342 l 1,15,16
EndSplineSet
EndChar

StartChar: gamma
Encoding: 947 947 217
Width: 1233
Flags: W
LayerCount: 2
Back
Fore
SplineSet
220 836 m 2,0,1
 175 962 175 962 81 962 c 2,2,-1
 32 962 l 1,3,-1
 32 1120 l 1,4,-1
 102 1120 l 2,5,6
 296 1120 296 1120 361 944 c 2,7,-1
 616 259 l 1,8,-1
 942 1120 l 1,9,-1
 1133 1120 l 1,10,-1
 712 0 l 1,11,-1
 712 -426 l 1,12,-1
 522 -426 l 1,13,-1
 522 0 l 1,14,-1
 220 836 l 2,0,1
EndSplineSet
EndChar

StartChar: delta
Encoding: 948 948 218
Width: 1233
Flags: W
LayerCount: 2
Back
Fore
SplineSet
616 991 m 0,0,1
 476 991 476 991 404 882 c 128,-1,2
 332 773 332 773 332 559 c 0,3,4
 332 346 332 346 404 236.5 c 128,-1,5
 476 127 476 127 616 127 c 0,6,7
 757 127 757 127 829 236.5 c 128,-1,8
 901 346 901 346 901 559 c 0,9,10
 901 773 901 773 829 882 c 128,-1,11
 757 991 757 991 616 991 c 0,0,1
334 1067 m 1,12,13
 315 1076 315 1076 275 1116 c 0,14,15
 213 1177 213 1177 213 1269 c 0,16,17
 213 1405 213 1405 331.5 1487 c 128,-1,18
 450 1569 450 1569 647 1569 c 0,19,20
 749 1569 749 1569 799 1557 c 2,21,-1
 950 1521 l 1,22,-1
 950 1348 l 1,23,24
 884 1372 884 1372 814 1387 c 0,25,26
 729 1404 729 1404 647 1402 c 2,27,-1
 615 1401 l 2,28,29
 542 1399 542 1399 482 1356 c 2,30,-1
 443 1328 l 2,31,32
 416 1304 416 1304 416 1258 c 0,33,34
 416 1225 416 1225 429 1206 c 0,35,36
 446 1182 446 1182 487 1161 c 0,37,38
 511 1148 511 1148 616 1147 c 0,39,40
 851 1144 851 1144 972 996 c 0,41,42
 1096 845 1096 845 1096 559 c 0,43,44
 1096 272 1096 272 973 121.5 c 128,-1,45
 850 -29 850 -29 616 -29 c 0,46,47
 383 -29 383 -29 260 121.5 c 128,-1,48
 137 272 137 272 137 559 c 0,49,50
 137 845 137 845 260 996 c 0,51,52
 291 1034 291 1034 334 1067 c 1,12,13
EndSplineSet
EndChar

StartChar: epsilon
Encoding: 949 949 219
Width: 1233
Flags: W
LayerCount: 2
Back
Fore
SplineSet
449 607 m 1,0,1
 330 632 330 632 265 697 c 0,2,3
 201 761 201 761 201 855 c 0,4,5
 201 989 201 989 323 1068 c 0,6,7
 445 1147 445 1147 654 1147 c 0,8,9
 735 1147 735 1147 826 1135 c 0,10,11
 918 1123 918 1123 1023 1099 c 1,12,-1
 1023 932 l 1,13,14
 919 959 919 959 832 972 c 0,15,16
 746 984 746 984 670 984 c 0,17,18
 532 984 532 984 458 941 c 0,19,20
 384 898 384 898 384 824 c 0,21,22
 384 763 384 763 456 720 c 0,23,24
 528 676 528 676 663 676 c 2,25,-1
 829 676 l 1,26,-1
 829 532 l 1,27,-1
 670 532 l 2,28,29
 520 532 520 532 436 477 c 0,30,31
 352 422 352 422 352 341 c 0,32,33
 352 243 352 243 442 190 c 0,34,35
 533 138 533 138 706 138 c 0,36,37
 805 138 805 138 896 156 c 0,38,39
 987 173 987 173 1064 207 c 1,40,-1
 1064 34 l 1,41,42
 967 6 967 6 877 -8 c 0,43,44
 786 -22 786 -22 700 -22 c 0,45,46
 446 -22 446 -22 307 69 c 0,47,48
 169 161 169 161 169 327 c 0,49,50
 169 436 169 436 243 510 c 0,51,52
 317 584 317 584 449 607 c 1,0,1
EndSplineSet
EndChar

StartChar: zeta
Encoding: 950 950 220
Width: 1233
Flags: W
LayerCount: 2
Back
Fore
SplineSet
760 127 m 0,0,1
 892 126 892 126 971 51 c 0,2,3
 1055 -28 1055 -28 1055 -148 c 0,4,5
 1055 -263 1055 -263 981 -343 c 0,6,7
 901 -430 901 -430 738 -430 c 1,8,9
 738 -355 738 -355 738 -279 c 1,10,11
 807 -284 807 -284 849 -240 c 0,12,13
 881 -205 881 -205 881 -168 c 0,14,15
 881 -115 881 -115 849 -71 c 0,16,17
 818 -29 818 -29 760 -29 c 0,18,19
 173 -29 173 -29 153 534 c 0,20,21
 136 1014 136 1014 724 1371 c 1,22,-1
 192 1371 l 1,23,-1
 192 1556 l 1,24,-1
 1062 1556 l 1,25,-1
 1062 1371 l 1,26,27
 292 956 292 956 338 534 c 0,28,29
 382 127 382 127 760 127 c 0,0,1
EndSplineSet
EndChar

StartChar: eta
Encoding: 951 951 221
Width: 1233
Flags: W
LayerCount: 2
Back
Fore
SplineSet
1051 694 m 2,0,-1
 1051 -426 l 1,1,-1
 866 -426 l 1,2,-1
 866 694 l 2,3,4
 866 845 866 845 813 916 c 128,-1,5
 760 987 760 987 647 987 c 0,6,7
 518 987 518 987 448.5 895.5 c 128,-1,8
 379 804 379 804 379 633 c 2,9,-1
 379 0 l 1,10,-1
 195 0 l 1,11,-1
 195 1120 l 1,12,-1
 379 1120 l 1,13,-1
 379 952 l 1,14,15
 428 1048 428 1048 512 1097.5 c 128,-1,16
 596 1147 596 1147 711 1147 c 0,17,18
 882 1147 882 1147 966.5 1034.5 c 128,-1,19
 1051 922 1051 922 1051 694 c 2,0,-1
EndSplineSet
EndChar

StartChar: theta
Encoding: 952 952 222
Width: 1233
Flags: W
LayerCount: 2
Back
Fore
SplineSet
899 828 m 1,0,1
 892 1054 892 1054 829 1189 c 0,2,3
 757 1342 757 1342 616 1342 c 0,4,5
 476 1342 476 1342 404 1189 c 0,6,7
 341 1054 341 1054 334 828 c 1,8,-1
 899 828 l 1,0,1
899 644 m 1,9,-1
 334 644 l 1,10,11
 340 420 340 420 404 283 c 0,12,13
 476 129 476 129 616 129 c 0,14,15
 757 129 757 129 829 283 c 0,16,17
 893 420 893 420 899 644 c 1,9,-1
616 1500 m 256,18,19
 849 1500 849 1500 972.5 1303.5 c 128,-1,20
 1096 1107 1096 1107 1096 736 c 0,21,22
 1096 362 1096 362 973 166.5 c 128,-1,23
 850 -29 850 -29 616 -29 c 0,24,25
 383 -29 383 -29 260 166.5 c 128,-1,26
 137 362 137 362 137 736 c 0,27,28
 137 1107 137 1107 260 1303.5 c 128,-1,29
 383 1500 383 1500 616 1500 c 256,18,19
EndSplineSet
EndChar

StartChar: iota
Encoding: 953 953 223
Width: 1233
Flags: W
LayerCount: 2
Back
Fore
SplineSet
708 1120 m 1,0,-1
 708 395 l 2,1,2
 708 250 708 250 742 204 c 0,3,4
 778 156 778 156 886 156 c 2,5,-1
 975 156 l 1,6,-1
 975 0 l 1,7,-1
 864 0 l 2,8,9
 684 0 684 0 602 96 c 0,10,11
 521 194 521 194 520 406 c 2,12,-1
 520 977 l 1,13,-1
 310 977 l 1,14,-1
 310 1120 l 1,15,-1
 708 1120 l 1,0,-1
EndSplineSet
EndChar

StartChar: kappa
Encoding: 954 954 224
Width: 1233
Flags: W
LayerCount: 2
Back
Fore
SplineSet
236 1120 m 1,0,-1
 426 1120 l 1,1,-1
 426 655 l 1,2,-1
 909 1120 l 1,3,-1
 1133 1120 l 1,4,-1
 692 698 l 1,5,-1
 1202 0 l 1,6,-1
 977 0 l 1,7,-1
 563 578 l 1,8,-1
 426 449 l 1,9,-1
 426 0 l 1,10,-1
 236 0 l 1,11,-1
 236 1120 l 1,0,-1
EndSplineSet
EndChar

StartChar: lambda
Encoding: 955 955 225
Width: 1233
Flags: W
LayerCount: 2
Back
Fore
SplineSet
642 1381 m 2,0,-1
 1158 0 l 1,1,-1
 963 0 l 1,2,-1
 649 828 l 1,3,-1
 263 0 l 1,4,-1
 68 0 l 1,5,-1
 559 1074 l 1,6,-1
 485 1272 l 2,7,8
 438 1399 438 1399 284 1398 c 2,9,-1
 235 1398 l 1,10,-1
 235 1556 l 1,11,-1
 305 1554 l 2,12,13
 579 1547 579 1547 642 1381 c 2,0,-1
EndSplineSet
EndChar

StartChar: uni03BC
Encoding: 956 956 226
Width: 1233
Flags: W
LayerCount: 2
Back
Fore
SplineSet
195 -428 m 1,0,-1
 195 1120 l 1,1,-1
 379 1120 l 1,2,-1
 379 424 l 2,3,4
 379 282 379 282 439 206.5 c 0,5,6
 499 131 499 131 610 131 c 0,7,8
 737 131 737 131 801.5 216 c 0,9,10
 866 301 866 301 866 467 c 2,11,-1
 866 1120 l 1,12,-1
 1051 1120 l 1,13,-1
 1051 256 l 2,14,15
 1051 197 1051 197 1067 169 c 0,16,17
 1083 141 1083 141 1116 141 c 0,18,19
 1125 141 1125 141 1139.5 146 c 0,20,21
 1154 151 1154 151 1182 164 c 1,22,-1
 1182 16 l 1,23,24
 1144 -7 1144 -7 1110 -18 c 0,25,26
 1076 -29 1076 -29 1042 -29 c 0,27,28
 980 -29 980 -29 942.5 10.5 c 0,29,30
 905 50 905 50 893 129 c 1,31,32
 847 49 847 49 780.5 10 c 0,33,34
 714 -29 714 -29 625 -29 c 0,35,36
 533 -29 533 -29 469.5 9 c 0,37,38
 406 47 406 47 362 127 c 1,39,-1
 362 -428 l 1,40,-1
 195 -428 l 1,0,-1
EndSplineSet
EndChar

StartChar: nu
Encoding: 957 957 227
Width: 1233
Flags: W
LayerCount: 2
Back
Fore
SplineSet
458 0 m 1,0,-1
 116 1120 l 1,1,-1
 314 1120 l 1,2,-1
 603 180 l 1,3,4
 723 304 723 304 823 476 c 0,5,6
 899 605 899 605 903 717 c 0,7,8
 905 770 905 770 881 870 c 0,9,10
 853 989 853 989 747 1120 c 1,11,-1
 933 1120 l 1,12,-1
 933 1120 l 1,13,14
 1002 1031 1002 1031 1048 907 c 0,15,16
 1090 793 1090 793 1090 715 c 0,17,18
 1090 519 1090 519 954 344 c 0,19,20
 777 116 777 116 654 0 c 1,21,-1
 458 0 l 1,0,-1
EndSplineSet
EndChar

StartChar: xi
Encoding: 958 958 228
Width: 1233
Flags: W
LayerCount: 2
Back
Fore
SplineSet
785 127 m 0,0,1
 917 126 917 126 996 51 c 0,2,3
 1080 -28 1080 -28 1080 -148 c 0,4,5
 1080 -263 1080 -263 1006 -343 c 0,6,7
 926 -430 926 -430 763 -430 c 1,8,9
 763 -355 763 -355 763 -279 c 1,10,11
 832 -284 832 -284 874 -240 c 0,12,13
 906 -205 906 -205 906 -168 c 0,14,15
 906 -115 906 -115 874 -71 c 0,16,17
 842 -29 842 -29 785 -29 c 0,18,19
 163 -29 163 -29 162 452 c 0,20,21
 162 684 162 684 495 796 c 1,22,23
 215 832 215 832 215 1092 c 0,24,25
 215 1289 215 1289 435 1371 c 1,26,-1
 227 1371 l 1,27,-1
 227 1556 l 1,28,-1
 1016 1556 l 1,29,-1
 1016 1371 l 1,30,31
 387 1371 387 1371 387 1080 c 0,32,33
 387 889 387 889 915 880 c 1,34,-1
 915 710 l 1,35,36
 346 672 346 672 347 452 c 0,37,38
 349 131 349 131 785 127 c 0,0,1
EndSplineSet
EndChar

StartChar: pi
Encoding: 960 960 230
Width: 1233
Flags: W
LayerCount: 2
Back
Fore
SplineSet
80 1120 m 1,0,-1
 1153 1120 l 1,1,-1
 1153 936 l 1,2,-1
 1012 936 l 1,3,-1
 1012 248 l 2,4,5
 1012 176 1012 176 1036.5 144.5 c 128,-1,6
 1061 113 1061 113 1116 113 c 0,7,8
 1131 113 1131 113 1153 115.5 c 128,-1,9
 1175 118 1175 118 1182 119 c 1,10,-1
 1182 -14 l 1,11,12
 1147 -27 1147 -27 1110 -33 c 128,-1,13
 1073 -39 1073 -39 1036 -39 c 0,14,15
 923 -39 923 -39 877 26.5 c 128,-1,16
 831 92 831 92 831 268 c 2,17,-1
 831 936 l 1,18,-1
 403 936 l 1,19,-1
 403 0 l 1,20,-1
 223 0 l 1,21,-1
 223 936 l 1,22,-1
 80 936 l 1,23,-1
 80 1120 l 1,0,-1
EndSplineSet
EndChar

StartChar: rho
Encoding: 961 961 231
Width: 1233
Flags: W
LayerCount: 2
Back
Fore
SplineSet
644 1147 m 0,0,1
 876 1148 876 1148 992 990 c 0,2,3
 1108 833 1108 833 1108 555 c 0,4,5
 1108 282 1108 282 992 126.5 c 128,-1,6
 876 -29 876 -29 674 -29 c 0,7,8
 572 -29 572 -29 495.5 14.5 c 128,-1,9
 419 58 419 58 375 141 c 1,10,-1
 375 -426 l 1,11,-1
 190 -426 l 1,12,-1
 190 540 l 2,13,14
 190 856 190 856 300 990 c 0,15,16
 431 1147 431 1147 644 1147 c 0,0,1
915 559 m 256,17,18
 915 773 915 773 847.5 882 c 128,-1,19
 780 991 780 991 647 991 c 0,20,21
 513 991 513 991 444 881.5 c 128,-1,22
 375 772 375 772 375 559 c 0,23,24
 375 347 375 347 444 237 c 128,-1,25
 513 127 513 127 647 127 c 0,26,27
 780 127 780 127 847.5 236 c 128,-1,28
 915 345 915 345 915 559 c 256,17,18
EndSplineSet
EndChar

StartChar: sigma1
Encoding: 962 962 232
Width: 1233
Flags: W
LayerCount: 2
Back
Fore
SplineSet
748 127 m 0,0,1
 880 126 880 126 959 51 c 0,2,3
 1043 -28 1043 -28 1043 -148 c 0,4,5
 1043 -263 1043 -263 969 -343 c 0,6,7
 889 -430 889 -430 726 -430 c 1,8,9
 726 -355 726 -355 726 -279 c 1,10,11
 795 -284 795 -284 837 -240 c 0,12,13
 869 -205 869 -205 869 -168 c 0,14,15
 869 -115 869 -115 837 -71 c 0,16,17
 806 -29 806 -29 748 -29 c 0,18,19
 488 -29 488 -29 341.5 127 c 128,-1,20
 195 283 195 283 195 559 c 128,-1,21
 195 835 195 835 341.5 991 c 128,-1,22
 488 1147 488 1147 748 1147 c 0,23,24
 829 1147 829 1147 906 1126 c 128,-1,25
 983 1105 983 1105 1061 1061 c 1,26,-1
 1061 868 l 1,27,28
 988 933 988 933 914.5 962 c 128,-1,29
 841 991 841 991 748 991 c 0,30,31
 575 991 575 991 482 879 c 128,-1,32
 389 767 389 767 389 559 c 0,33,34
 389 350 389 350 482 240 c 0,35,36
 576 129 576 129 748 127 c 0,0,1
EndSplineSet
EndChar

StartChar: sigma
Encoding: 963 963 233
Width: 1233
Flags: W
LayerCount: 2
Back
Fore
SplineSet
609 935 m 1,0,1
 474 935 474 935 404 855 c 0,2,3
 332 772 332 772 332 559 c 256,4,5
 332 346 332 346 404 236.5 c 128,-1,6
 476 127 476 127 616 127 c 0,7,8
 757 127 757 127 829 236.5 c 128,-1,9
 901 346 901 346 901 492 c 0,10,11
 901 741 901 741 729 870 c 0,12,13
 669 915 669 915 609 935 c 1,0,1
890 936 m 1,14,15
 1096 774 1096 774 1096 492 c 0,16,17
 1096 264 1096 264 945 97 c 0,18,19
 831 -30 831 -30 616 -29 c 0,20,21
 383 -29 383 -29 260 121.5 c 128,-1,22
 137 272 137 272 137 559 c 0,23,24
 137 824 137 824 260 977 c 0,25,26
 375 1120 375 1120 616 1120 c 2,27,-1
 1131 1120 l 1,28,-1
 1131 936 l 1,29,-1
 890 936 l 1,14,15
EndSplineSet
EndChar

StartChar: tau
Encoding: 964 964 234
Width: 1233
Flags: W
LayerCount: 2
Back
Fore
SplineSet
742 204 m 0,0,1
 778 156 778 156 886 156 c 2,2,-1
 975 156 l 1,3,-1
 975 0 l 1,4,-1
 864 0 l 2,5,6
 684 0 684 0 602 96 c 0,7,8
 520 194 520 194 520 406 c 2,9,-1
 520 936 l 1,10,-1
 160 936 l 1,11,-1
 160 1118 l 1,12,-1
 1074 1118 l 1,13,-1
 1074 936 l 1,14,-1
 708 936 l 1,15,-1
 708 395 l 2,16,17
 708 250 708 250 742 204 c 0,0,1
EndSplineSet
EndChar

StartChar: upsilon
Encoding: 965 965 235
Width: 1233
Flags: W
LayerCount: 2
Back
Fore
SplineSet
628 156 m 0,0,1
 778 156 778 156 868 335 c 0,2,3
 927 453 927 453 942 640 c 0,4,5
 950 742 950 742 920 870 c 0,6,7
 892 989 892 989 786 1120 c 1,8,-1
 972 1120 l 1,9,-1
 972 1120 l 1,10,11
 1042 1030 1042 1030 1087 907 c 0,12,13
 1129 792 1129 792 1129 638 c 0,14,15
 1129 413 1129 413 1001 210 c 0,16,17
 868 -1 868 -1 606 0 c 0,18,19
 426 0 426 0 344 96 c 0,20,21
 262 194 262 194 262 406 c 2,22,-1
 261 977 l 1,23,-1
 51 977 l 1,24,-1
 51 1120 l 1,25,-1
 450 1120 l 1,26,-1
 450 395 l 2,27,28
 450 250 450 250 484 204 c 0,29,30
 519 156 519 156 628 156 c 0,0,1
EndSplineSet
EndChar

StartChar: phi
Encoding: 966 966 236
Width: 1233
Flags: W
LayerCount: 2
Back
Fore
SplineSet
773 971 m 0,0,1
 708 971 708 971 708 826 c 2,2,-1
 708 140 l 1,3,4
 800 140 800 140 886 244 c 0,5,6
 963 337 963 337 963 560 c 0,7,8
 963 781 963 781 886 880 c 0,9,10
 815 971 815 971 773 971 c 0,0,1
773 1128 m 0,11,12
 911 1128 911 1128 1030 996 c 0,13,14
 1157 855 1157 855 1157 560 c 0,15,16
 1157 278 1157 278 1030 128 c 0,17,18
 901 -24 901 -24 708 -24 c 1,19,-1
 708 -426 l 1,20,-1
 525 -426 l 1,21,-1
 525 -25 l 1,22,23
 326 -25 326 -25 202 128 c 0,24,25
 76 283 76 283 76 559 c 0,26,27
 76 859 76 859 202 991 c 0,28,29
 306 1100 306 1100 460 1128 c 1,30,-1
 460 965 l 1,31,32
 395 939 395 939 346 864 c 0,33,34
 270 749 270 749 270 559 c 0,35,36
 270 343 270 343 346 242 c 0,37,38
 424 139 424 139 525 139 c 1,39,-1
 525 826 l 2,40,41
 525 1128 525 1128 773 1128 c 0,11,12
EndSplineSet
EndChar

StartChar: chi
Encoding: 967 967 237
Width: 1233
Flags: W
LayerCount: 2
Back
Fore
SplineSet
750 -250 m 2,0,-1
 608 128 l 1,1,-1
 343 -426 l 1,2,-1
 152 -426 l 1,3,-1
 524 351 l 1,4,-1
 341 836 l 2,5,6
 294 962 294 962 138 962 c 2,7,-1
 89 962 l 1,8,-1
 89 1120 l 1,9,-1
 159 1120 l 2,10,11
 415 1120 415 1120 482 944 c 2,12,-1
 625 564 l 1,13,-1
 891 1120 l 1,14,-1
 1082 1120 l 1,15,-1
 709 340 l 1,16,-1
 891 -142 l 2,17,18
 938 -268 938 -268 1095 -268 c 2,19,-1
 1144 -268 l 1,20,-1
 1144 -426 l 1,21,-1
 1074 -426 l 2,22,23
 817 -426 817 -426 750 -250 c 2,0,-1
EndSplineSet
EndChar

StartChar: psi
Encoding: 968 968 238
Width: 1233
Flags: W
LayerCount: 2
Back
Fore
SplineSet
708 140 m 1,0,1
 771 162 771 162 833 226 c 0,2,3
 917 313 917 313 917 479 c 2,4,-1
 917 1120 l 1,5,-1
 1102 1120 l 1,6,-1
 1102 472 l 2,7,8
 1102 256 1102 256 972 111 c 0,9,10
 851 -24 851 -24 708 -25 c 1,11,-1
 708 -426 l 1,12,-1
 525 -426 l 1,13,-1
 525 -25 l 1,14,15
 382 -24 382 -24 261 111 c 0,16,17
 131 256 131 256 131 472 c 2,18,-1
 131 1120 l 1,19,-1
 316 1120 l 1,20,-1
 316 479 l 2,21,22
 316 313 316 313 400 226 c 0,23,24
 462 162 462 162 525 140 c 1,25,-1
 525 1120 l 1,26,-1
 708 1120 l 1,27,-1
 708 140 l 1,0,1
EndSplineSet
EndChar

StartChar: omega
Encoding: 969 969 239
Width: 1233
Flags: W
LayerCount: 2
Back
Fore
SplineSet
1033 1120 m 1,0,1
 1164 856 1164 856 1164 567.5 c 128,-1,2
 1164 279 1164 279 1114 156 c 0,3,4
 1039 -29 1039 -29 853 -29 c 0,5,6
 768 -29 768 -29 703 22.5 c 128,-1,7
 638 74 638 74 617 150 c 1,8,9
 597 78 597 78 533 24.5 c 128,-1,10
 469 -29 469 -29 381 -29 c 0,11,12
 195 -29 195 -29 120 156 c 0,13,14
 70 279 70 279 70 567.5 c 128,-1,15
 70 856 70 856 201 1120 c 1,16,-1
 391 1120 l 1,17,18
 265 845 265 845 265 558 c 0,19,20
 264 332 264 332 282 270 c 0,21,22
 323 125 323 125 387 127 c 0,23,24
 473 129 473 129 507 240 c 0,25,26
 532 322 532 322 532 699 c 1,27,-1
 702 699 l 1,28,29
 702 322 702 322 727 240 c 0,30,31
 761 129 761 129 847 127 c 0,32,33
 911 125 911 125 952 270 c 0,34,35
 970 332 970 332 969 558 c 0,36,37
 969 845 969 845 843 1120 c 1,38,-1
 1033 1120 l 1,0,1
EndSplineSet
EndChar

StartChar: uni03DD
Encoding: 989 989 240
Width: 1233
Flags: W
LayerCount: 2
Back
Fore
SplineSet
430 0 m 2,0,-1
 430 1154 l 2,1,2
 430 1314 430 1314 566 1456 c 0,3,4
 662 1556 662 1556 831 1556 c 0,5,6
 880 1556 880 1556 929.5 1547 c 128,-1,7
 979 1538 979 1538 1030 1520 c 1,8,-1
 1030 1356 l 1,9,10
 994 1384 994 1384 953 1398.5 c 128,-1,11
 912 1413 912 1413 868 1413 c 0,12,13
 748 1413 748 1413 690 1351 c 0,14,15
 615 1270 615 1270 615 1159 c 2,16,-1
 615 848 l 1,17,-1
 936 848 l 1,18,-1
 936 705 l 1,19,-1
 615 705 l 1,20,-1
 615 0 l 2,21,22
 615 -146 615 -146 476 -311 c 0,23,24
 378 -426 378 -426 205 -426 c 0,25,26
 148 -426 148 -426 97 -415.5 c 128,-1,27
 46 -405 46 -405 0 -383 c 1,28,-1
 0 -219 l 1,29,30
 49 -250 49 -250 99 -266.5 c 128,-1,31
 149 -283 149 -283 197 -283 c 0,32,33
 284 -283 284 -283 348 -208 c 0,34,35
 430 -113 430 -113 430 0 c 2,0,-1
EndSplineSet
EndChar

StartChar: uni03FF
Encoding: 1023 1023 242
Width: 1233
Flags: W
LayerCount: 2
Back
Fore
SplineSet
139 53 m 1
 139 260 l 1
 212 199 212 199 296.5 167 c 0
 381 135 381 135 469 135 c 0
 666 135 666 135 764 287 c 0
 862 439 862 439 862 745 c 0
 862 1052 862 1052 764 1204 c 0
 666 1356 666 1356 469 1356 c 0
 383 1356 383 1356 298 1324 c 0
 213 1292 213 1292 139 1231 c 1
 139 1438 l 1
 216 1479 216 1479 297 1499.5 c 0
 378 1520 378 1520 469 1520 c 0
 754 1520 754 1520 913.5 1315.5 c 0
 1073 1111 1073 1111 1073 745 c 0
 1073 377 1073 377 914.5 174 c 0
 756 -29 756 -29 469 -29 c 0
 378 -29 378 -29 297 -8.5 c 0
 216 12 216 12 139 53 c 1
EndSplineSet
Refer: 112 183 N 1 0 0 1 -156 0 3
EndChar

StartChar: uni0401
Encoding: 1025 1025 243
Width: 1233
Flags: W
LayerCount: 2
Back
Fore
SplineSet
375 1870 m 1
 578 1870 l 1
 578 1667 l 1
 375 1667 l 1
 375 1870 l 1
767 1870 m 1
 969 1870 l 1
 969 1667 l 1
 767 1667 l 1
 767 1870 l 1
EndSplineSet
Refer: 37 69 N 1 0 0 1 0 0 2
EndChar

StartChar: uni0411
Encoding: 1041 1041 245
Width: 1233
Flags: W
LayerCount: 2
Back
Fore
SplineSet
369 713 m 1,0,-1
 369 166 l 1,1,-1
 608 166 l 2,2,3
 784 166 784 166 859 227.5 c 128,-1,4
 934 289 934 289 934 430 c 0,5,6
 934 576 934 576 855 644.5 c 128,-1,7
 776 713 776 713 608 713 c 2,8,-1
 369 713 l 1,0,-1
1068 1327 m 1,9,-1
 369 1327 l 1,10,-1
 369 877 l 1,11,-1
 604 877 l 1,12,13
 983 862 983 862 1084 671 c 0,14,15
 1137 571 1137 571 1137 410 c 0,16,17
 1137 207 1137 207 1004 104 c 0,18,19
 871 0 871 0 608 0 c 2,20,-1
 166 0 l 1,21,-1
 166 1493 l 1,22,-1
 1068 1493 l 1,23,-1
 1068 1327 l 1,9,-1
EndSplineSet
EndChar

StartChar: uni0413
Encoding: 1043 1043 247
Width: 1233
Flags: W
LayerCount: 2
Back
Fore
SplineSet
215 0 m 1,0,-1
 215 1493 l 1,1,-1
 1139 1493 l 1,2,-1
 1139 1323 l 1,3,-1
 418 1323 l 1,4,-1
 418 0 l 1,5,-1
 215 0 l 1,0,-1
EndSplineSet
EndChar

StartChar: uni0414
Encoding: 1044 1044 248
Width: 1233
Flags: W
LayerCount: 2
Back
Fore
SplineSet
1079 170 m 1,0,-1
 1200 170 l 1,1,-1
 1200 -322 l 1,2,-1
 1030 -322 l 1,3,-1
 1030 0 l 1,4,-1
 203 0 l 1,5,-1
 203 -322 l 1,6,-1
 33 -322 l 1,7,-1
 33 170 l 1,8,-1
 110 170 l 2,9,10
 158 170 158 170 197 502 c 0,11,12
 227 758 227 758 227 1027 c 2,13,-1
 227 1493 l 1,14,-1
 1079 1493 l 1,15,-1
 1079 170 l 1,0,-1
876 1323 m 1,16,-1
 430 1323 l 1,17,-1
 430 1026 l 2,18,19
 430 802 430 802 402 515 c 0,20,21
 375 228 375 228 369.5 214 c 128,-1,22
 364 200 364 200 364 192 c 0,23,24
 364 170 364 170 411 170 c 2,25,-1
 876 170 l 1,26,-1
 876 1323 l 1,16,-1
EndSplineSet
EndChar

StartChar: uni0416
Encoding: 1046 1046 250
Width: 1233
Flags: W
LayerCount: 2
Back
Fore
SplineSet
523 1493 m 1,0,-1
 710 1493 l 1,1,-1
 710 898 l 1,2,-1
 994 1493 l 1,3,-1
 1201 1493 l 1,4,-1
 914 891 l 1,5,-1
 1218 0 l 1,6,-1
 1021 0 l 1,7,-1
 799 650 l 1,8,-1
 710 464 l 1,9,-1
 710 0 l 1,10,-1
 523 0 l 1,11,-1
 523 464 l 1,12,-1
 434 650 l 1,13,-1
 212 0 l 1,14,-1
 15 0 l 1,15,-1
 319 891 l 1,16,-1
 32 1493 l 1,17,-1
 239 1493 l 1,18,-1
 523 898 l 1,19,-1
 523 1493 l 1,0,-1
EndSplineSet
EndChar

StartChar: uni0418
Encoding: 1048 1048 252
Width: 1233
Flags: W
LayerCount: 2
Back
Fore
SplineSet
139 0 m 1,0,-1
 139 1493 l 1,1,-1
 334 1493 l 1,2,-1
 334 264 l 1,3,-1
 838 1493 l 1,4,-1
 1094 1493 l 1,5,-1
 1094 0 l 1,6,-1
 899 0 l 1,7,-1
 899 1229 l 1,8,-1
 395 0 l 1,9,-1
 139 0 l 1,0,-1
EndSplineSet
EndChar

StartChar: uni0419
Encoding: 1049 1049 253
Width: 1233
Flags: W
LayerCount: 2
Back
Fore
SplineSet
303 1901 m 1
 422 1901 l 1
 434 1847 434 1847 484 1818.5 c 0
 534 1790 534 1790 616 1790 c 0
 699 1790 699 1790 747.5 1817.5 c 0
 796 1845 796 1845 811 1901 c 1
 930 1901 l 1
 919 1782 919 1782 839.5 1720.5 c 0
 760 1659 760 1659 616 1659 c 256
 472 1659 472 1659 393 1720 c 0
 314 1781 314 1781 303 1901 c 1
EndSplineSet
Refer: 252 1048 N 1 0 0 1 0 0 2
EndChar

StartChar: uni041B
Encoding: 1051 1051 255
Width: 1233
Flags: W
LayerCount: 2
Back
Fore
SplineSet
483 1323 m 1,0,-1
 483 1073 l 2,1,2
 483 748 483 748 471.5 493 c 128,-1,3
 460 238 460 238 358.5 119 c 128,-1,4
 257 0 257 0 4 0 c 1,5,-1
 4 164 l 1,6,7
 142 164 142 164 201 235.5 c 128,-1,8
 260 307 260 307 270 515.5 c 128,-1,9
 280 724 280 724 280 1067 c 2,10,-1
 280 1493 l 1,11,-1
 1094 1493 l 1,12,-1
 1094 0 l 1,13,-1
 891 0 l 1,14,-1
 891 1323 l 1,15,-1
 483 1323 l 1,0,-1
EndSplineSet
EndChar

StartChar: uni041F
Encoding: 1055 1055 259
Width: 1233
Flags: W
LayerCount: 2
Back
Fore
SplineSet
137 1493 m 1,0,-1
 1096 1493 l 1,1,-1
 1096 0 l 1,2,-1
 893 0 l 1,3,-1
 893 1323 l 1,4,-1
 340 1323 l 1,5,-1
 340 0 l 1,6,-1
 137 0 l 1,7,-1
 137 1493 l 1,0,-1
EndSplineSet
EndChar

StartChar: uni0423
Encoding: 1059 1059 263
Width: 1233
Flags: W
LayerCount: 2
Back
Fore
SplineSet
741 425 m 2,0,1
 682 267 682 267 613 156 c 0,2,3
 569 82 569 82 493 39 c 0,4,5
 424 0 424 0 332 0 c 2,6,-1
 184 0 l 1,7,-1
 184 172 l 1,8,-1
 293 172 l 2,9,10
 374 172 374 172 420 219 c 0,11,12
 465 265 465 265 499 342 c 0,13,14
 513 374 513 374 528 416 c 1,15,-1
 104 1493 l 1,16,-1
 321 1493 l 1,17,-1
 632 663 l 1,18,-1
 940 1493 l 1,19,-1
 1153 1493 l 1,20,-1
 741 425 l 2,0,1
EndSplineSet
EndChar

StartChar: uni0424
Encoding: 1060 1060 264
Width: 1233
Flags: W
LayerCount: 2
Back
Fore
SplineSet
515 316 m 1,0,-1
 515 1207 l 1,1,2
 350 1181 350 1181 313.5 1071 c 128,-1,3
 277 961 277 961 277 762 c 0,4,5
 277 562 277 562 313.5 452 c 128,-1,6
 350 342 350 342 515 316 c 1,0,-1
515 1493 m 1,7,-1
 718 1493 l 1,8,-1
 718 1371 l 1,9,10
 985 1361 985 1361 1076 1190 c 128,-1,11
 1167 1019 1167 1019 1167 762 c 0,12,13
 1167 502 1167 502 1076 332 c 128,-1,14
 985 162 985 162 718 152 c 1,15,-1
 718 0 l 1,16,-1
 515 0 l 1,17,-1
 515 152 l 1,18,19
 265 162 265 162 165.5 333.5 c 128,-1,20
 66 505 66 505 66 762 c 0,21,22
 66 1022 66 1022 158 1191.5 c 128,-1,23
 250 1361 250 1361 515 1371 c 1,24,-1
 515 1493 l 1,7,-1
718 316 m 1,25,26
 883 342 883 342 919.5 452 c 128,-1,27
 956 562 956 562 956 762 c 0,28,29
 956 961 956 961 919.5 1071 c 128,-1,30
 883 1181 883 1181 718 1207 c 1,31,-1
 718 316 l 1,25,26
EndSplineSet
EndChar

StartChar: uni0426
Encoding: 1062 1062 266
Width: 1233
Flags: W
LayerCount: 2
Back
Fore
SplineSet
80 0 m 1,0,-1
 80 1493 l 1,1,-1
 283 1493 l 1,2,-1
 283 170 l 1,3,-1
 836 170 l 1,4,-1
 836 1493 l 1,5,-1
 1039 1493 l 1,6,-1
 1039 170 l 1,7,-1
 1173 170 l 1,8,-1
 1173 -322 l 1,9,-1
 1003 -322 l 1,10,-1
 1003 0 l 1,11,-1
 80 0 l 1,0,-1
EndSplineSet
EndChar

StartChar: uni0427
Encoding: 1063 1063 267
Width: 1233
Flags: W
LayerCount: 2
Back
Fore
SplineSet
137 980 m 2,0,-1
 137 1493 l 1,1,-1
 340 1493 l 1,2,-1
 340 1006 l 2,3,4
 340 843 340 843 395 803 c 128,-1,5
 450 763 450 763 559 763 c 0,6,7
 676 763 676 763 737 777.5 c 128,-1,8
 798 792 798 792 889 861 c 1,9,-1
 889 1493 l 1,10,-1
 1092 1493 l 1,11,-1
 1092 0 l 1,12,-1
 889 0 l 1,13,-1
 889 658 l 1,14,15
 771 600 771 600 696 588.5 c 128,-1,16
 621 577 621 577 495 577 c 0,17,18
 312 577 312 577 224.5 675 c 128,-1,19
 137 773 137 773 137 980 c 2,0,-1
EndSplineSet
EndChar

StartChar: uni0428
Encoding: 1064 1064 268
Width: 1233
Flags: W
LayerCount: 2
Back
Fore
SplineSet
1120 0 m 1,0,-1
 114 0 l 1,1,-1
 114 1493 l 1,2,-1
 300 1493 l 1,3,-1
 300 170 l 1,4,-1
 524 170 l 1,5,-1
 524 1493 l 1,6,-1
 710 1493 l 1,7,-1
 710 170 l 1,8,-1
 934 170 l 1,9,-1
 934 1493 l 1,10,-1
 1120 1493 l 1,11,-1
 1120 0 l 1,0,-1
EndSplineSet
EndChar

StartChar: uni0429
Encoding: 1065 1065 269
Width: 1233
Flags: W
LayerCount: 2
Back
Fore
SplineSet
60 0 m 1,0,-1
 60 1493 l 1,1,-1
 246 1493 l 1,2,-1
 246 170 l 1,3,-1
 470 170 l 1,4,-1
 470 1493 l 1,5,-1
 656 1493 l 1,6,-1
 656 170 l 1,7,-1
 880 170 l 1,8,-1
 880 1493 l 1,9,-1
 1066 1493 l 1,10,-1
 1066 170 l 1,11,-1
 1200 170 l 1,12,-1
 1200 -322 l 1,13,-1
 1030 -322 l 1,14,-1
 1030 0 l 1,15,-1
 60 0 l 1,0,-1
EndSplineSet
EndChar

StartChar: uni042A
Encoding: 1066 1066 270
Width: 1233
Flags: W
LayerCount: 2
Back
Fore
SplineSet
495 166 m 1,0,-1
 633 166 l 2,1,2
 774 166 774 166 852 239.5 c 128,-1,3
 930 313 930 313 930 446 c 256,4,5
 930 579 930 579 851.5 653 c 128,-1,6
 773 727 773 727 633 727 c 2,7,-1
 495 727 l 1,8,-1
 495 166 l 1,0,-1
293 0 m 1,9,-1
 293 1323 l 1,10,-1
 32 1323 l 1,11,-1
 32 1493 l 1,12,-1
 495 1493 l 1,13,-1
 495 893 l 1,14,-1
 633 893 l 2,15,16
 884 893 884 893 1012.5 780 c 128,-1,17
 1141 667 1141 667 1141 446 c 0,18,19
 1141 227 1141 227 1012 113.5 c 128,-1,20
 883 0 883 0 633 0 c 2,21,-1
 293 0 l 1,9,-1
EndSplineSet
EndChar

StartChar: uni042B
Encoding: 1067 1067 271
Width: 1233
Flags: W
LayerCount: 2
Back
Fore
SplineSet
931 0 m 1,0,-1
 931 1493 l 1,1,-1
 1134 1493 l 1,2,-1
 1134 0 l 1,3,-1
 931 0 l 1,0,-1
267 166 m 1,4,-1
 358 166 l 2,5,6
 460 166 460 166 538 240 c 0,7,8
 598 296 598 296 598 446 c 0,9,10
 598 579 598 579 537.5 653 c 128,-1,11
 477 727 477 727 358 727 c 2,12,-1
 267 727 l 1,13,-1
 267 166 l 1,4,-1
65 0 m 1,14,-1
 65 1493 l 1,15,-1
 267 1493 l 1,16,-1
 267 893 l 1,17,-1
 358 893 l 2,18,19
 552 893 552 893 680.5 780 c 128,-1,20
 809 667 809 667 809 446 c 0,21,22
 809 227 809 227 680 113.5 c 128,-1,23
 551 0 551 0 358 0 c 2,24,-1
 65 0 l 1,14,-1
EndSplineSet
EndChar

StartChar: uni042C
Encoding: 1068 1068 272
Width: 1233
Flags: W
LayerCount: 2
Back
Fore
SplineSet
399 166 m 1,0,-1
 633 166 l 2,1,2
 774 166 774 166 852 239.5 c 128,-1,3
 930 313 930 313 930 446 c 256,4,5
 930 579 930 579 851.5 653 c 128,-1,6
 773 727 773 727 633 727 c 2,7,-1
 399 727 l 1,8,-1
 399 166 l 1,0,-1
197 0 m 1,9,-1
 197 1493 l 1,10,-1
 399 1493 l 1,11,-1
 399 893 l 1,12,-1
 633 893 l 2,13,14
 884 893 884 893 1012 780 c 0,15,16
 1141 667 1141 667 1141 446 c 0,17,18
 1141 227 1141 227 1012 114 c 0,19,20
 883 0 883 0 633 0 c 2,21,-1
 197 0 l 1,9,-1
EndSplineSet
EndChar

StartChar: uni042D
Encoding: 1069 1069 273
Width: 1233
Flags: W
LayerCount: 2
Back
Fore
SplineSet
469 -29 m 0,0,1
 293 -29 293 -29 139 53 c 1,2,-1
 139 260 l 1,3,4
 289 135 289 135 477 135 c 0,5,6
 666 135 666 135 762 282 c 0,7,8
 857 430 857 430 862 661 c 1,9,-1
 230 661 l 1,10,-1
 230 831 l 1,11,-1
 857 831 l 1,12,13
 827 1107 827 1107 764 1204 c 0,14,15
 666 1356 666 1356 478 1356 c 0,16,17
 291 1356 291 1356 139 1231 c 1,18,-1
 139 1438 l 1,19,20
 293 1520 293 1520 469 1520 c 0,21,22
 754 1520 754 1520 914 1316 c 0,23,24
 1073 1111 1073 1111 1073 744 c 128,-1,25
 1073 377 1073 377 914 174 c 0,26,27
 756 -29 756 -29 469 -29 c 0,0,1
EndSplineSet
EndChar

StartChar: uni042E
Encoding: 1070 1070 274
Width: 1233
Flags: W
LayerCount: 2
Back
Fore
SplineSet
975 745 m 256,0,1
 975 1074 975 1074 927.5 1215 c 128,-1,2
 880 1356 880 1356 773 1356 c 256,3,4
 666 1356 666 1356 618.5 1215 c 128,-1,5
 571 1074 571 1074 571 745 c 0,6,7
 571 417 571 417 618.5 276 c 128,-1,8
 666 135 666 135 773 135 c 256,9,10
 880 135 880 135 927.5 275.5 c 128,-1,11
 975 416 975 416 975 745 c 256,0,1
263 836 m 1,12,-1
 374 836 l 1,13,14
 384 1159 384 1159 477.5 1339.5 c 128,-1,15
 571 1520 571 1520 773 1520 c 256,16,17
 975 1520 975 1520 1074 1328 c 128,-1,18
 1173 1136 1173 1136 1173 745 c 0,19,20
 1173 355 1173 355 1074 163 c 128,-1,21
 975 -29 975 -29 773 -29 c 0,22,23
 570 -29 570 -29 477 152 c 128,-1,24
 384 333 384 333 374 666 c 1,25,-1
 263 666 l 1,26,-1
 263 0 l 1,27,-1
 60 0 l 1,28,-1
 60 1493 l 1,29,-1
 263 1493 l 1,30,-1
 263 836 l 1,12,-1
EndSplineSet
EndChar

StartChar: uni042F
Encoding: 1071 1071 275
Width: 1233
Flags: W
LayerCount: 2
Back
Fore
SplineSet
372 1061 m 0,0,1
 372 927 372 927 443 862 c 128,-1,2
 514 797 514 797 659 797 c 2,3,-1
 930 797 l 1,4,-1
 930 1327 l 1,5,-1
 667 1327 l 2,6,7
 523 1327 523 1327 447.5 1258.5 c 128,-1,8
 372 1190 372 1190 372 1061 c 0,0,1
76 0 m 1,9,-1
 445 666 l 1,10,11
 337 705 337 705 248 794 c 128,-1,12
 159 883 159 883 159 1061 c 0,13,14
 159 1271 159 1271 290 1382 c 128,-1,15
 421 1493 421 1493 667 1493 c 2,16,-1
 1133 1493 l 1,17,-1
 1133 0 l 1,18,-1
 930 0 l 1,19,-1
 930 631 l 1,20,-1
 640 631 l 1,21,-1
 290 0 l 1,22,-1
 76 0 l 1,9,-1
EndSplineSet
EndChar

StartChar: uni0431
Encoding: 1073 1073 277
Width: 1233
Flags: W
LayerCount: 2
Back
Fore
SplineSet
901 559 m 256,0,1
 901 991 901 991 616 991 c 0,2,3
 332 991 332 991 332 559 c 0,4,5
 332 346 332 346 404 236.5 c 128,-1,6
 476 127 476 127 616 127 c 0,7,8
 901 127 901 127 901 559 c 256,0,1
285 1024 m 1,9,10
 405 1147 405 1147 627 1147 c 256,11,12
 849 1147 849 1147 972.5 996 c 128,-1,13
 1096 845 1096 845 1096 558 c 0,14,15
 1096 272 1096 272 973 121.5 c 128,-1,16
 850 -29 850 -29 616 -29 c 0,17,18
 383 -29 383 -29 257.5 124.5 c 128,-1,19
 132 278 132 278 137 559 c 0,20,21
 138 604 138 604 137 621 c 2,22,-1
 130 788 l 2,23,24
 125 907 125 907 125 948 c 128,-1,25
 125 989 125 989 127 1004 c 0,26,27
 147 1153 147 1153 183 1226 c 0,28,29
 274 1411 274 1411 441 1496 c 0,30,31
 569 1561 569 1561 853 1573 c 0,32,33
 904 1575 904 1575 939 1591 c 1,34,-1
 1009 1449 l 1,35,36
 974 1436 974 1436 923 1431 c 2,37,-1
 683 1407 l 2,38,39
 585 1397 585 1397 511 1354 c 0,40,41
 314 1238 314 1238 293 1084 c 2,42,-1
 285 1024 l 1,9,10
EndSplineSet
EndChar

StartChar: uni0432
Encoding: 1074 1074 278
Width: 1233
Flags: W
LayerCount: 2
Back
Fore
SplineSet
393 515 m 1,0,-1
 393 150 l 1,1,-1
 632 150 l 2,2,3
 727 150 727 150 777.5 206 c 128,-1,4
 828 262 828 262 828 342 c 0,5,6
 828 421 828 421 785.5 468 c 128,-1,7
 743 515 743 515 636 515 c 2,8,-1
 393 515 l 1,0,-1
393 970 m 1,9,-1
 393 665 l 1,10,-1
 621 665 l 2,11,12
 706 665 706 665 748 707.5 c 128,-1,13
 790 750 790 750 790 817 c 256,14,15
 790 884 790 884 748 927 c 128,-1,16
 706 970 706 970 620 970 c 2,17,-1
 393 970 l 1,9,-1
209 1120 m 1,18,-1
 606 1120 l 2,19,20
 776 1120 776 1120 876 1043 c 128,-1,21
 976 966 976 966 976 854 c 0,22,23
 976 743 976 743 928.5 678.5 c 128,-1,24
 881 614 881 614 782 600 c 1,25,26
 915 575 915 575 969.5 507 c 128,-1,27
 1024 439 1024 439 1024 322 c 0,28,29
 1024 168 1024 168 919.5 84 c 128,-1,30
 815 0 815 0 622 0 c 2,31,-1
 209 0 l 1,32,-1
 209 1120 l 1,18,-1
EndSplineSet
EndChar

StartChar: uni0433
Encoding: 1075 1075 279
Width: 1233
Flags: W
LayerCount: 2
Back
Fore
SplineSet
441 970 m 1,0,-1
 441 0 l 1,1,-1
 257 0 l 1,2,-1
 257 1120 l 1,3,-1
 1009 1120 l 1,4,-1
 1009 970 l 1,5,-1
 441 970 l 1,0,-1
EndSplineSet
EndChar

StartChar: uni0434
Encoding: 1076 1076 280
Width: 1233
Flags: W
LayerCount: 2
Back
Fore
SplineSet
1007 150 m 1,0,-1
 1128 150 l 1,1,-1
 1128 -286 l 1,2,-1
 978 -286 l 1,3,-1
 978 0 l 1,4,-1
 255 0 l 1,5,-1
 255 -286 l 1,6,-1
 105 -286 l 1,7,-1
 105 150 l 1,8,-1
 172 150 l 2,9,10
 227 150 227 150 243 377 c 128,-1,11
 259 604 259 604 259 704 c 2,12,-1
 259 1120 l 1,13,-1
 1007 1120 l 1,14,-1
 1007 150 l 1,0,-1
822 150 m 1,15,-1
 822 970 l 1,16,-1
 442 970 l 1,17,-1
 442 700 l 2,18,19
 442 600 442 600 422 353 c 0,20,21
 414 209 414 209 407 192.5 c 128,-1,22
 400 176 400 176 400 163 c 128,-1,23
 400 150 400 150 434 150 c 2,24,-1
 822 150 l 1,15,-1
EndSplineSet
EndChar

StartChar: uni0436
Encoding: 1078 1078 282
Width: 1233
Flags: W
LayerCount: 2
Back
Fore
SplineSet
533 1120 m 1,0,-1
 701 1120 l 1,1,-1
 701 688 l 1,2,-1
 956 1120 l 1,3,-1
 1155 1120 l 1,4,-1
 916 716 l 1,5,-1
 1175 0 l 1,6,-1
 996 0 l 1,7,-1
 805 528 l 1,8,-1
 701 351 l 1,9,-1
 701 0 l 1,10,-1
 533 0 l 1,11,-1
 533 351 l 1,12,-1
 429 528 l 1,13,-1
 238 0 l 1,14,-1
 59 0 l 1,15,-1
 318 716 l 1,16,-1
 79 1120 l 1,17,-1
 278 1120 l 1,18,-1
 533 688 l 1,19,-1
 533 1120 l 1,0,-1
EndSplineSet
EndChar

StartChar: uni0437
Encoding: 1079 1079 283
Width: 1233
Flags: W
LayerCount: 2
Back
Fore
SplineSet
783 607 m 1,0,1
 915 584 915 584 989.5 510 c 0,2,3
 1064 436 1064 436 1064 327 c 0,4,5
 1064 161 1064 161 925.5 69.5 c 0,6,7
 787 -22 787 -22 532 -22 c 0,8,9
 447 -22 447 -22 356 -8 c 0,10,11
 265 6 265 6 169 34 c 1,12,-1
 169 207 l 1,13,14
 245 173 245 173 336 155.5 c 0,15,16
 427 138 427 138 527 138 c 0,17,18
 700 138 700 138 790.5 190.5 c 0,19,20
 881 243 881 243 881 341 c 0,21,22
 881 422 881 422 796.5 477 c 0,23,24
 712 532 712 532 562 532 c 2,25,-1
 404 532 l 1,26,-1
 404 676 l 1,27,-1
 569 676 l 2,28,29
 705 676 705 676 777 719.5 c 0,30,31
 849 763 849 763 849 824 c 0,32,33
 849 898 849 898 774.5 941 c 0,34,35
 700 984 700 984 562 984 c 0,36,37
 487 984 487 984 400.5 971.5 c 0,38,39
 314 959 314 959 210 932 c 1,40,-1
 210 1099 l 1,41,42
 315 1123 315 1123 406.5 1135 c 0,43,44
 498 1147 498 1147 578 1147 c 0,45,46
 788 1147 788 1147 910 1068 c 0,47,48
 1032 989 1032 989 1032 855 c 0,49,50
 1032 761 1032 761 967 696.5 c 0,51,52
 902 632 902 632 783 607 c 1,0,1
EndSplineSet
EndChar

StartChar: uni0438
Encoding: 1080 1080 284
Width: 1233
Flags: W
LayerCount: 2
Back
Fore
SplineSet
866 809 m 1,0,-1
 379 0 l 1,1,-1
 195 0 l 1,2,-1
 195 1120 l 1,3,-1
 379 1120 l 1,4,-1
 379 311 l 1,5,-1
 866 1120 l 1,6,-1
 1050 1120 l 1,7,-1
 1050 0 l 1,8,-1
 866 0 l 1,9,-1
 866 809 l 1,0,-1
EndSplineSet
EndChar

StartChar: uni0439
Encoding: 1081 1081 285
Width: 1233
Flags: W
LayerCount: 2
Back
Fore
SplineSet
303 1608 m 1
 422 1608 l 1
 433 1532 433 1532 481 1495 c 0
 529 1458 529 1458 616 1458 c 0
 701 1458 701 1458 749 1495 c 0
 797 1532 797 1532 811 1608 c 1
 930 1608 l 1
 919 1465 919 1465 840 1393 c 0
 761 1321 761 1321 616 1321 c 0
 472 1321 472 1321 393 1393 c 0
 314 1465 314 1465 303 1608 c 1
EndSplineSet
Refer: 284 1080 N 1 0 0 1 0 0 2
EndChar

StartChar: uni043A
Encoding: 1082 1082 286
Width: 1233
Flags: W
LayerCount: 2
Back
Fore
SplineSet
236 1120 m 1,0,-1
 426 1120 l 1,1,-1
 426 655 l 1,2,-1
 909 1120 l 1,3,-1
 1133 1120 l 1,4,-1
 692 698 l 1,5,-1
 1202 0 l 1,6,-1
 977 0 l 1,7,-1
 563 578 l 1,8,-1
 426 449 l 1,9,-1
 426 0 l 1,10,-1
 236 0 l 1,11,-1
 236 1120 l 1,0,-1
EndSplineSet
EndChar

StartChar: uni043B
Encoding: 1083 1083 287
Width: 1233
Flags: W
LayerCount: 2
Back
Fore
SplineSet
265 1120 m 1,0,-1
 1050 1120 l 1,1,-1
 1050 0 l 1,2,-1
 866 0 l 1,3,-1
 866 970 l 1,4,-1
 449 970 l 1,5,-1
 449 725 l 2,6,7
 449 536 449 536 435.5 384.5 c 128,-1,8
 422 233 422 233 346.5 116.5 c 128,-1,9
 271 0 271 0 85 0 c 2,10,-1
 30 0 l 1,11,-1
 30 150 l 1,12,-1
 65 150 l 2,13,14
 150 150 150 150 197 209 c 128,-1,15
 244 268 244 268 254.5 408 c 128,-1,16
 265 548 265 548 265 722 c 2,17,-1
 265 1120 l 1,0,-1
EndSplineSet
EndChar

StartChar: uni043C
Encoding: 1084 1084 288
Width: 1233
Flags: W
LayerCount: 2
Back
Fore
SplineSet
61 1120 m 1,0,-1
 245 1120 l 1,1,-1
 620 429 l 1,2,-1
 995 1120 l 1,3,-1
 1179 1120 l 1,4,-1
 1179 0 l 1,5,-1
 995 0 l 1,6,-1
 995 741 l 1,7,-1
 712 260 l 1,8,-1
 528 260 l 1,9,-1
 245 741 l 1,10,-1
 245 0 l 1,11,-1
 61 0 l 1,12,-1
 61 1120 l 1,0,-1
EndSplineSet
EndChar

StartChar: uni043D
Encoding: 1085 1085 289
Width: 1233
Flags: W
LayerCount: 2
Back
Fore
SplineSet
866 515 m 1,0,-1
 379 515 l 1,1,-1
 379 0 l 1,2,-1
 195 0 l 1,3,-1
 195 1120 l 1,4,-1
 379 1120 l 1,5,-1
 379 665 l 1,6,-1
 866 665 l 1,7,-1
 866 1120 l 1,8,-1
 1050 1120 l 1,9,-1
 1050 0 l 1,10,-1
 866 0 l 1,11,-1
 866 515 l 1,0,-1
EndSplineSet
EndChar

StartChar: uni043F
Encoding: 1087 1087 291
Width: 1233
Flags: W
LayerCount: 2
Back
Fore
SplineSet
866 970 m 1,0,-1
 379 970 l 1,1,-1
 379 0 l 1,2,-1
 195 0 l 1,3,-1
 195 1120 l 1,4,-1
 1050 1120 l 1,5,-1
 1050 0 l 1,6,-1
 866 0 l 1,7,-1
 866 970 l 1,0,-1
EndSplineSet
EndChar

StartChar: uni0442
Encoding: 1090 1090 294
Width: 1233
Flags: W
LayerCount: 2
Back
Fore
SplineSet
720 970 m 1,0,-1
 720 0 l 1,1,-1
 536 0 l 1,2,-1
 536 970 l 1,3,-1
 225 970 l 1,4,-1
 225 1120 l 1,5,-1
 1031 1120 l 1,6,-1
 1031 970 l 1,7,-1
 720 970 l 1,0,-1
EndSplineSet
EndChar

StartChar: uni0444
Encoding: 1092 1092 296
Width: 1233
Flags: W
LayerCount: 2
Back
Fore
SplineSet
520 982 m 1,0,1
 400 957 400 957 347 880.5 c 128,-1,2
 294 804 294 804 294 559 c 256,3,4
 294 314 294 314 347 233 c 128,-1,5
 400 152 400 152 520 127 c 1,6,-1
 520 982 l 1,0,1
520 -29 m 1,7,8
 300 -7 300 -7 199.5 126.5 c 128,-1,9
 99 260 99 260 99 559 c 256,10,11
 99 858 99 858 198.5 991.5 c 128,-1,12
 298 1125 298 1125 520 1147 c 1,13,-1
 520 1556 l 1,14,-1
 704 1556 l 1,15,-1
 704 1147 l 1,16,17
 926 1125 926 1125 1025.5 991.5 c 128,-1,18
 1125 858 1125 858 1125 559 c 256,19,20
 1125 260 1125 260 1024.5 126.5 c 128,-1,21
 924 -7 924 -7 704 -29 c 1,22,-1
 704 -426 l 1,23,-1
 520 -426 l 1,24,-1
 520 -29 l 1,7,8
704 982 m 1,25,-1
 704 127 l 1,26,27
 824 152 824 152 877 233 c 128,-1,28
 930 314 930 314 930 559 c 256,29,30
 930 804 930 804 877 880.5 c 128,-1,31
 824 957 824 957 704 982 c 1,25,-1
EndSplineSet
EndChar

StartChar: uni0446
Encoding: 1094 1094 298
Width: 1233
Flags: W
LayerCount: 2
Back
Fore
SplineSet
1118 150 m 1,0,-1
 1118 -286 l 1,1,-1
 968 -286 l 1,2,-1
 968 0 l 1,3,-1
 124 0 l 1,4,-1
 124 1120 l 1,5,-1
 308 1120 l 1,6,-1
 308 150 l 1,7,-1
 794 150 l 1,8,-1
 794 1120 l 1,9,-1
 978 1120 l 1,10,-1
 978 150 l 1,11,-1
 1118 150 l 1,0,-1
EndSplineSet
EndChar

StartChar: uni0447
Encoding: 1095 1095 299
Width: 1233
Flags: W
LayerCount: 2
Back
Fore
SplineSet
195 755 m 2,0,-1
 195 1122 l 1,1,-1
 379 1122 l 1,2,-1
 379 755 l 2,3,4
 379 655 379 655 432.5 608.5 c 128,-1,5
 486 562 486 562 596 562 c 0,6,7
 684 562 684 562 741 572 c 128,-1,8
 798 582 798 582 867 621 c 1,9,-1
 867 1122 l 1,10,-1
 1051 1122 l 1,11,-1
 1051 0 l 1,12,-1
 867 0 l 1,13,-1
 867 466 l 1,14,15
 814 445 814 445 744 423.5 c 128,-1,16
 674 402 674 402 535 402 c 0,17,18
 395 402 395 402 295 483.5 c 128,-1,19
 195 565 195 565 195 755 c 2,0,-1
EndSplineSet
EndChar

StartChar: uni0448
Encoding: 1096 1096 300
Width: 1233
Flags: W
LayerCount: 2
Back
Fore
SplineSet
1109 0 m 1,0,-1
 125 0 l 1,1,-1
 125 1120 l 1,2,-1
 293 1120 l 1,3,-1
 293 150 l 1,4,-1
 533 150 l 1,5,-1
 533 1120 l 1,6,-1
 701 1120 l 1,7,-1
 701 150 l 1,8,-1
 941 150 l 1,9,-1
 941 1120 l 1,10,-1
 1109 1120 l 1,11,-1
 1109 0 l 1,0,-1
EndSplineSet
EndChar

StartChar: uni0449
Encoding: 1097 1097 301
Width: 1233
Flags: W
LayerCount: 2
Back
Fore
SplineSet
1058 0 m 1,0,-1
 80 0 l 1,1,-1
 80 1120 l 1,2,-1
 248 1120 l 1,3,-1
 248 150 l 1,4,-1
 488 150 l 1,5,-1
 488 1120 l 1,6,-1
 656 1120 l 1,7,-1
 656 150 l 1,8,-1
 896 150 l 1,9,-1
 896 1120 l 1,10,-1
 1064 1120 l 1,11,-1
 1064 150 l 1,12,-1
 1208 150 l 1,13,-1
 1208 -286 l 1,14,-1
 1058 -286 l 1,15,-1
 1058 0 l 1,0,-1
EndSplineSet
EndChar

StartChar: uni044A
Encoding: 1098 1098 302
Width: 1233
Flags: W
LayerCount: 2
Back
Fore
SplineSet
462 156 m 1,0,-1
 710 156 l 2,1,2
 834 156 834 156 901 200 c 128,-1,3
 968 244 968 244 968 334 c 256,4,5
 968 424 968 424 899.5 469 c 128,-1,6
 831 514 831 514 710 514 c 2,7,-1
 462 514 l 1,8,-1
 462 156 l 1,0,-1
278 0 m 1,9,-1
 278 970 l 1,10,-1
 30 970 l 1,11,-1
 30 1120 l 1,12,-1
 462 1120 l 1,13,-1
 462 667 l 1,14,-1
 718 667 l 2,15,16
 927 667 927 667 1045.5 583.5 c 128,-1,17
 1164 500 1164 500 1164 332 c 256,18,19
 1164 164 1164 164 1048 82 c 128,-1,20
 932 0 932 0 718 0 c 2,21,-1
 278 0 l 1,9,-1
EndSplineSet
EndChar

StartChar: uni044B
Encoding: 1099 1099 303
Width: 1233
Flags: W
LayerCount: 2
Back
Fore
SplineSet
945 0 m 1,0,-1
 945 1120 l 1,1,-1
 1129 1120 l 1,2,-1
 1129 0 l 1,3,-1
 945 0 l 1,0,-1
286 154 m 1,4,-1
 369 154 l 2,5,6
 493 154 493 154 560 198.5 c 128,-1,7
 627 243 627 243 627 334 c 256,8,9
 627 425 627 425 558.5 470.5 c 128,-1,10
 490 516 490 516 369 516 c 2,11,-1
 286 516 l 1,12,-1
 286 154 l 1,4,-1
104 0 m 1,13,-1
 104 1120 l 1,14,-1
 286 1120 l 1,15,-1
 286 667 l 1,16,-1
 377 667 l 2,17,18
 586 667 586 667 704.5 583.5 c 128,-1,19
 823 500 823 500 823 332 c 256,20,21
 823 164 823 164 707 82 c 128,-1,22
 591 0 591 0 377 0 c 2,23,-1
 104 0 l 1,13,-1
EndSplineSet
EndChar

StartChar: uni044C
Encoding: 1100 1100 304
Width: 1233
Flags: W
LayerCount: 2
Back
Fore
SplineSet
379 153 m 1,0,-1
 627 153 l 2,1,2
 756 153 756 153 820 197.5 c 128,-1,3
 884 242 884 242 884 332 c 0,4,5
 884 426 884 426 819.5 470 c 128,-1,6
 755 514 755 514 627 514 c 2,7,-1
 379 514 l 1,8,-1
 379 153 l 1,0,-1
195 0 m 1,9,-1
 195 1120 l 1,10,-1
 379 1120 l 1,11,-1
 379 667 l 1,12,-1
 635 667 l 2,13,14
 843 667 843 667 961.5 583.5 c 128,-1,15
 1080 500 1080 500 1080 332 c 256,16,17
 1080 164 1080 164 964.5 82 c 128,-1,18
 849 0 849 0 635 0 c 2,19,-1
 195 0 l 1,9,-1
EndSplineSet
EndChar

StartChar: uni044D
Encoding: 1101 1101 305
Width: 1233
Flags: W
LayerCount: 2
Back
Fore
SplineSet
195 57 m 1,0,-1
 195 248 l 1,1,2
 260 186 260 186 336 156.5 c 128,-1,3
 412 127 412 127 508 127 c 0,4,5
 680 127 680 127 774 240 c 0,6,7
 857 340 857 340 866 516 c 1,8,-1
 324 516 l 1,9,-1
 324 660 l 1,10,-1
 861 660 l 1,11,12
 843 797 843 797 774 879 c 0,13,14
 680 991 680 991 508 991 c 0,15,16
 415 991 415 991 341.5 962 c 128,-1,17
 268 933 268 933 195 868 c 1,18,-1
 195 1061 l 1,19,20
 273 1105 273 1105 350 1126 c 128,-1,21
 427 1147 427 1147 508 1147 c 0,22,23
 768 1147 768 1147 914.5 991 c 128,-1,24
 1061 835 1061 835 1061 559 c 256,25,26
 1061 283 1061 283 914 127 c 0,27,28
 768 -29 768 -29 508 -29 c 0,29,30
 426 -29 426 -29 347.5 -7.5 c 128,-1,31
 269 14 269 14 195 57 c 1,0,-1
EndSplineSet
EndChar

StartChar: uni044E
Encoding: 1102 1102 306
Width: 1233
Flags: W
LayerCount: 2
Back
Fore
SplineSet
973 575 m 256,0,1
 973 773 973 773 917 881.5 c 128,-1,2
 861 990 861 990 785 990 c 256,3,4
 709 990 709 990 652.5 868 c 128,-1,5
 596 746 596 746 596 553 c 256,6,7
 596 360 596 360 649 243 c 128,-1,8
 702 126 702 126 787 127 c 0,9,10
 872 127 872 127 922.5 252 c 128,-1,11
 973 377 973 377 973 575 c 256,0,1
262 634 m 1,12,-1
 404 634 l 1,13,14
 421 890 421 890 526 1018.5 c 128,-1,15
 631 1147 631 1147 788 1147 c 256,16,17
 945 1147 945 1147 1056.5 1001 c 128,-1,18
 1168 855 1168 855 1168 554 c 0,19,20
 1168 252 1168 252 1053 111.5 c 128,-1,21
 938 -29 938 -29 784 -29 c 0,22,23
 631 -29 631 -29 525.5 109 c 128,-1,24
 420 247 420 247 404 484 c 1,25,-1
 262 484 l 1,26,-1
 262 0 l 1,27,-1
 78 0 l 1,28,-1
 78 1120 l 1,29,-1
 262 1120 l 1,30,-1
 262 634 l 1,12,-1
EndSplineSet
EndChar

StartChar: uni044F
Encoding: 1103 1103 307
Width: 1233
Flags: W
LayerCount: 2
Back
Fore
SplineSet
403 787 m 256,0,1
 403 690 403 690 460 647.5 c 128,-1,2
 517 605 517 605 572 605 c 2,3,-1
 800 605 l 1,4,-1
 800 970 l 1,5,-1
 573 970 l 2,6,7
 517 970 517 970 460 927 c 128,-1,8
 403 884 403 884 403 787 c 256,0,1
168 0 m 1,9,-1
 440 479 l 1,10,11
 387 501 387 501 302 566 c 128,-1,12
 217 631 217 631 217 798 c 0,13,14
 217 966 217 966 327 1043 c 128,-1,15
 437 1120 437 1120 587 1120 c 2,16,-1
 984 1120 l 1,17,-1
 984 0 l 1,18,-1
 800 0 l 1,19,-1
 800 455 l 1,20,-1
 607 455 l 1,21,-1
 349 0 l 1,22,-1
 168 0 l 1,9,-1
EndSplineSet
EndChar

StartChar: uni1D16
Encoding: 7446 7446 309
Width: 1233
Flags: W
LayerCount: 2
Back
Fore
SplineSet
137 559 m 1,0,1
 137 845 137 845 260 996 c 128,-1,2
 383 1147 383 1147 616 1147 c 128,-1,3
 849 1147 849 1147 972.5 996 c 128,-1,4
 1096 845 1096 845 1096 559 c 1,5,-1
 901 559 l 1,6,7
 901 773 901 773 829 882 c 128,-1,8
 757 991 757 991 616 991 c 0,9,10
 476 991 476 991 404 882 c 128,-1,11
 332 773 332 773 332 559 c 1,12,-1
 137 559 l 1,0,1
EndSplineSet
EndChar

StartChar: uni1D17
Encoding: 7447 7447 310
Width: 1233
Flags: W
LayerCount: 2
Back
Fore
SplineSet
1095 559 m 1,0,1
 1095 273 1095 273 972 122 c 128,-1,2
 849 -29 849 -29 616 -29 c 128,-1,3
 383 -29 383 -29 259.5 122 c 128,-1,4
 136 273 136 273 136 559 c 1,5,-1
 331 559 l 1,6,7
 331 345 331 345 403 236 c 128,-1,8
 475 127 475 127 616 127 c 0,9,10
 756 127 756 127 828 236 c 128,-1,11
 900 345 900 345 900 559 c 1,12,-1
 1095 559 l 1,0,1
EndSplineSet
EndChar

StartChar: uni1D2C
Encoding: 7468 7468 311
Width: 1233
Flags: W
LayerCount: 2
Back
Fore
SplineSet
616 1404 m 1,0,-1
 482 977 l 1,1,-1
 750 977 l 1,2,-1
 616 1404 l 1,0,-1
540 1504 m 1,3,-1
 694 1504 l 1,4,-1
 982 668 l 1,5,-1
 850 668 l 1,6,-1
 782 886 l 1,7,-1
 452 886 l 1,8,-1
 384 668 l 1,9,-1
 252 668 l 1,10,-1
 540 1504 l 1,3,-1
EndSplineSet
EndChar

StartChar: uni1D2E
Encoding: 7470 7470 312
Width: 1233
Flags: W
LayerCount: 2
Back
Fore
SplineSet
438 1067 m 1,0,-1
 438 761 l 1,1,-1
 589 761 l 2,2,3
 700 761 700 761 747 795.5 c 128,-1,4
 794 830 794 830 794 909 c 0,5,6
 794 991 794 991 744.5 1029 c 128,-1,7
 695 1067 695 1067 589 1067 c 2,8,-1
 438 1067 l 1,0,-1
438 1411 m 1,9,-1
 438 1159 l 1,10,-1
 587 1159 l 2,11,12
 678 1159 678 1159 719.5 1190.5 c 128,-1,13
 761 1222 761 1222 761 1292 c 0,14,15
 761 1355 761 1355 720.5 1383 c 128,-1,16
 680 1411 680 1411 587 1411 c 2,17,-1
 438 1411 l 1,9,-1
311 1504 m 1,18,-1
 589 1504 l 2,19,20
 733 1504 733 1504 811.5 1448.5 c 128,-1,21
 890 1393 890 1393 890 1292 c 0,22,23
 890 1215 890 1215 848.5 1171 c 128,-1,24
 807 1127 807 1127 724 1115 c 1,25,26
 817 1103 817 1103 869.5 1045 c 128,-1,27
 922 987 922 987 922 898 c 0,28,29
 922 784 922 784 838.5 726 c 128,-1,30
 755 668 755 668 589 668 c 2,31,-1
 311 668 l 1,32,-1
 311 1504 l 1,18,-1
EndSplineSet
EndChar

StartChar: uni1D30
Encoding: 7472 7472 313
Width: 1233
Flags: W
LayerCount: 2
Back
Fore
SplineSet
500 761 m 2,0,1
 660 761 660 761 724 831.5 c 128,-1,2
 788 902 788 902 788 1085 c 0,3,4
 788 1271 788 1271 724.5 1341 c 128,-1,5
 661 1411 661 1411 500 1411 c 2,6,-1
 439 1411 l 1,7,-1
 439 761 l 1,8,-1
 500 761 l 2,0,1
502 1504 m 2,9,10
 718 1504 718 1504 820 1402 c 128,-1,11
 922 1300 922 1300 922 1085 c 0,12,13
 922 871 922 871 820 769.5 c 128,-1,14
 718 668 718 668 502 668 c 2,15,-1
 311 668 l 1,16,-1
 311 1504 l 1,17,-1
 502 1504 l 2,9,10
EndSplineSet
EndChar

StartChar: uni1D31
Encoding: 7473 7473 314
Width: 1233
Flags: W
LayerCount: 2
Back
Fore
SplineSet
332 1504 m 1,0,-1
 890 1504 l 1,1,-1
 890 1409 l 1,2,-1
 458 1409 l 1,3,-1
 458 1161 l 1,4,-1
 870 1161 l 1,5,-1
 870 1066 l 1,6,-1
 458 1066 l 1,7,-1
 458 763 l 1,8,-1
 902 763 l 1,9,-1
 902 668 l 1,10,-1
 332 668 l 1,11,-1
 332 1504 l 1,0,-1
EndSplineSet
EndChar

StartChar: uni1D32
Encoding: 7474 7474 315
Width: 1233
Flags: W
LayerCount: 2
Back
Fore
SplineSet
902 668 m 1,0,-1
 332 668 l 1,1,-1
 332 763 l 1,2,-1
 774 763 l 1,3,-1
 774 1066 l 1,4,-1
 362 1066 l 1,5,-1
 362 1161 l 1,6,-1
 774 1161 l 1,7,-1
 774 1409 l 1,8,-1
 344 1409 l 1,9,-1
 344 1504 l 1,10,-1
 902 1504 l 1,11,-1
 902 668 l 1,0,-1
EndSplineSet
EndChar

StartChar: uni1D33
Encoding: 7475 7475 316
Width: 1233
Flags: W
LayerCount: 2
Back
Fore
SplineSet
932 737 m 1,0,1
 880 695 880 695 817 673.5 c 128,-1,2
 754 652 754 652 678 652 c 0,3,4
 500 652 500 652 400 766 c 128,-1,5
 300 880 300 880 300 1085 c 128,-1,6
 300 1290 300 1290 401 1404.5 c 128,-1,7
 502 1519 502 1519 682 1519 c 0,8,9
 742 1519 742 1519 796 1504.5 c 128,-1,10
 850 1490 850 1490 900 1459 c 1,11,-1
 900 1343 l 1,12,13
 848 1386 848 1386 795 1406.5 c 128,-1,14
 742 1427 742 1427 682 1427 c 0,15,16
 558 1427 558 1427 496 1342 c 128,-1,17
 434 1257 434 1257 434 1085 c 0,18,19
 434 911 434 911 494 827.5 c 128,-1,20
 554 744 554 744 678 744 c 0,21,22
 720 744 720 744 752 752.5 c 128,-1,23
 784 761 784 761 810 779 c 1,24,-1
 810 1004 l 1,25,-1
 674 1004 l 1,26,-1
 674 1097 l 1,27,-1
 932 1097 l 1,28,-1
 932 737 l 1,0,1
EndSplineSet
EndChar

StartChar: uni1D34
Encoding: 7476 7476 317
Width: 1233
Flags: W
LayerCount: 2
Back
Fore
SplineSet
314 1504 m 1,0,-1
 442 1504 l 1,1,-1
 442 1161 l 1,2,-1
 792 1161 l 1,3,-1
 792 1504 l 1,4,-1
 918 1504 l 1,5,-1
 918 668 l 1,6,-1
 792 668 l 1,7,-1
 792 1066 l 1,8,-1
 442 1066 l 1,9,-1
 442 668 l 1,10,-1
 314 668 l 1,11,-1
 314 1504 l 1,0,-1
EndSplineSet
EndChar

StartChar: uni1D35
Encoding: 7477 7477 318
Width: 1233
Flags: W
LayerCount: 2
Back
Fore
SplineSet
356 1504 m 1,0,-1
 878 1504 l 1,1,-1
 878 1409 l 1,2,-1
 680 1409 l 1,3,-1
 680 763 l 1,4,-1
 878 763 l 1,5,-1
 878 668 l 1,6,-1
 356 668 l 1,7,-1
 356 763 l 1,8,-1
 552 763 l 1,9,-1
 552 1409 l 1,10,-1
 356 1409 l 1,11,-1
 356 1504 l 1,0,-1
EndSplineSet
EndChar

StartChar: uni1D36
Encoding: 7478 7478 319
Width: 1233
Flags: W
LayerCount: 2
Back
Fore
SplineSet
350 702 m 1,0,-1
 350 834 l 1,1,2
 407 789 407 789 468 766.5 c 128,-1,3
 529 744 529 744 595 744 c 0,4,5
 685 744 685 744 720.5 785.5 c 128,-1,6
 756 827 756 827 756 941 c 2,7,-1
 756 1409 l 1,8,-1
 516 1409 l 1,9,-1
 516 1504 l 1,10,-1
 883 1504 l 1,11,-1
 883 941 l 2,12,13
 883 783 883 783 816.5 717.5 c 128,-1,14
 750 652 750 652 595 652 c 0,15,16
 534 652 534 652 474.5 664 c 128,-1,17
 415 676 415 676 350 702 c 1,0,-1
EndSplineSet
EndChar

StartChar: uni1D37
Encoding: 7479 7479 320
Width: 1233
Flags: W
LayerCount: 2
Back
Fore
SplineSet
274 1504 m 1,0,-1
 402 1504 l 1,1,-1
 402 1132 l 1,2,-1
 800 1504 l 1,3,-1
 948 1504 l 1,4,-1
 582 1162 l 1,5,-1
 960 668 l 1,6,-1
 806 668 l 1,7,-1
 498 1087 l 1,8,-1
 402 995 l 1,9,-1
 402 668 l 1,10,-1
 274 668 l 1,11,-1
 274 1504 l 1,0,-1
EndSplineSet
EndChar

StartChar: uni1D38
Encoding: 7480 7480 321
Width: 1233
Flags: W
LayerCount: 2
Back
Fore
SplineSet
325 1504 m 1,0,-1
 453 1504 l 1,1,-1
 453 763 l 1,2,-1
 908 763 l 1,3,-1
 908 668 l 1,4,-1
 325 668 l 1,5,-1
 325 1504 l 1,0,-1
EndSplineSet
EndChar

StartChar: uni1D39
Encoding: 7481 7481 322
Width: 1233
Flags: W
LayerCount: 2
Back
Fore
SplineSet
283 1504 m 1,0,-1
 453 1504 l 1,1,-1
 616 1078 l 1,2,-1
 780 1504 l 1,3,-1
 950 1504 l 1,4,-1
 950 668 l 1,5,-1
 833 668 l 1,6,-1
 833 1407 l 1,7,-1
 665 966 l 1,8,-1
 569 966 l 1,9,-1
 400 1407 l 1,10,-1
 400 668 l 1,11,-1
 283 668 l 1,12,-1
 283 1504 l 1,0,-1
EndSplineSet
EndChar

StartChar: uni1D3A
Encoding: 7482 7482 323
Width: 1233
Flags: W
LayerCount: 2
Back
Fore
SplineSet
316 1504 m 1,0,-1
 477 1504 l 1,1,-1
 794 816 l 1,2,-1
 794 1504 l 1,3,-1
 917 1504 l 1,4,-1
 917 668 l 1,5,-1
 756 668 l 1,6,-1
 438 1356 l 1,7,-1
 438 668 l 1,8,-1
 316 668 l 1,9,-1
 316 1504 l 1,0,-1
EndSplineSet
EndChar

StartChar: uni1D3C
Encoding: 7484 7484 324
Width: 1233
Flags: W
LayerCount: 2
Back
Fore
SplineSet
798 1085 m 128,-1,1
 798 1269 798 1269 755.5 1348 c 128,-1,2
 713 1427 713 1427 616 1427 c 0,3,4
 520 1427 520 1427 477.5 1348 c 128,-1,5
 435 1269 435 1269 435 1085 c 0,6,7
 435 902 435 902 477.5 823 c 128,-1,8
 520 744 520 744 616 744 c 0,9,10
 713 744 713 744 755.5 822.5 c 128,-1,0
 798 901 798 901 798 1085 c 128,-1,1
931 1085 m 0,11,12
 931 867 931 867 853 759.5 c 128,-1,13
 775 652 775 652 616 652 c 128,-1,14
 457 652 457 652 379.5 759 c 128,-1,15
 302 866 302 866 302 1085 c 128,-1,16
 302 1304 302 1304 379.5 1411.5 c 128,-1,17
 457 1519 457 1519 616 1519 c 128,-1,18
 775 1519 775 1519 853 1411.5 c 128,-1,19
 931 1304 931 1304 931 1085 c 0,11,12
EndSplineSet
EndChar

StartChar: uni1D3E
Encoding: 7486 7486 325
Width: 1233
Flags: W
LayerCount: 2
Back
Fore
SplineSet
446 1411 m 1,0,-1
 446 1097 l 1,1,-1
 594 1097 l 2,2,3
 682 1097 682 1097 731.5 1138.5 c 128,-1,4
 781 1180 781 1180 781 1254 c 0,5,6
 781 1329 781 1329 732 1370 c 128,-1,7
 683 1411 683 1411 594 1411 c 2,8,-1
 446 1411 l 1,0,-1
319 1504 m 1,9,-1
 594 1504 l 2,10,11
 751 1504 751 1504 832.5 1440.5 c 128,-1,12
 914 1377 914 1377 914 1254 c 128,-1,13
 914 1131 914 1131 833 1067.5 c 128,-1,14
 752 1004 752 1004 594 1004 c 2,15,-1
 446 1004 l 1,16,-1
 446 668 l 1,17,-1
 319 668 l 1,18,-1
 319 1504 l 1,9,-1
EndSplineSet
EndChar

StartChar: uni1D3F
Encoding: 7487 7487 326
Width: 1233
Flags: W
LayerCount: 2
Back
Fore
SplineSet
662 1063 m 1,0,1
 711 1052 711 1052 745.5 1020.5 c 128,-1,2
 780 989 780 989 832 896 c 2,3,-1
 960 668 l 1,4,-1
 823 668 l 1,5,-1
 711 879 l 2,6,7
 662 969 662 969 623.5 995 c 128,-1,8
 585 1021 585 1021 523 1021 c 2,9,-1
 401 1021 l 1,10,-1
 401 668 l 1,11,-1
 273 668 l 1,12,-1
 273 1504 l 1,13,-1
 535 1504 l 2,14,15
 690 1504 690 1504 772.5 1442 c 128,-1,16
 855 1380 855 1380 855 1262 c 0,17,18
 855 1179 855 1179 804.5 1127 c 128,-1,19
 754 1075 754 1075 662 1063 c 1,0,1
401 1411 m 1,20,-1
 401 1114 l 1,21,-1
 540 1114 l 2,22,23
 632 1114 632 1114 676.5 1150.5 c 128,-1,24
 721 1187 721 1187 721 1262 c 0,25,26
 721 1334 721 1334 673.5 1372.5 c 128,-1,27
 626 1411 626 1411 535 1411 c 2,28,-1
 401 1411 l 1,20,-1
EndSplineSet
EndChar

StartChar: uni1D40
Encoding: 7488 7488 327
Width: 1233
Flags: W
LayerCount: 2
Back
Fore
SplineSet
258 1504 m 1,0,-1
 975 1504 l 1,1,-1
 975 1409 l 1,2,-1
 681 1409 l 1,3,-1
 681 668 l 1,4,-1
 553 668 l 1,5,-1
 553 1409 l 1,6,-1
 258 1409 l 1,7,-1
 258 1504 l 1,0,-1
EndSplineSet
EndChar

StartChar: uni1D41
Encoding: 7489 7489 328
Width: 1233
Flags: W
LayerCount: 2
Back
Fore
SplineSet
321 989 m 2,0,-1
 321 1504 l 1,1,-1
 448 1504 l 1,2,-1
 448 937 l 2,3,4
 448 876 448 876 452 850 c 128,-1,5
 456 824 456 824 466 810 c 0,6,7
 486 777 486 777 524 760.5 c 128,-1,8
 562 744 562 744 616 744 c 0,9,10
 671 744 671 744 708.5 760.5 c 128,-1,11
 746 777 746 777 767 810 c 0,12,13
 777 824 777 824 780.5 850 c 128,-1,14
 784 876 784 876 784 936 c 2,15,-1
 784 1504 l 1,16,-1
 912 1504 l 1,17,-1
 912 989 l 2,18,19
 912 861 912 861 894 807 c 128,-1,20
 876 753 876 753 832 717 c 0,21,22
 790 684 790 684 736.5 668 c 128,-1,23
 683 652 683 652 616 652 c 0,24,25
 550 652 550 652 496.5 668 c 128,-1,26
 443 684 443 684 401 717 c 0,27,28
 357 752 357 752 339 807 c 128,-1,29
 321 862 321 862 321 989 c 2,0,-1
EndSplineSet
EndChar

StartChar: uni1D42
Encoding: 7490 7490 329
Width: 1233
Flags: W
LayerCount: 2
Back
Fore
SplineSet
228 1504 m 1,0,-1
 352 1504 l 1,1,-1
 442 825 l 1,2,-1
 549 1274 l 1,3,-1
 682 1274 l 1,4,-1
 791 824 l 1,5,-1
 881 1504 l 1,6,-1
 1005 1504 l 1,7,-1
 864 668 l 1,8,-1
 744 668 l 1,9,-1
 616 1165 l 1,10,-1
 489 668 l 1,11,-1
 368 668 l 1,12,-1
 228 1504 l 1,0,-1
EndSplineSet
EndChar

StartChar: uni1D43
Encoding: 7491 7491 330
Width: 1233
Flags: W
LayerCount: 2
Back
Fore
SplineSet
683 983 m 1,0,-1
 645 983 l 2,1,2
 543 983 543 983 492 951.5 c 128,-1,3
 441 920 441 920 441 857 c 0,4,5
 441 801 441 801 479.5 769.5 c 128,-1,6
 518 738 518 738 586 738 c 0,7,8
 681 738 681 738 736 797 c 128,-1,9
 791 856 791 856 792 960 c 2,10,-1
 792 983 l 1,11,-1
 683 983 l 1,0,-1
908 1026 m 2,12,-1
 908 668 l 1,13,-1
 792 668 l 1,14,-1
 792 761 l 1,15,16
 754 705 754 705 698 678.5 c 128,-1,17
 642 652 642 652 561 652 c 0,18,19
 453 652 453 652 389 706 c 128,-1,20
 325 760 325 760 325 851 c 0,21,22
 325 955 325 955 404 1009.5 c 128,-1,23
 483 1064 483 1064 636 1064 c 2,24,-1
 792 1064 l 1,25,-1
 792 1080 l 2,26,27
 791 1155 791 1155 749 1189 c 128,-1,28
 707 1223 707 1223 614 1223 c 0,29,30
 555 1223 555 1223 494.5 1208 c 128,-1,31
 434 1193 434 1193 376 1164 c 1,32,-1
 376 1267 l 1,33,34
 441 1288 441 1288 500 1299 c 128,-1,35
 559 1310 559 1310 614 1310 c 0,36,37
 702 1310 702 1310 764 1287 c 128,-1,38
 826 1264 826 1264 864 1218 c 0,39,40
 888 1190 888 1190 898 1149 c 128,-1,41
 908 1108 908 1108 908 1026 c 2,12,-1
EndSplineSet
EndChar

StartChar: uni1D47
Encoding: 7495 7495 331
Width: 1233
Flags: W
LayerCount: 2
Back
Fore
SplineSet
784 981 m 128,-1,1
 784 1101 784 1101 741 1162 c 128,-1,2
 698 1223 698 1223 614 1223 c 128,-1,3
 530 1223 530 1223 486.5 1161.5 c 128,-1,4
 443 1100 443 1100 443 981 c 128,-1,5
 443 862 443 862 486.5 800.5 c 128,-1,6
 530 739 530 739 614 739 c 128,-1,7
 698 739 698 739 741 800 c 128,-1,0
 784 861 784 861 784 981 c 128,-1,1
443 1215 m 1,8,9
 471 1261 471 1261 519.5 1285.5 c 128,-1,10
 568 1310 568 1310 633 1310 c 0,11,12
 760 1310 760 1310 833 1223 c 128,-1,13
 906 1136 906 1136 906 983 c 0,14,15
 906 828 906 828 832.5 740 c 128,-1,16
 759 652 759 652 631 652 c 0,17,18
 568 652 568 652 520 676 c 128,-1,19
 472 700 472 700 443 747 c 1,20,-1
 443 668 l 1,21,-1
 327 668 l 1,22,-1
 327 1539 l 1,23,-1
 443 1539 l 1,24,-1
 443 1215 l 1,8,9
EndSplineSet
EndChar

StartChar: uni1D48
Encoding: 7496 7496 332
Width: 1233
Flags: W
LayerCount: 2
Back
Fore
SplineSet
790 1215 m 1,0,-1
 790 1539 l 1,1,-1
 906 1539 l 1,2,-1
 906 668 l 1,3,-1
 790 668 l 1,4,-1
 790 747 l 1,5,6
 761 700 761 700 713 676 c 128,-1,7
 665 652 665 652 602 652 c 0,8,9
 474 652 474 652 400.5 740 c 128,-1,10
 327 828 327 828 327 983 c 0,11,12
 327 1136 327 1136 400.5 1223 c 128,-1,13
 474 1310 474 1310 602 1310 c 0,14,15
 665 1310 665 1310 713.5 1286 c 128,-1,16
 762 1262 762 1262 790 1215 c 1,0,-1
449 981 m 128,-1,18
 449 861 449 861 492 800 c 128,-1,19
 535 739 535 739 619 739 c 0,20,21
 702 739 702 739 746 800.5 c 128,-1,22
 790 862 790 862 790 981 c 128,-1,23
 790 1100 790 1100 746 1161.5 c 128,-1,24
 702 1223 702 1223 619 1223 c 0,25,26
 535 1223 535 1223 492 1162 c 128,-1,17
 449 1101 449 1101 449 981 c 128,-1,18
EndSplineSet
EndChar

StartChar: uni1D49
Encoding: 7497 7497 333
Width: 1233
Flags: W
LayerCount: 2
Back
Fore
SplineSet
928 1007 m 2,0,-1
 928 957 l 1,1,-1
 426 957 l 1,2,-1
 426 954 l 2,3,4
 426 851 426 851 486 795 c 128,-1,5
 546 739 546 739 656 739 c 0,6,7
 711 739 711 739 771.5 754.5 c 128,-1,8
 832 770 832 770 901 802 c 1,9,-1
 901 700 l 1,10,11
 835 676 835 676 773.5 664 c 128,-1,12
 712 652 712 652 655 652 c 0,13,14
 490 652 490 652 397.5 739.5 c 128,-1,15
 305 827 305 827 305 981 c 0,16,17
 305 1131 305 1131 395.5 1220.5 c 128,-1,18
 486 1310 486 1310 638 1310 c 0,19,20
 772 1310 772 1310 850 1229 c 128,-1,21
 928 1148 928 1148 928 1007 c 2,0,-1
812 1038 m 1,22,23
 810 1128 810 1128 764 1175.5 c 128,-1,24
 718 1223 718 1223 633 1223 c 0,25,26
 549 1223 549 1223 494.5 1173.5 c 128,-1,27
 440 1124 440 1124 430 1037 c 1,28,-1
 812 1038 l 1,22,23
EndSplineSet
EndChar

StartChar: uni1D4D
Encoding: 7501 7501 334
Width: 1233
Flags: W
LayerCount: 2
Back
Fore
SplineSet
790 987 m 128,-1,1
 790 1103 790 1103 747.5 1163 c 128,-1,2
 705 1223 705 1223 624 1223 c 0,3,4
 539 1223 539 1223 494 1163 c 128,-1,5
 449 1103 449 1103 449 987 c 128,-1,6
 449 871 449 871 494 810 c 128,-1,7
 539 749 539 749 625 749 c 0,8,9
 705 749 705 749 747.5 810 c 128,-1,0
 790 871 790 871 790 987 c 128,-1,1
906 708 m 2,10,11
 906 567 906 567 831 494.5 c 128,-1,12
 756 422 756 422 611 422 c 0,13,14
 563 422 563 422 510.5 429.5 c 128,-1,15
 458 437 458 437 406 452 c 1,16,-1
 406 554 l 1,17,18
 468 529 468 529 518 516.5 c 128,-1,19
 568 504 568 504 611 504 c 0,20,21
 704 504 704 504 747 549.5 c 128,-1,22
 790 595 790 595 790 693 c 2,23,-1
 790 698 l 1,24,-1
 790 768 l 1,25,26
 762 715 762 715 714.5 689.5 c 128,-1,27
 667 664 667 664 598 664 c 0,28,29
 474 664 474 664 400.5 751.5 c 128,-1,30
 327 839 327 839 327 987 c 0,31,32
 327 1134 327 1134 400.5 1222 c 128,-1,33
 474 1310 474 1310 598 1310 c 0,34,35
 666 1310 666 1310 713 1286 c 128,-1,36
 760 1262 760 1262 790 1212 c 1,37,-1
 790 1293 l 1,38,-1
 906 1293 l 1,39,-1
 906 708 l 2,10,11
EndSplineSet
EndChar

StartChar: uni1D4F
Encoding: 7503 7503 335
Width: 1233
Flags: W
LayerCount: 2
Back
Fore
SplineSet
312 1539 m 1,0,-1
 432 1539 l 1,1,-1
 432 1035 l 1,2,-1
 736 1295 l 1,3,-1
 877 1295 l 1,4,-1
 599 1059 l 1,5,-1
 921 668 l 1,6,-1
 779 668 l 1,7,-1
 518 992 l 1,8,-1
 432 919 l 1,9,-1
 432 668 l 1,10,-1
 312 668 l 1,11,-1
 312 1539 l 1,0,-1
EndSplineSet
EndChar

StartChar: uni1D50
Encoding: 7504 7504 336
Width: 1233
Flags: W
LayerCount: 2
Back
Fore
SplineSet
651 1231 m 1,0,1
 672 1272 672 1272 705 1291 c 128,-1,2
 738 1310 738 1310 785 1310 c 0,3,4
 870 1310 870 1310 905 1251.5 c 128,-1,5
 940 1193 940 1193 940 1031 c 2,6,-1
 940 668 l 1,7,-1
 834 668 l 1,8,-1
 834 1027 l 2,9,10
 834 1160 834 1160 817 1192 c 128,-1,11
 800 1224 800 1224 756 1224 c 0,12,13
 706 1224 706 1224 687.5 1189.5 c 128,-1,14
 669 1155 669 1155 669 1027 c 2,15,-1
 669 668 l 1,16,-1
 563 668 l 1,17,-1
 563 1027 l 2,18,19
 563 1161 563 1161 545 1192.5 c 128,-1,20
 527 1224 527 1224 480 1224 c 0,21,22
 434 1224 434 1224 416.5 1189.5 c 128,-1,23
 399 1155 399 1155 399 1027 c 2,24,-1
 399 668 l 1,25,-1
 293 668 l 1,26,-1
 293 1295 l 1,27,-1
 399 1295 l 1,28,-1
 399 1241 l 1,29,30
 419 1275 419 1275 450.5 1292.5 c 128,-1,31
 482 1310 482 1310 521 1310 c 0,32,33
 569 1310 569 1310 601 1290.5 c 128,-1,34
 633 1271 633 1271 651 1231 c 1,0,1
EndSplineSet
EndChar

StartChar: uni1D52
Encoding: 7506 7506 337
Width: 1233
Flags: W
LayerCount: 2
Back
Fore
SplineSet
616 1223 m 0,0,1
 528 1223 528 1223 482.5 1162 c 128,-1,2
 437 1101 437 1101 437 981 c 0,3,4
 437 862 437 862 482.5 800.5 c 128,-1,5
 528 739 528 739 616 739 c 0,6,7
 705 739 705 739 750.5 800.5 c 128,-1,8
 796 862 796 862 796 981 c 0,9,10
 796 1101 796 1101 750.5 1162 c 128,-1,11
 705 1223 705 1223 616 1223 c 0,0,1
616 1310 m 128,-1,13
 763 1310 763 1310 841 1225.5 c 128,-1,14
 919 1141 919 1141 919 981 c 0,15,16
 919 820 919 820 841.5 736 c 128,-1,17
 764 652 764 652 616 652 c 0,18,19
 469 652 469 652 391.5 736 c 128,-1,20
 314 820 314 820 314 981 c 0,21,22
 314 1141 314 1141 391.5 1225.5 c 128,-1,12
 469 1310 469 1310 616 1310 c 128,-1,13
EndSplineSet
EndChar

StartChar: uni1D56
Encoding: 7510 7510 338
Width: 1233
Flags: W
LayerCount: 2
Back
Fore
SplineSet
444 747 m 1,0,-1
 444 429 l 1,1,-1
 327 429 l 1,2,-1
 327 1295 l 1,3,-1
 444 1295 l 1,4,-1
 444 1215 l 1,5,6
 473 1262 473 1262 521 1286 c 128,-1,7
 569 1310 569 1310 632 1310 c 0,8,9
 760 1310 760 1310 833 1222 c 128,-1,10
 906 1134 906 1134 906 979 c 0,11,12
 906 826 906 826 833 739 c 128,-1,13
 760 652 760 652 632 652 c 0,14,15
 568 652 568 652 520 676 c 128,-1,16
 472 700 472 700 444 747 c 1,0,-1
784 981 m 128,-1,18
 784 1101 784 1101 741.5 1162 c 128,-1,19
 699 1223 699 1223 615 1223 c 128,-1,20
 531 1223 531 1223 487.5 1161.5 c 128,-1,21
 444 1100 444 1100 444 981 c 128,-1,22
 444 862 444 862 487.5 800.5 c 128,-1,23
 531 739 531 739 615 739 c 128,-1,24
 699 739 699 739 741.5 800 c 128,-1,17
 784 861 784 861 784 981 c 128,-1,18
EndSplineSet
EndChar

StartChar: uni1D57
Encoding: 7511 7511 339
Width: 1233
Flags: W
LayerCount: 2
Back
Fore
SplineSet
637 1473 m 1,0,-1
 637 1295 l 1,1,-1
 900 1295 l 1,2,-1
 900 1215 l 1,3,-1
 637 1215 l 1,4,-1
 637 875 l 2,5,6
 637 805 637 805 666.5 777.5 c 128,-1,7
 696 750 696 750 770 750 c 2,8,-1
 900 750 l 1,9,-1
 900 668 l 1,10,-1
 759 668 l 2,11,12
 628 668 628 668 574.5 714.5 c 128,-1,13
 521 761 521 761 521 875 c 2,14,-1
 521 1215 l 1,15,-1
 333 1215 l 1,16,-1
 333 1295 l 1,17,-1
 521 1295 l 1,18,-1
 521 1473 l 1,19,-1
 637 1473 l 1,0,-1
EndSplineSet
EndChar

StartChar: uni1D58
Encoding: 7512 7512 340
Width: 1233
Flags: W
LayerCount: 2
Back
Fore
SplineSet
347 905 m 2,0,-1
 347 1294 l 1,1,-1
 463 1294 l 1,2,-1
 463 905 l 2,3,4
 463 821 463 821 496.5 781 c 128,-1,5
 530 741 530 741 601 741 c 0,6,7
 683 741 683 741 726.5 792.5 c 128,-1,8
 770 844 770 844 770 940 c 2,9,-1
 770 1294 l 1,10,-1
 886 1294 l 1,11,-1
 886 668 l 1,12,-1
 770 668 l 1,13,-1
 770 762 l 1,14,15
 739 708 739 708 685.5 680 c 128,-1,16
 632 652 632 652 561 652 c 0,17,18
 453 652 453 652 400 715 c 128,-1,19
 347 778 347 778 347 905 c 2,0,-1
EndSplineSet
EndChar

StartChar: uni1D5B
Encoding: 7515 7515 341
Width: 1233
Flags: W
LayerCount: 2
Back
Fore
SplineSet
291 1295 m 1,0,-1
 411 1295 l 1,1,-1
 616 769 l 1,2,-1
 822 1295 l 1,3,-1
 942 1295 l 1,4,-1
 691 668 l 1,5,-1
 542 668 l 1,6,-1
 291 1295 l 1,0,-1
EndSplineSet
EndChar

StartChar: uni1D9C
Encoding: 7580 7580 345
Width: 1233
Flags: W
LayerCount: 2
Back
Fore
SplineSet
889 700 m 1,0,1
 843 676 843 676 793.5 664 c 128,-1,2
 744 652 744 652 692 652 c 0,3,4
 528 652 528 652 436 739 c 128,-1,5
 344 826 344 826 344 981 c 128,-1,6
 344 1136 344 1136 436 1223 c 128,-1,7
 528 1310 528 1310 692 1310 c 0,8,9
 743 1310 743 1310 791.5 1298.5 c 128,-1,10
 840 1287 840 1287 889 1262 c 1,11,-1
 889 1154 l 1,12,13
 843 1190 843 1190 797 1206.5 c 128,-1,14
 751 1223 751 1223 692 1223 c 0,15,16
 583 1223 583 1223 524.5 1160.5 c 128,-1,17
 466 1098 466 1098 466 981 c 0,18,19
 466 865 466 865 525 802 c 128,-1,20
 584 739 584 739 692 739 c 0,21,22
 753 739 753 739 800.5 755.5 c 128,-1,23
 848 772 848 772 889 807 c 1,24,-1
 889 700 l 1,0,1
EndSplineSet
EndChar

StartChar: uni1DA0
Encoding: 7584 7584 346
Width: 1233
Flags: W
LayerCount: 2
Back
Fore
SplineSet
890 1539 m 1,0,-1
 890 1454 l 1,1,-1
 758 1454 l 2,2,3
 696 1454 696 1454 671.5 1431 c 128,-1,4
 647 1408 647 1408 647 1351 c 2,5,-1
 647 1295 l 1,6,-1
 890 1295 l 1,7,-1
 890 1215 l 1,8,-1
 647 1215 l 1,9,-1
 647 668 l 1,10,-1
 531 668 l 1,11,-1
 531 1215 l 1,12,-1
 343 1215 l 1,13,-1
 343 1295 l 1,14,-1
 531 1295 l 1,15,-1
 531 1339 l 2,16,17
 531 1442 531 1442 584.5 1490.5 c 128,-1,18
 638 1539 638 1539 751 1539 c 2,19,-1
 890 1539 l 1,0,-1
EndSplineSet
EndChar

StartChar: uni1DA5
Encoding: 7589 7589 347
Width: 1233
Flags: W
LayerCount: 2
Back
Fore
SplineSet
880 668 m 1,0,-1
 751 668 l 2,1,2
 647 668 647 668 590.5 726.5 c 128,-1,3
 534 785 534 785 534 895 c 2,4,-1
 534 1215 l 1,5,-1
 353 1215 l 1,6,-1
 353 1295 l 1,7,-1
 650 1295 l 1,8,-1
 650 895 l 2,9,10
 649 825 649 825 677.5 790 c 128,-1,11
 706 755 706 755 763 755 c 2,12,-1
 880 755 l 1,13,-1
 880 668 l 1,0,-1
EndSplineSet
EndChar

StartChar: uni1DBB
Encoding: 7611 7611 348
Width: 1233
Flags: W
LayerCount: 2
Back
Fore
SplineSet
368 1296 m 1,0,-1
 880 1296 l 1,1,-1
 880 1202 l 1,2,-1
 475 752 l 1,3,-1
 880 752 l 1,4,-1
 880 668 l 1,5,-1
 353 668 l 1,6,-1
 353 763 l 1,7,-1
 758 1214 l 1,8,-1
 368 1214 l 1,9,-1
 368 1296 l 1,0,-1
EndSplineSet
EndChar

StartChar: uni1E02
Encoding: 7682 7682 349
Width: 1233
Flags: W
LayerCount: 2
Back
Fore
SplineSet
513 1872 m 1
 718 1872 l 1
 718 1667 l 1
 513 1667 l 1
 513 1872 l 1
EndSplineSet
Refer: 34 66 N 1 0 0 1 0 0 2
EndChar

StartChar: uni1E03
Encoding: 7683 7683 350
Width: 1233
Flags: W
LayerCount: 2
Back
Fore
SplineSet
563 1552 m 1
 768 1552 l 1
 768 1348 l 1
 563 1348 l 1
 563 1552 l 1
EndSplineSet
Refer: 66 98 N 1 0 0 1 0 0 2
EndChar

StartChar: uni1E0A
Encoding: 7690 7690 351
Width: 1233
Flags: W
LayerCount: 2
Back
Fore
SplineSet
464 1872 m 1
 669 1872 l 1
 669 1667 l 1
 464 1667 l 1
 464 1872 l 1
EndSplineSet
Refer: 36 68 N 1 0 0 1 0 0 2
EndChar

StartChar: uni1E0B
Encoding: 7691 7691 352
Width: 1233
Flags: W
LayerCount: 2
Back
Fore
SplineSet
464 1552 m 1
 669 1552 l 1
 669 1348 l 1
 464 1348 l 1
 464 1552 l 1
EndSplineSet
Refer: 68 100 N 1 0 0 1 0 0 2
EndChar

StartChar: uni1E1E
Encoding: 7710 7710 353
Width: 1233
Flags: W
LayerCount: 2
Back
Fore
SplineSet
567 1872 m 1
 772 1872 l 1
 772 1667 l 1
 567 1667 l 1
 567 1872 l 1
EndSplineSet
Refer: 38 70 N 1 0 0 1 0 0 2
EndChar

StartChar: uni1E1F
Encoding: 7711 7711 354
Width: 1233
Flags: W
LayerCount: 2
Back
Fore
SplineSet
513 1872 m 1
 718 1872 l 1
 718 1667 l 1
 513 1667 l 1
 513 1872 l 1
EndSplineSet
Refer: 70 102 N 1 0 0 1 0 0 2
EndChar

StartChar: uni1E22
Encoding: 7714 7714 355
Width: 1233
Flags: W
LayerCount: 2
Back
Fore
SplineSet
513 1872 m 1
 718 1872 l 1
 718 1667 l 1
 513 1667 l 1
 513 1872 l 1
EndSplineSet
Refer: 40 72 N 1 0 0 1 0 0 2
EndChar

StartChar: uni1E23
Encoding: 7715 7715 356
Width: 1233
Flags: W
LayerCount: 2
Back
Fore
SplineSet
513 1872 m 1
 718 1872 l 1
 718 1667 l 1
 513 1667 l 1
 513 1872 l 1
EndSplineSet
Refer: 72 104 N 1 0 0 1 0 0 2
EndChar

StartChar: uni1E26
Encoding: 7718 7718 357
Width: 1233
Flags: W
LayerCount: 2
Back
Fore
SplineSet
319 1845 m 1
 522 1845 l 1
 522 1642 l 1
 319 1642 l 1
 319 1845 l 1
711 1845 m 1
 913 1845 l 1
 913 1642 l 1
 711 1642 l 1
 711 1845 l 1
EndSplineSet
Refer: 40 72 N 1 0 0 1 0 0 2
EndChar

StartChar: uni1E40
Encoding: 7744 7744 359
Width: 1233
Flags: W
LayerCount: 2
Back
Fore
SplineSet
513 1872 m 1
 718 1872 l 1
 718 1667 l 1
 513 1667 l 1
 513 1872 l 1
EndSplineSet
Refer: 45 77 N 1 0 0 1 0 0 2
EndChar

StartChar: uni1E41
Encoding: 7745 7745 360
Width: 1233
Flags: W
LayerCount: 2
Back
Fore
SplineSet
513 1552 m 1
 718 1552 l 1
 718 1348 l 1
 513 1348 l 1
 513 1552 l 1
EndSplineSet
Refer: 77 109 N 1 0 0 1 0 0 2
EndChar

StartChar: uni1E44
Encoding: 7748 7748 361
Width: 1233
Flags: W
LayerCount: 2
Back
Fore
SplineSet
513 1872 m 1
 718 1872 l 1
 718 1667 l 1
 513 1667 l 1
 513 1872 l 1
EndSplineSet
Refer: 46 78 N 1 0 0 1 0 0 2
EndChar

StartChar: uni1E45
Encoding: 7749 7749 362
Width: 1233
Flags: W
LayerCount: 2
Back
Fore
SplineSet
513 1552 m 1
 718 1552 l 1
 718 1348 l 1
 513 1348 l 1
 513 1552 l 1
EndSplineSet
Refer: 78 110 N 1 0 0 1 0 0 2
EndChar

StartChar: uni1E56
Encoding: 7766 7766 363
Width: 1233
Flags: W
LayerCount: 2
Back
Fore
SplineSet
513 1872 m 1
 718 1872 l 1
 718 1667 l 1
 513 1667 l 1
 513 1872 l 1
EndSplineSet
Refer: 48 80 N 1 0 0 1 0 0 2
EndChar

StartChar: uni1E57
Encoding: 7767 7767 364
Width: 1233
Flags: W
LayerCount: 2
Back
Fore
SplineSet
513 1552 m 1
 718 1552 l 1
 718 1348 l 1
 513 1348 l 1
 513 1552 l 1
EndSplineSet
Refer: 80 112 N 1 0 0 1 0 0 2
EndChar

StartChar: uni1E58
Encoding: 7768 7768 365
Width: 1233
Flags: W
LayerCount: 2
Back
Fore
SplineSet
464 1872 m 1
 669 1872 l 1
 669 1667 l 1
 464 1667 l 1
 464 1872 l 1
EndSplineSet
Refer: 50 82 N 1 0 0 1 0 0 2
EndChar

StartChar: uni1E59
Encoding: 7769 7769 366
Width: 1233
Flags: W
LayerCount: 2
Back
Fore
SplineSet
513 1552 m 1
 718 1552 l 1
 718 1348 l 1
 513 1348 l 1
 513 1552 l 1
EndSplineSet
Refer: 82 114 N 1 0 0 1 0 0 2
EndChar

StartChar: uni1E60
Encoding: 7776 7776 367
Width: 1233
Flags: W
LayerCount: 2
Back
Fore
SplineSet
513 1872 m 1
 718 1872 l 1
 718 1667 l 1
 513 1667 l 1
 513 1872 l 1
EndSplineSet
Refer: 51 83 N 1 0 0 1 0 0 2
EndChar

StartChar: uni1E61
Encoding: 7777 7777 368
Width: 1233
Flags: W
LayerCount: 2
Back
Fore
SplineSet
513 1552 m 1
 718 1552 l 1
 718 1348 l 1
 513 1348 l 1
 513 1552 l 1
EndSplineSet
Refer: 83 115 N 1 0 0 1 0 0 2
EndChar

StartChar: uni1E6A
Encoding: 7786 7786 369
Width: 1233
Flags: W
LayerCount: 2
Back
Fore
SplineSet
513 1872 m 1
 718 1872 l 1
 718 1667 l 1
 513 1667 l 1
 513 1872 l 1
EndSplineSet
Refer: 52 84 N 1 0 0 1 0 0 2
EndChar

StartChar: uni1E6B
Encoding: 7787 7787 370
Width: 1233
Flags: W
LayerCount: 2
Back
Fore
SplineSet
513 1872 m 1
 718 1872 l 1
 718 1667 l 1
 513 1667 l 1
 513 1872 l 1
EndSplineSet
Refer: 84 116 N 1 0 0 1 0 0 2
EndChar

StartChar: uni1E86
Encoding: 7814 7814 373
Width: 1233
Flags: W
LayerCount: 2
Back
Fore
SplineSet
513 1872 m 1
 718 1872 l 1
 718 1667 l 1
 513 1667 l 1
 513 1872 l 1
EndSplineSet
Refer: 55 87 N 1 0 0 1 0 0 2
EndChar

StartChar: uni1E87
Encoding: 7815 7815 374
Width: 1233
Flags: W
LayerCount: 2
Back
Fore
SplineSet
513 1552 m 1
 718 1552 l 1
 718 1348 l 1
 513 1348 l 1
 513 1552 l 1
EndSplineSet
Refer: 87 119 N 1 0 0 1 0 0 2
EndChar

StartChar: uni1E8A
Encoding: 7818 7818 375
Width: 1233
Flags: W
LayerCount: 2
Back
Fore
SplineSet
513 1872 m 1
 718 1872 l 1
 718 1667 l 1
 513 1667 l 1
 513 1872 l 1
EndSplineSet
Refer: 56 88 N 1 0 0 1 0 0 2
EndChar

StartChar: uni1E8B
Encoding: 7819 7819 376
Width: 1233
Flags: W
LayerCount: 2
Back
Fore
SplineSet
513 1552 m 1
 718 1552 l 1
 718 1348 l 1
 513 1348 l 1
 513 1552 l 1
EndSplineSet
Refer: 88 120 N 1 0 0 1 0 0 2
EndChar

StartChar: uni1E8C
Encoding: 7820 7820 377
Width: 1233
Flags: W
LayerCount: 2
Back
Fore
SplineSet
337 1845 m 1
 540 1845 l 1
 540 1642 l 1
 337 1642 l 1
 337 1845 l 1
729 1845 m 1
 931 1845 l 1
 931 1642 l 1
 729 1642 l 1
 729 1845 l 1
EndSplineSet
Refer: 56 88 N 1 0 0 1 0 0 2
EndChar

StartChar: uni1E8E
Encoding: 7822 7822 379
Width: 1233
Flags: W
LayerCount: 2
Back
Fore
SplineSet
513 1872 m 1
 718 1872 l 1
 718 1667 l 1
 513 1667 l 1
 513 1872 l 1
EndSplineSet
Refer: 57 89 N 1 0 0 1 0 0 2
EndChar

StartChar: uni1E8F
Encoding: 7823 7823 380
Width: 1233
Flags: W
LayerCount: 2
Back
Fore
SplineSet
513 1552 m 1
 718 1552 l 1
 718 1348 l 1
 513 1348 l 1
 513 1552 l 1
EndSplineSet
Refer: 89 121 N 1 0 0 1 0 0 2
EndChar

StartChar: quotedblleft
Encoding: 8220 8220 383
Width: 1233
Flags: W
LayerCount: 2
Back
Fore
SplineSet
924 967 m 1,0,-1
 672 967 l 1,1,-1
 672 1174 l 1,2,-1
 868 1556 l 1,3,-1
 1022 1556 l 1,4,-1
 924 1174 l 1,5,-1
 924 967 l 1,0,-1
465 967 m 1,6,-1
 211 967 l 1,7,-1
 211 1174 l 1,8,-1
 410 1556 l 1,9,-1
 563 1556 l 1,10,-1
 465 1174 l 1,11,-1
 465 967 l 1,6,-1
EndSplineSet
EndChar

StartChar: quotedblright
Encoding: 8221 8221 384
Width: 1233
Flags: W
LayerCount: 2
Back
Fore
SplineSet
768 1556 m 1,0,-1
 1020 1556 l 1,1,-1
 1020 1350 l 1,2,-1
 823 967 l 1,3,-1
 670 967 l 1,4,-1
 768 1350 l 1,5,-1
 768 1556 l 1,0,-1
309 1556 m 1,6,-1
 561 1556 l 1,7,-1
 561 1350 l 1,8,-1
 365 967 l 1,9,-1
 211 967 l 1,10,-1
 309 1350 l 1,11,-1
 309 1556 l 1,6,-1
EndSplineSet
EndChar

StartChar: quotedblbase
Encoding: 8222 8222 385
Width: 1233
Flags: W
LayerCount: 2
Back
Fore
SplineSet
768 303 m 1,0,-1
 1020 303 l 1,1,-1
 1020 96 l 1,2,-1
 823 -287 l 1,3,-1
 670 -287 l 1,4,-1
 768 96 l 1,5,-1
 768 303 l 1,0,-1
309 303 m 1,6,-1
 561 303 l 1,7,-1
 561 96 l 1,8,-1
 365 -287 l 1,9,-1
 211 -287 l 1,10,-1
 309 96 l 1,11,-1
 309 303 l 1,6,-1
EndSplineSet
EndChar

StartChar: uni201F
Encoding: 8223 8223 386
Width: 1233
Flags: W
LayerCount: 2
Back
Fore
SplineSet
463 1556 m 1,0,-1
 463 1350 l 1,1,-1
 561 967 l 1,2,-1
 408 967 l 1,3,-1
 211 1350 l 1,4,-1
 211 1556 l 1,5,-1
 463 1556 l 1,0,-1
922 1556 m 1,6,-1
 922 1350 l 1,7,-1
 1020 967 l 1,8,-1
 866 967 l 1,9,-1
 670 1350 l 1,10,-1
 670 1556 l 1,11,-1
 922 1556 l 1,6,-1
EndSplineSet
EndChar

StartChar: dagger
Encoding: 8224 8224 387
Width: 1233
Flags: W
LayerCount: 2
Back
Fore
SplineSet
528 1493 m 1,0,-1
 705 1493 l 1,1,-1
 705 1073 l 1,2,-1
 1071 1073 l 1,3,-1
 1071 920 l 1,4,-1
 705 920 l 1,5,-1
 705 -197 l 1,6,-1
 528 -197 l 1,7,-1
 528 920 l 1,8,-1
 162 920 l 1,9,-1
 162 1073 l 1,10,-1
 528 1073 l 1,11,-1
 528 1493 l 1,0,-1
EndSplineSet
EndChar

StartChar: daggerdbl
Encoding: 8225 8225 388
Width: 1233
Flags: W
LayerCount: 2
Back
Fore
SplineSet
1071 223 m 1,0,-1
 705 223 l 1,1,-1
 705 -197 l 1,2,-1
 528 -197 l 1,3,-1
 528 223 l 1,4,-1
 162 223 l 1,5,-1
 162 377 l 1,6,-1
 528 377 l 1,7,-1
 528 920 l 1,8,-1
 162 920 l 1,9,-1
 162 1073 l 1,10,-1
 528 1073 l 1,11,-1
 528 1493 l 1,12,-1
 705 1493 l 1,13,-1
 705 1073 l 1,14,-1
 1071 1073 l 1,15,-1
 1071 920 l 1,16,-1
 705 920 l 1,17,-1
 705 377 l 1,18,-1
 1071 377 l 1,19,-1
 1071 223 l 1,0,-1
EndSplineSet
EndChar

StartChar: ellipsis
Encoding: 8230 8230 389
Width: 1233
Flags: W
LayerCount: 2
Back
Fore
SplineSet
80 305 m 1,0,-1
 332 305 l 1,1,-1
 332 0 l 1,2,-1
 80 0 l 1,3,-1
 80 305 l 1,0,-1
899 305 m 1,4,-1
 1151 305 l 1,5,-1
 1151 0 l 1,6,-1
 899 0 l 1,7,-1
 899 305 l 1,4,-1
489 305 m 1,8,-1
 741 305 l 1,9,-1
 741 0 l 1,10,-1
 489 0 l 1,11,-1
 489 305 l 1,8,-1
EndSplineSet
EndChar

StartChar: minute
Encoding: 8242 8242 390
Width: 1233
Flags: W
LayerCount: 2
Back
Fore
SplineSet
428 1120 m 1,0,-1
 602 1493 l 1,1,-1
 804 1493 l 1,2,-1
 516 1120 l 1,3,-1
 428 1120 l 1,0,-1
EndSplineSet
EndChar

StartChar: guilsinglleft
Encoding: 8249 8249 393
Width: 1233
Flags: W
LayerCount: 2
Back
Fore
SplineSet
815 1059 m 1,0,-1
 815 868 l 1,1,-1
 514 600 l 1,2,-1
 815 332 l 1,3,-1
 815 141 l 1,4,-1
 346 559 l 1,5,-1
 346 641 l 1,6,-1
 815 1059 l 1,0,-1
EndSplineSet
EndChar

StartChar: guilsinglright
Encoding: 8250 8250 394
Width: 1233
Flags: W
LayerCount: 2
Back
Fore
SplineSet
420 1059 m 1,0,-1
 889 641 l 1,1,-1
 889 559 l 1,2,-1
 420 141 l 1,3,-1
 420 332 l 1,4,-1
 721 600 l 1,5,-1
 420 868 l 1,6,-1
 420 1059 l 1,0,-1
EndSplineSet
EndChar

StartChar: uni2047
Encoding: 8263 8263 396
Width: 1233
Flags: W
LayerCount: 2
Back
Fore
SplineSet
970 401 m 1,0,-1
 776 401 l 1,1,-1
 776 555 l 2,2,3
 776 653 776 653 795 722 c 0,4,5
 815 788 815 788 870 872 c 2,6,-1
 928 961 l 2,7,8
 969 1020 969 1020 984 1064 c 0,9,10
 999 1108 999 1108 999 1157 c 0,11,12
 999 1230 999 1230 957 1272 c 0,13,14
 920 1309 920 1309 858 1313 c 0,15,16
 802 1315 802 1315 763 1293 c 0,17,18
 706 1258 706 1258 642 1190 c 1,19,-1
 642 1407 l 1,20,21
 708 1469 708 1469 765 1492 c 0,22,23
 846 1526 846 1526 937 1520 c 0,24,25
 1063 1513 1063 1513 1130 1424 c 0,26,27
 1201 1328 1201 1328 1201 1167 c 0,28,29
 1201 1091 1201 1091 1180 1026 c 0,30,31
 1158 960 1158 960 1097 868 c 2,32,-1
 1040 782 l 2,33,34
 994 713 994 713 982 674 c 0,35,36
 970 632 970 632 970 571 c 2,37,-1
 970 401 l 1,0,-1
771 254 m 1,38,-1
 974 254 l 1,39,-1
 974 0 l 1,40,-1
 771 0 l 1,41,-1
 771 254 l 1,38,-1
363 401 m 1,42,-1
 169 401 l 1,43,-1
 169 555 l 2,44,45
 169 653 169 653 188 722 c 0,46,47
 208 788 208 788 263 872 c 2,48,-1
 321 961 l 2,49,50
 362 1020 362 1020 377 1064 c 0,51,52
 392 1108 392 1108 392 1157 c 0,53,54
 392 1230 392 1230 350 1272 c 0,55,56
 313 1309 313 1309 251 1313 c 0,57,58
 195 1315 195 1315 156 1293 c 0,59,60
 99 1258 99 1258 35 1190 c 1,61,-1
 35 1407 l 1,62,63
 101 1469 101 1469 158 1492 c 0,64,65
 239 1526 239 1526 330 1520 c 0,66,67
 456 1513 456 1513 523 1424 c 0,68,69
 594 1328 594 1328 594 1167 c 0,70,71
 594 1091 594 1091 573 1026 c 0,72,73
 551 960 551 960 490 868 c 2,74,-1
 433 782 l 2,75,76
 387 713 387 713 375 674 c 0,77,78
 363 632 363 632 363 571 c 2,79,-1
 363 401 l 1,42,-1
164 254 m 1,80,-1
 367 254 l 1,81,-1
 367 0 l 1,82,-1
 164 0 l 1,83,-1
 164 254 l 1,80,-1
EndSplineSet
EndChar

StartChar: uni2048
Encoding: 8264 8264 397
Width: 1233
Flags: W
LayerCount: 2
Back
Fore
SplineSet
363 401 m 1
 169 401 l 1
 169 555 l 2
 169 653 169 653 188 722 c 0
 208 788 208 788 263 872 c 2
 321 961 l 2
 362 1020 362 1020 377 1064 c 0
 392 1108 392 1108 392 1157 c 0
 392 1230 392 1230 350 1272 c 0
 313 1309 313 1309 251 1313 c 0
 195 1315 195 1315 156 1293 c 0
 99 1258 99 1258 35 1190 c 1
 35 1407 l 1
 101 1469 101 1469 158 1492 c 0
 239 1526 239 1526 330 1520 c 0
 456 1513 456 1513 523 1424 c 0
 594 1328 594 1328 594 1167 c 0
 594 1091 594 1091 573 1026 c 0
 551 960 551 960 490 868 c 2
 433 782 l 2
 387 713 387 713 375 674 c 0
 363 632 363 632 363 571 c 2
 363 401 l 1
164 254 m 1
 367 254 l 1
 367 0 l 1
 164 0 l 1
 164 254 l 1
EndSplineSet
Refer: 1 33 N 1 0 0 1 308 0 2
EndChar

StartChar: uni2049
Encoding: 8265 8265 398
Width: 1233
Flags: W
LayerCount: 2
Back
Fore
SplineSet
970 401 m 1
 776 401 l 1
 776 555 l 2
 776 653 776 653 795 722 c 0
 815 788 815 788 870 872 c 2
 928 961 l 2
 969 1020 969 1020 984 1064 c 0
 999 1108 999 1108 999 1157 c 0
 999 1230 999 1230 957 1272 c 0
 920 1309 920 1309 858 1313 c 0
 802 1315 802 1315 763 1293 c 0
 706 1258 706 1258 642 1190 c 1
 642 1407 l 1
 708 1469 708 1469 765 1492 c 0
 846 1526 846 1526 937 1520 c 0
 1063 1513 1063 1513 1130 1424 c 0
 1201 1328 1201 1328 1201 1167 c 0
 1201 1091 1201 1091 1180 1026 c 0
 1158 960 1158 960 1097 868 c 2
 1040 782 l 2
 994 713 994 713 982 674 c 0
 970 632 970 632 970 571 c 2
 970 401 l 1
771 254 m 1
 974 254 l 1
 974 0 l 1
 771 0 l 1
 771 254 l 1
EndSplineSet
Refer: 1 33 N 1 0 0 1 -307 0 3
EndChar

StartChar: uni2070
Encoding: 8304 8304 399
Width: 1233
Flags: W
LayerCount: 2
Back
Fore
SplineSet
534 1088 m 128,-1,1
 534 1120 534 1120 558 1143 c 0,2,3
 581 1165 581 1165 615 1165 c 0,4,5
 652 1165 652 1165 675 1143 c 0,6,7
 699 1120 699 1120 699 1088 c 0,8,9
 699 1055 699 1055 675 1035 c 0,10,11
 650 1014 650 1014 615 1014 c 128,-1,12
 580 1014 580 1014 557 1035 c 128,-1,0
 534 1056 534 1056 534 1088 c 128,-1,1
616 1431 m 0,13,14
 529 1431 529 1431 486 1346 c 0,15,16
 442 1261 442 1261 442 1086 c 0,17,18
 442 912 442 912 486 827 c 0,19,20
 529 742 529 742 616 742 c 0,21,22
 704 742 704 742 747 827 c 0,23,24
 791 912 791 912 791 1086 c 0,25,26
 791 1261 791 1261 747 1346 c 0,27,28
 704 1431 704 1431 616 1431 c 0,13,14
616 1520 m 0,29,30
 765 1520 765 1520 841 1410 c 0,31,32
 917 1301 917 1301 917 1086 c 0,33,34
 917 872 917 872 841 762 c 0,35,36
 765 653 765 653 616 653 c 0,37,38
 466 653 466 653 392 762 c 0,39,40
 317 872 317 872 317 1086 c 0,41,42
 317 1301 317 1301 392 1410 c 0,43,44
 468 1520 468 1520 616 1520 c 0,29,30
EndSplineSet
EndChar

StartChar: uni2074
Encoding: 8308 8308 400
Width: 1233
Flags: W
LayerCount: 2
Back
Fore
SplineSet
631 1503 m 1,0,-1
 793 1503 l 1,1,-1
 793 965 l 1,2,-1
 909 965 l 1,3,-1
 909 854 l 1,4,-1
 793 854 l 1,5,-1
 793 668 l 1,6,-1
 655 668 l 1,7,-1
 655 854 l 1,8,-1
 268 854 l 1,9,-1
 268 975 l 1,10,-1
 631 1503 l 1,0,-1
655 1378 m 1,11,-1
 381 965 l 1,12,-1
 655 965 l 1,13,-1
 655 1378 l 1,11,-1
EndSplineSet
EndChar

StartChar: uni2075
Encoding: 8309 8309 401
Width: 1233
Flags: W
LayerCount: 2
Back
Fore
SplineSet
358 1503 m 1,0,-1
 828 1503 l 1,1,-1
 828 1408 l 1,2,-1
 473 1408 l 1,3,-1
 473 1204 l 1,4,5
 499 1213 499 1213 526 1217 c 128,-1,6
 553 1221 553 1221 581 1221 c 0,7,8
 725 1221 725 1221 809 1144 c 0,9,10
 893 1068 893 1068 893 937 c 0,11,12
 893 805 893 805 805 729 c 0,13,14
 716 653 716 653 563 653 c 0,15,16
 489 653 489 653 428 662 c 128,-1,17
 367 671 367 671 319 689 c 1,18,-1
 319 803 l 1,19,20
 371 777 371 777 434 762 c 0,21,22
 491 748 491 748 551 748 c 0,23,24
 655 748 655 748 711 797 c 128,-1,25
 767 846 767 846 767 937 c 0,26,27
 767 1026 767 1026 709 1076 c 128,-1,28
 651 1126 651 1126 548 1126 c 0,29,30
 497 1126 497 1126 450 1116 c 0,31,32
 402 1105 402 1105 358 1085 c 1,33,-1
 358 1503 l 1,0,-1
EndSplineSet
EndChar

StartChar: uni2076
Encoding: 8310 8310 402
Width: 1233
Flags: W
LayerCount: 2
Back
Fore
SplineSet
861 1487 m 1,0,-1
 861 1383 l 1,1,2
 822 1403 822 1403 778 1414 c 128,-1,3
 734 1425 734 1425 686 1425 c 0,4,5
 567 1425 567 1425 505 1344 c 0,6,7
 444 1263 444 1263 444 1105 c 1,8,9
 476 1164 476 1164 526 1192 c 0,10,11
 579 1222 579 1222 647 1222 c 0,12,13
 782 1222 782 1222 855 1148 c 0,14,15
 929 1074 929 1074 929 937 c 0,16,17
 929 802 929 802 853 727 c 0,18,19
 777 653 777 653 640 653 c 0,20,21
 479 653 479 653 404 757 c 128,-1,22
 329 861 329 861 329 1086 c 0,23,24
 329 1298 329 1298 419 1409 c 128,-1,25
 509 1520 509 1520 680 1520 c 0,26,27
 726 1520 726 1520 772 1511 c 0,28,29
 818 1503 818 1503 861 1487 c 1,0,-1
638 1133 m 0,30,31
 558 1133 558 1133 512 1081 c 128,-1,32
 466 1029 466 1029 466 937 c 128,-1,33
 466 845 466 845 512 793 c 128,-1,34
 558 741 558 741 638 741 c 0,35,36
 721 741 721 741 763 791 c 0,37,38
 805 840 805 840 805 937 c 128,-1,39
 805 1034 805 1034 763 1083 c 0,40,41
 721 1133 721 1133 638 1133 c 0,30,31
EndSplineSet
EndChar

StartChar: uni2077
Encoding: 8311 8311 403
Width: 1233
Flags: W
LayerCount: 2
Back
Fore
SplineSet
317 1503 m 1,0,-1
 901 1503 l 1,1,-1
 901 1455 l 1,2,-1
 569 668 l 1,3,-1
 438 668 l 1,4,-1
 761 1408 l 1,5,-1
 317 1408 l 1,6,-1
 317 1503 l 1,0,-1
EndSplineSet
EndChar

StartChar: uni2078
Encoding: 8312 8312 404
Width: 1233
Flags: W
LayerCount: 2
Back
Fore
SplineSet
616 1065 m 0,0,1
 532 1065 532 1065 487 1022 c 0,2,3
 441 980 441 980 441 903 c 128,-1,4
 441 826 441 826 487 783 c 0,5,6
 534 740 534 740 616 740 c 0,7,8
 701 740 701 740 746 782 c 0,9,10
 792 825 792 825 792 903 c 0,11,12
 792 980 792 980 746 1022 c 0,13,14
 699 1065 699 1065 616 1065 c 0,0,1
507 1112 m 1,15,16
 427 1130 427 1130 382 1180 c 0,17,18
 337 1231 337 1231 337 1302 c 0,19,20
 337 1401 337 1401 412 1460 c 0,21,22
 487 1518 487 1518 616 1518 c 0,23,24
 746 1518 746 1518 821 1460 c 0,25,26
 896 1401 896 1401 896 1302 c 0,27,28
 896 1231 896 1231 851 1180 c 0,29,30
 806 1130 806 1130 726 1112 c 1,31,32
 819 1093 819 1093 868 1037 c 0,33,34
 918 981 918 981 918 892 c 0,35,36
 918 779 918 779 838 716 c 0,37,38
 758 652 758 652 616 652 c 0,39,40
 475 652 475 652 395 715 c 0,41,42
 315 779 315 779 315 891 c 0,43,44
 315 981 315 981 365 1037 c 0,45,46
 414 1093 414 1093 507 1112 c 1,15,16
462 1291 m 0,47,48
 462 1224 462 1224 501 1189 c 0,49,50
 541 1153 541 1153 616 1153 c 0,51,52
 692 1153 692 1153 732 1189 c 0,53,54
 771 1224 771 1224 771 1291 c 0,55,56
 771 1359 771 1359 732 1395 c 128,-1,57
 693 1431 693 1431 616 1431 c 0,58,59
 541 1431 541 1431 501 1395 c 0,60,61
 462 1359 462 1359 462 1291 c 0,47,48
EndSplineSet
EndChar

StartChar: uni2079
Encoding: 8313 8313 405
Width: 1233
Flags: W
LayerCount: 2
Back
Fore
SplineSet
595 1039 m 0,0,1
 675 1039 675 1039 720 1091 c 0,2,3
 766 1143 766 1143 766 1236 c 0,4,5
 766 1328 766 1328 720 1380 c 0,6,7
 675 1432 675 1432 595 1432 c 0,8,9
 512 1432 512 1432 469 1382 c 0,10,11
 427 1333 427 1333 427 1236 c 0,12,13
 427 1138 427 1138 469 1088 c 0,14,15
 511 1039 511 1039 595 1039 c 0,0,1
371 686 m 1,16,-1
 371 790 l 1,17,18
 411 770 411 770 455 759 c 128,-1,19
 499 748 499 748 546 748 c 0,20,21
 666 748 666 748 727 829 c 0,22,23
 788 909 788 909 788 1067 c 1,24,25
 759 1011 759 1011 706 981 c 128,-1,26
 653 951 653 951 585 951 c 0,27,28
 449 951 449 951 377 1025 c 0,29,30
 304 1100 304 1100 304 1237 c 0,31,32
 304 1372 304 1372 379 1446 c 0,33,34
 455 1520 455 1520 592 1520 c 0,35,36
 754 1520 754 1520 829 1416 c 0,37,38
 904 1311 904 1311 904 1086 c 0,39,40
 904 875 904 875 814 764 c 0,41,42
 723 653 723 653 551 653 c 0,43,44
 506 653 506 653 460 661 c 0,45,46
 414 670 414 670 371 686 c 1,16,-1
EndSplineSet
EndChar

StartChar: uni207A
Encoding: 8314 8314 406
Width: 1233
Flags: W
LayerCount: 2
Back
Fore
SplineSet
670 1324 m 1,0,-1
 670 1075 l 1,1,-1
 950 1075 l 1,2,-1
 950 980 l 1,3,-1
 670 980 l 1,4,-1
 670 731 l 1,5,-1
 564 731 l 1,6,-1
 564 980 l 1,7,-1
 284 980 l 1,8,-1
 284 1075 l 1,9,-1
 564 1075 l 1,10,-1
 564 1324 l 1,11,-1
 670 1324 l 1,0,-1
EndSplineSet
EndChar

StartChar: uni207B
Encoding: 8315 8315 407
Width: 1233
Flags: W
LayerCount: 2
Back
Fore
SplineSet
284 1075 m 1,0,-1
 950 1075 l 1,1,-1
 950 980 l 1,2,-1
 284 980 l 1,3,-1
 284 1075 l 1,0,-1
EndSplineSet
EndChar

StartChar: uni207D
Encoding: 8317 8317 408
Width: 1233
Flags: W
LayerCount: 2
Back
Fore
SplineSet
762 1538 m 1,0,1
 678 1411 678 1411 636 1284 c 128,-1,2
 594 1157 594 1157 594 1028 c 0,3,4
 594 900 594 900 636 773 c 128,-1,5
 678 646 678 646 762 517 c 1,6,-1
 660 517 l 1,7,8
 566 650 566 650 519 776.5 c 128,-1,9
 472 903 472 903 472 1028 c 128,-1,10
 472 1153 472 1153 519 1279.5 c 128,-1,11
 566 1406 566 1406 660 1538 c 1,12,-1
 762 1538 l 1,0,1
EndSplineSet
EndChar

StartChar: uni207E
Encoding: 8318 8318 409
Width: 1233
Flags: W
LayerCount: 2
Back
Fore
SplineSet
472 1538 m 1,0,-1
 573 1538 l 1,1,2
 668 1406 668 1406 714.5 1279.5 c 128,-1,3
 761 1153 761 1153 761 1028 c 0,4,5
 761 902 761 902 714.5 775.5 c 128,-1,6
 668 649 668 649 573 517 c 1,7,-1
 472 517 l 1,8,9
 556 647 556 647 597.5 774 c 128,-1,10
 639 901 639 901 639 1028 c 0,11,12
 639 1156 639 1156 597.5 1283 c 128,-1,13
 556 1410 556 1410 472 1538 c 1,0,-1
EndSplineSet
EndChar

StartChar: uni207F
Encoding: 8319 8319 410
Width: 1233
Flags: W
LayerCount: 2
Back
Fore
SplineSet
912 1047 m 2,0,-1
 912 668 l 1,1,-1
 796 668 l 1,2,-1
 796 1043 l 2,3,4
 796 1132 796 1132 757 1176.5 c 128,-1,5
 718 1221 718 1221 640 1221 c 0,6,7
 546 1221 546 1221 492 1167.5 c 128,-1,8
 438 1114 438 1114 438 1022 c 2,9,-1
 438 668 l 1,10,-1
 321 668 l 1,11,-1
 321 1295 l 1,12,-1
 438 1295 l 1,13,-1
 438 1198 l 1,14,15
 479 1254 479 1254 535.5 1282 c 128,-1,16
 592 1310 592 1310 666 1310 c 0,17,18
 787 1310 787 1310 849.5 1243 c 128,-1,19
 912 1176 912 1176 912 1047 c 2,0,-1
EndSplineSet
EndChar

StartChar: uni2093
Encoding: 8339 8339 428
Width: 1233
Flags: W
LayerCount: 2
Back
Fore
SplineSet
945 628 m 1,0,-1
 690 323 l 1,1,-1
 959 1 l 1,2,-1
 822 1 l 1,3,-1
 616 247 l 1,4,-1
 411 1 l 1,5,-1
 274 1 l 1,6,-1
 548 329 l 1,7,-1
 298 628 l 1,8,-1
 434 628 l 1,9,-1
 622 405 l 1,10,-1
 809 628 l 1,11,-1
 945 628 l 1,0,-1
EndSplineSet
EndChar

StartChar: uni2102
Encoding: 8450 8450 429
Width: 1233
Flags: W
LayerCount: 2
Back
Fore
SplineSet
513 131 m 1,0,1
 608 76 608 76 732 76 c 0,2,3
 832 76 832 76 910.5 108 c 128,-1,4
 989 140 989 140 1073 184 c 1,5,-1
 1073 53 l 1,6,7
 1064 48 1064 48 964 10 c 128,-1,8
 864 -28 864 -28 732 -28 c 0,9,10
 468 -28 468 -28 304 184 c 128,-1,11
 140 396 140 396 140 745 c 0,12,13
 140 1115 140 1115 302.5 1317.5 c 128,-1,14
 465 1520 465 1520 743 1520 c 0,15,16
 868 1520 868 1520 940 1494 c 128,-1,17
 1012 1468 1012 1468 1073 1438 c 1,18,-1
 1073 1308 l 1,19,20
 982 1350 982 1350 919 1379 c 128,-1,21
 856 1408 856 1408 740 1408 c 128,-1,22
 624 1408 624 1408 513 1360 c 1,23,-1
 513 131 l 1,0,1
408 1282 m 1,24,25
 400 1274 400 1274 389 1260 c 0,26,27
 252 1082 252 1082 252 745 c 0,28,29
 252 437 252 437 386 247 c 0,30,31
 398 230 398 230 408 219 c 1,32,-1
 408 1282 l 1,24,25
EndSplineSet
EndChar

StartChar: uni210D
Encoding: 8461 8461 430
Width: 1233
Flags: W
LayerCount: 2
Back
Fore
SplineSet
909 1393 m 1,0,-1
 909 100 l 1,1,-1
 1098 100 l 1,2,-1
 1098 1393 l 1,3,-1
 909 1393 l 1,0,-1
142 1393 m 1,4,-1
 142 100 l 1,5,-1
 332 100 l 1,6,-1
 332 1393 l 1,7,-1
 142 1393 l 1,4,-1
58 1493 m 1,8,-1
 416 1493 l 1,9,-1
 416 861 l 1,10,-1
 825 861 l 1,11,-1
 825 1493 l 1,12,-1
 1182 1493 l 1,13,-1
 1182 0 l 1,14,-1
 825 0 l 1,15,-1
 825 731 l 1,16,-1
 416 731 l 1,17,-1
 416 0 l 1,18,-1
 58 0 l 1,19,-1
 58 1493 l 1,8,-1
EndSplineSet
EndChar

StartChar: uni2115
Encoding: 8469 8469 431
Width: 1233
Flags: W
LayerCount: 2
Back
Fore
SplineSet
1056 100 m 1,0,-1
 359 1393 l 1,1,-1
 175 1393 l 1,2,-1
 872 100 l 1,3,-1
 1056 100 l 1,0,-1
74 1493 m 1,4,-1
 402 1493 l 1,5,-1
 1080 244 l 1,6,-1
 1080 1493 l 1,7,-1
 1157 1493 l 1,8,-1
 1157 0 l 1,9,-1
 829 0 l 1,10,-1
 151 1249 l 1,11,-1
 151 0 l 1,12,-1
 74 0 l 1,13,-1
 74 1493 l 1,4,-1
EndSplineSet
EndChar

StartChar: uni2119
Encoding: 8473 8473 432
Width: 1233
Flags: W
LayerCount: 2
Back
Fore
SplineSet
162 1393 m 1,0,-1
 162 100 l 1,1,-1
 354 100 l 1,2,-1
 354 1393 l 1,3,-1
 162 1393 l 1,0,-1
450 1393 m 1,4,-1
 450 731 l 1,5,-1
 738 731 l 2,6,7
 761 731 761 731 783 733 c 1,8,-1
 783 1391 l 1,9,10
 761 1393 761 1393 738 1393 c 2,11,-1
 450 1393 l 1,4,-1
66 1493 m 1,12,-1
 693 1493 l 2,13,14
 932 1493 932 1493 1055 1383.5 c 128,-1,15
 1178 1274 1178 1274 1178 1063 c 0,16,17
 1178 850 1178 850 1055 741 c 128,-1,18
 932 632 932 632 692 632 c 2,19,-1
 450 632 l 1,20,-1
 450 0 l 1,21,-1
 66 0 l 1,22,-1
 66 1493 l 1,12,-1
883 1370 m 1,23,-1
 883 755 l 1,24,25
 941 777 941 777 984 818 c 0,26,27
 1073 904 1073 904 1073 1063 c 0,28,29
 1073 1221 1073 1221 985 1307 c 0,30,31
 943 1348 943 1348 883 1370 c 1,23,-1
EndSplineSet
EndChar

StartChar: uni211A
Encoding: 8474 8474 433
Width: 1233
Flags: W
LayerCount: 2
Back
Fore
SplineSet
860 27 m 1,0,-1
 1090 -264 l 1,1,-1
 879 -264 l 1,2,-1
 688 -25 l 1,3,-1
 644 -28 l 2,4,5
 629 -29 629 -29 615 -29 c 0,6,7
 343 -29 343 -29 180 181.5 c 128,-1,8
 17 392 17 392 17 745 c 0,9,10
 17 1099 17 1099 180 1309.5 c 128,-1,11
 343 1520 343 1520 615 1520 c 128,-1,12
 887 1520 887 1520 1049.5 1309.5 c 128,-1,13
 1212 1099 1212 1099 1212 745 c 0,14,15
 1212 485 1212 485 1121.5 300 c 128,-1,16
 1031 115 1031 115 860 27 c 1,0,-1
404 126 m 1,17,18
 497 76 497 76 615 76 c 128,-1,19
 733 76 733 76 826 126 c 1,20,-1
 826 1365 l 1,21,22
 733 1415 733 1415 615 1415 c 128,-1,23
 497 1415 497 1415 404 1365 c 1,24,-1
 404 126 l 1,17,18
313 191 m 1,25,-1
 313 1299 l 1,26,27
 282 1270 282 1270 254 1233 c 0,28,29
 120 1051 120 1051 120 745 c 128,-1,30
 120 439 120 439 254 258 c 0,31,32
 282 221 282 221 313 191 c 1,25,-1
917 1298 m 1,33,-1
 917 193 l 1,34,35
 947 222 947 222 974 258 c 0,36,37
 1108 440 1108 440 1108 745.5 c 128,-1,38
 1108 1051 1108 1051 974 1233 c 0,39,40
 947 1269 947 1269 917 1298 c 1,33,-1
EndSplineSet
EndChar

StartChar: uni211D
Encoding: 8477 8477 434
Width: 1233
Flags: W
LayerCount: 2
Back
Fore
SplineSet
950 383 m 2,0,1
 885 534 885 534 827 582 c 0,2,3
 769 631 769 631 667 631 c 2,4,-1
 629 631 l 1,5,6
 694 584 694 584 780 383 c 2,7,-1
 901 100 l 1,8,-1
 1070 100 l 1,9,-1
 950 383 l 2,0,1
846 691 m 1,10,11
 891 666 891 666 939 600 c 128,-1,12
 987 534 987 534 1040 408 c 2,13,-1
 1213 0 l 1,14,-1
 840 0 l 1,15,-1
 678 383 l 2,16,17
 615 533 615 533 556 582 c 128,-1,18
 497 631 497 631 395 631 c 2,19,-1
 378 631 l 1,20,-1
 378 0 l 1,21,-1
 37 0 l 1,22,-1
 37 1493 l 1,23,-1
 614 1493 l 2,24,25
 831 1493 831 1493 938 1386 c 128,-1,26
 1045 1279 1045 1279 1045 1063 c 0,27,28
 1045 855 1045 855 945 757 c 0,29,30
 904 716 904 716 846 691 c 1,10,11
378 1393 m 1,31,-1
 378 731 l 1,32,-1
 654 731 l 2,33,34
 675 731 675 731 694 733 c 1,35,-1
 694 1391 l 1,36,37
 675 1393 675 1393 654 1393 c 2,38,-1
 378 1393 l 1,31,-1
783 1370 m 1,39,-1
 783 755 l 1,40,41
 838 777 838 777 875 818 c 0,42,43
 951 904 951 904 951 1063 c 128,-1,44
 951 1222 951 1222 876 1307 c 0,45,46
 840 1348 840 1348 783 1370 c 1,39,-1
122 1393 m 1,47,-1
 122 100 l 1,48,-1
 294 100 l 1,49,-1
 294 1393 l 1,50,-1
 122 1393 l 1,47,-1
EndSplineSet
EndChar

StartChar: uni2124
Encoding: 8484 8484 435
Width: 1233
Flags: W
LayerCount: 2
Back
Fore
SplineSet
354 100 m 1,0,-1
 1048 1393 l 1,1,-1
 851 1393 l 1,2,-1
 157 100 l 1,3,-1
 354 100 l 1,0,-1
67 1493 m 1,4,-1
 1158 1493 l 1,5,-1
 1158 1393 l 1,6,-1
 464 100 l 1,7,-1
 1177 100 l 1,8,-1
 1177 0 l 1,9,-1
 48 0 l 1,10,-1
 48 100 l 1,11,-1
 742 1393 l 1,12,-1
 67 1393 l 1,13,-1
 67 1493 l 1,4,-1
EndSplineSet
EndChar

StartChar: arrowleft
Encoding: 8592 8592 436
Width: 1233
Flags: W
LayerCount: 2
Back
Fore
SplineSet
66 520 m 1,0,-1
 66 602 l 1,1,-1
 357 893 l 1,2,-1
 447 803 l 1,3,-1
 287 643 l 1,4,-1
 1167 643 l 1,5,-1
 1167 479 l 1,6,-1
 287 479 l 1,7,-1
 447 319 l 1,8,-1
 357 229 l 1,9,-1
 66 520 l 1,0,-1
EndSplineSet
EndChar

StartChar: arrowup
Encoding: 8593 8593 437
Width: 1233
Flags: W
LayerCount: 2
Back
Fore
SplineSet
658 1101 m 1,0,-1
 948 810 l 1,1,-1
 858 720 l 1,2,-1
 698 880 l 1,3,-1
 698 0 l 1,4,-1
 534 0 l 1,5,-1
 534 880 l 1,6,-1
 374 720 l 1,7,-1
 284 810 l 1,8,-1
 576 1101 l 1,9,-1
 658 1101 l 1,0,-1
EndSplineSet
EndChar

StartChar: arrowright
Encoding: 8594 8594 438
Width: 1233
Flags: W
LayerCount: 2
Back
Fore
SplineSet
1167 520 m 1,0,-1
 876 229 l 1,1,-1
 786 319 l 1,2,-1
 946 479 l 1,3,-1
 66 479 l 1,4,-1
 66 643 l 1,5,-1
 946 643 l 1,6,-1
 786 803 l 1,7,-1
 876 893 l 1,8,-1
 1167 602 l 1,9,-1
 1167 520 l 1,0,-1
EndSplineSet
EndChar

StartChar: arrowdown
Encoding: 8595 8595 439
Width: 1233
Flags: W
LayerCount: 2
Back
Fore
SplineSet
576 0 m 1,0,-1
 284 291 l 1,1,-1
 374 381 l 1,2,-1
 534 221 l 1,3,-1
 534 1101 l 1,4,-1
 698 1101 l 1,5,-1
 698 221 l 1,6,-1
 858 381 l 1,7,-1
 948 291 l 1,8,-1
 658 0 l 1,9,-1
 576 0 l 1,0,-1
EndSplineSet
EndChar

StartChar: arrowboth
Encoding: 8596 8596 440
Width: 1233
Flags: W
LayerCount: 2
Back
Fore
SplineSet
946 479 m 1,0,-1
 287 479 l 1,1,-1
 447 319 l 1,2,-1
 357 229 l 1,3,-1
 66 520 l 1,4,-1
 66 602 l 1,5,-1
 357 893 l 1,6,-1
 447 803 l 1,7,-1
 287 643 l 1,8,-1
 946 643 l 1,9,-1
 786 803 l 1,10,-1
 876 893 l 1,11,-1
 1167 602 l 1,12,-1
 1167 520 l 1,13,-1
 876 229 l 1,14,-1
 786 319 l 1,15,-1
 946 479 l 1,0,-1
EndSplineSet
EndChar

StartChar: arrowupdn
Encoding: 8597 8597 441
Width: 1233
Flags: W
LayerCount: 2
Back
Fore
SplineSet
698 221 m 1,0,-1
 858 381 l 1,1,-1
 948 291 l 1,2,-1
 658 0 l 1,3,-1
 576 0 l 1,4,-1
 284 291 l 1,5,-1
 374 381 l 1,6,-1
 534 221 l 1,7,-1
 534 880 l 1,8,-1
 374 720 l 1,9,-1
 284 810 l 1,10,-1
 576 1101 l 1,11,-1
 658 1101 l 1,12,-1
 948 810 l 1,13,-1
 858 720 l 1,14,-1
 698 880 l 1,15,-1
 698 221 l 1,0,-1
EndSplineSet
EndChar

StartChar: uni2196
Encoding: 8598 8598 442
Width: 1233
Flags: W
LayerCount: 2
Back
Fore
SplineSet
184 807 m 1,0,-1
 242 865 l 1,1,-1
 654 865 l 1,2,-1
 654 738 l 1,3,-1
 427 738 l 1,4,-1
 1049 116 l 1,5,-1
 933 0 l 1,6,-1
 311 622 l 1,7,-1
 311 395 l 1,8,-1
 184 395 l 1,9,-1
 184 807 l 1,0,-1
EndSplineSet
EndChar

StartChar: uni2197
Encoding: 8599 8599 443
Width: 1233
Flags: W
LayerCount: 2
Back
Fore
SplineSet
1049 807 m 1,0,-1
 1049 395 l 1,1,-1
 922 395 l 1,2,-1
 922 622 l 1,3,-1
 300 0 l 1,4,-1
 184 116 l 1,5,-1
 806 738 l 1,6,-1
 579 738 l 1,7,-1
 579 865 l 1,8,-1
 991 865 l 1,9,-1
 1049 807 l 1,0,-1
EndSplineSet
EndChar

StartChar: uni2198
Encoding: 8600 8600 444
Width: 1233
Flags: W
LayerCount: 2
Back
Fore
SplineSet
991 0 m 1,0,-1
 579 0 l 1,1,-1
 579 127 l 1,2,-1
 806 127 l 1,3,-1
 184 749 l 1,4,-1
 300 865 l 1,5,-1
 922 243 l 1,6,-1
 922 470 l 1,7,-1
 1049 470 l 1,8,-1
 1049 58 l 1,9,-1
 991 0 l 1,0,-1
EndSplineSet
EndChar

StartChar: uni2199
Encoding: 8601 8601 445
Width: 1233
Flags: W
LayerCount: 2
Back
Fore
SplineSet
184 58 m 1,0,-1
 184 470 l 1,1,-1
 311 470 l 1,2,-1
 311 243 l 1,3,-1
 933 865 l 1,4,-1
 1049 749 l 1,5,-1
 427 127 l 1,6,-1
 654 127 l 1,7,-1
 654 0 l 1,8,-1
 242 0 l 1,9,-1
 184 58 l 1,0,-1
EndSplineSet
EndChar

StartChar: uni21A2
Encoding: 8610 8610 446
Width: 1233
Flags: W
LayerCount: 2
Back
Fore
SplineSet
925 561 m 1,0,-1
 1167 319 l 1,1,-1
 1077 229 l 1,2,-1
 827 479 l 1,3,-1
 287 479 l 1,4,-1
 447 319 l 1,5,-1
 357 229 l 1,6,-1
 66 520 l 1,7,-1
 66 602 l 1,8,-1
 357 893 l 1,9,-1
 447 803 l 1,10,-1
 287 643 l 1,11,-1
 827 643 l 1,12,-1
 1077 893 l 1,13,-1
 1167 803 l 1,14,-1
 925 561 l 1,0,-1
EndSplineSet
EndChar

